<?xml version="1.0" encoding="UTF-8" standalone="no"?>
<!-- Created with Inkscape (http://www.inkscape.org/) -->

<svg
   width="55.0mm"
   height="55.0mm"
   viewBox="0 0 55.0 55.0"
   version="1.1"
   id="svg344"
   xml:space="preserve"
   inkscape:version="1.2 (dc2aedaf03, 2022-05-15)"
   sodipodi:docname="AA SAO Design Prepped for Shen.svg"
   xmlns:inkscape="http://www.inkscape.org/namespaces/inkscape"
   xmlns:sodipodi="http://sodipodi.sourceforge.net/DTD/sodipodi-0.dtd"
   xmlns="http://www.w3.org/2000/svg"
   xmlns:svg="http://www.w3.org/2000/svg"><sodipodi:namedview
     id="namedview346"
     pagecolor="#ffffff"
     bordercolor="#000000"
     borderopacity="0.25"
     inkscape:showpageshadow="2"
     inkscape:pageopacity="0.0"
     inkscape:pagecheckerboard="0"
     inkscape:deskcolor="#d1d1d1"
     inkscape:document-units="mm"
     showgrid="true"
     inkscape:zoom="2.3652386"
     inkscape:cx="176.93775"
     inkscape:cy="72.719935"
     inkscape:window-width="1920"
     inkscape:window-height="1009"
     inkscape:window-x="-8"
     inkscape:window-y="-8"
     inkscape:window-maximized="1"
     inkscape:current-layer="g1994"><inkscape:grid
       type="xygrid"
       id="grid747" /></sodipodi:namedview><defs
     id="defs341"><inkscape:path-effect
       effect="powerclip"
       id="path-effect2085"
       is_visible="true"
       lpeversion="1"
       inverse="true"
       flatten="false"
       hide_clip="false"
       message="Use fill-rule evenodd on &lt;b&gt;fill and stroke&lt;/b&gt; dialog if no flatten result after convert clip to paths." /><inkscape:path-effect
       effect="powerclip"
       id="path-effect2069"
       is_visible="true"
       lpeversion="1"
       inverse="true"
       flatten="false"
       hide_clip="false"
       message="Use fill-rule evenodd on &lt;b&gt;fill and stroke&lt;/b&gt; dialog if no flatten result after convert clip to paths." /><inkscape:path-effect
       effect="powerclip"
       id="path-effect2032"
       is_visible="true"
       lpeversion="1"
       inverse="true"
       flatten="false"
       hide_clip="false"
       message="Use fill-rule evenodd on &lt;b&gt;fill and stroke&lt;/b&gt; dialog if no flatten result after convert clip to paths." /><inkscape:path-effect
       effect="powerclip"
       id="path-effect1702"
       is_visible="true"
       lpeversion="1"
       inverse="true"
       flatten="false"
       hide_clip="false"
       message="Use fill-rule evenodd on &lt;b&gt;fill and stroke&lt;/b&gt; dialog if no flatten result after convert clip to paths." /><inkscape:path-effect
       effect="powerclip"
       id="path-effect1666"
       is_visible="true"
       lpeversion="1"
       inverse="true"
       flatten="false"
       hide_clip="false"
       message="Use fill-rule evenodd on &lt;b&gt;fill and stroke&lt;/b&gt; dialog if no flatten result after convert clip to paths." /><inkscape:path-effect
       effect="powerclip"
       id="path-effect960"
       is_visible="true"
       lpeversion="1"
       inverse="true"
       flatten="false"
       hide_clip="false"
       message="Use fill-rule evenodd on &lt;b&gt;fill and stroke&lt;/b&gt; dialog if no flatten result after convert clip to paths." /><inkscape:path-effect
       effect="powerclip"
       id="path-effect844"
       is_visible="true"
       lpeversion="1"
       inverse="true"
       flatten="false"
       hide_clip="false"
       message="Use fill-rule evenodd on &lt;b&gt;fill and stroke&lt;/b&gt; dialog if no flatten result after convert clip to paths." /><inkscape:path-effect
       effect="powerclip"
       id="path-effect771"
       is_visible="true"
       lpeversion="1"
       inverse="true"
       flatten="false"
       hide_clip="false"
       message="Use fill-rule evenodd on &lt;b&gt;fill and stroke&lt;/b&gt; dialog if no flatten result after convert clip to paths." /><inkscape:path-effect
       effect="powerclip"
       id="path-effect760"
       is_visible="true"
       lpeversion="1"
       inverse="true"
       flatten="false"
       hide_clip="false"
       message="Use fill-rule evenodd on &lt;b&gt;fill and stroke&lt;/b&gt; dialog if no flatten result after convert clip to paths." /><inkscape:path-effect
       effect="powerclip"
       id="path-effect738"
       is_visible="true"
       lpeversion="1"
       inverse="true"
       flatten="false"
       hide_clip="false"
       message="Use fill-rule evenodd on &lt;b&gt;fill and stroke&lt;/b&gt; dialog if no flatten result after convert clip to paths." /><inkscape:path-effect
       effect="powerclip"
       id="path-effect1588"
       is_visible="true"
       lpeversion="1"
       inverse="true"
       flatten="false"
       hide_clip="false"
       message="Use fill-rule evenodd on &lt;b&gt;fill and stroke&lt;/b&gt; dialog if no flatten result after convert clip to paths." /><inkscape:path-effect
       effect="powerclip"
       id="path-effect1570"
       is_visible="true"
       lpeversion="1"
       inverse="true"
       flatten="false"
       hide_clip="false"
       message="Use fill-rule evenodd on &lt;b&gt;fill and stroke&lt;/b&gt; dialog if no flatten result after convert clip to paths." /><inkscape:path-effect
       effect="powerclip"
       id="path-effect1454"
       is_visible="true"
       lpeversion="1"
       inverse="true"
       flatten="false"
       hide_clip="false"
       message="Use fill-rule evenodd on &lt;b&gt;fill and stroke&lt;/b&gt; dialog if no flatten result after convert clip to paths." /><inkscape:path-effect
       effect="powerclip"
       id="path-effect1331"
       is_visible="true"
       lpeversion="1"
       inverse="true"
       flatten="false"
       hide_clip="false"
       message="Use fill-rule evenodd on &lt;b&gt;fill and stroke&lt;/b&gt; dialog if no flatten result after convert clip to paths." /><inkscape:path-effect
       effect="powermask"
       id="path-effect1187"
       is_visible="true"
       lpeversion="1"
       uri="#mask-powermask-path-effect1187"
       invert="false"
       hide_mask="false"
       background="true"
       background_color="#ffffffff" /><inkscape:path-effect
       effect="powerclip"
       id="path-effect1164"
       is_visible="true"
       lpeversion="1"
       inverse="true"
       flatten="false"
       hide_clip="false"
       message="Use fill-rule evenodd on &lt;b&gt;fill and stroke&lt;/b&gt; dialog if no flatten result after convert clip to paths." /><inkscape:path-effect
       effect="powerclip"
       id="path-effect906"
       is_visible="true"
       lpeversion="1"
       inverse="true"
       flatten="false"
       hide_clip="false"
       message="Use fill-rule evenodd on &lt;b&gt;fill and stroke&lt;/b&gt; dialog if no flatten result after convert clip to paths." /><inkscape:path-effect
       effect="powerclip"
       id="path-effect884"
       is_visible="true"
       lpeversion="1"
       inverse="true"
       flatten="false"
       hide_clip="false"
       message="Use fill-rule evenodd on &lt;b&gt;fill and stroke&lt;/b&gt; dialog if no flatten result after convert clip to paths." /><inkscape:path-effect
       effect="powerclip"
       id="path-effect880"
       is_visible="true"
       lpeversion="1"
       inverse="true"
       flatten="false"
       hide_clip="false"
       message="Use fill-rule evenodd on &lt;b&gt;fill and stroke&lt;/b&gt; dialog if no flatten result after convert clip to paths." /><clipPath
       clipPathUnits="userSpaceOnUse"
       id="clipPath868"><text
         xml:space="preserve"
         style="font-style:normal;font-variant:normal;font-weight:normal;font-stretch:normal;font-size:2.82223px;font-family:'Bauhaus 93';-inkscape-font-specification:'Bauhaus 93, ';text-align:center;text-anchor:middle;fill:#ff0000;fill-opacity:1;stroke-width:0.264583"
         x="69.87075"
         y="133.39374"
         id="text872"><tspan
           sodipodi:role="line"
           id="tspan870"
           style="font-style:normal;font-variant:normal;font-weight:normal;font-stretch:normal;font-size:2.82223px;font-family:'Bauhaus 93';-inkscape-font-specification:'Bauhaus 93, ';stroke-width:0.264583"
           x="69.87075"
           y="133.39374">E Computer</tspan></text></clipPath><clipPath
       clipPathUnits="userSpaceOnUse"
       id="clipPath874"><text
         xml:space="preserve"
         style="font-style:normal;font-variant:normal;font-weight:normal;font-stretch:normal;font-size:2.82223px;font-family:'Bauhaus 93';-inkscape-font-specification:'Bauhaus 93, ';text-align:center;text-anchor:middle;fill:#ff0000;fill-opacity:1;stroke-width:0.264583"
         x="69.87075"
         y="133.39374"
         id="text878"><tspan
           sodipodi:role="line"
           id="tspan876"
           style="font-style:normal;font-variant:normal;font-weight:normal;font-stretch:normal;font-size:2.82223px;font-family:'Bauhaus 93';-inkscape-font-specification:'Bauhaus 93, ';stroke-width:0.264583"
           x="69.87075"
           y="133.39374">E Computer</tspan></text></clipPath><filter
       id="mask-powermask-path-effect974_inverse"
       inkscape:label="filtermask-powermask-path-effect974"
       style="color-interpolation-filters:sRGB"
       height="100"
       width="100"
       x="-50"
       y="-50"><feColorMatrix
         id="mask-powermask-path-effect974_primitive1"
         values="1"
         type="saturate"
         result="fbSourceGraphic" /><feColorMatrix
         id="mask-powermask-path-effect974_primitive2"
         values="-1 0 0 0 1 0 -1 0 0 1 0 0 -1 0 1 0 0 0 1 0 "
         in="fbSourceGraphic" /></filter><filter
       id="mask-powermask-path-effect988_inverse"
       inkscape:label="filtermask-powermask-path-effect988"
       style="color-interpolation-filters:sRGB"
       height="100"
       width="100"
       x="-50"
       y="-50"><feColorMatrix
         id="mask-powermask-path-effect988_primitive1"
         values="1"
         type="saturate"
         result="fbSourceGraphic" /><feColorMatrix
         id="mask-powermask-path-effect988_primitive2"
         values="-1 0 0 0 1 0 -1 0 0 1 0 0 -1 0 1 0 0 0 1 0 "
         in="fbSourceGraphic" /></filter><filter
       id="mask-powermask-path-effect1000_inverse"
       inkscape:label="filtermask-powermask-path-effect1000"
       style="color-interpolation-filters:sRGB"
       height="100"
       width="100"
       x="-50"
       y="-50"><feColorMatrix
         id="mask-powermask-path-effect1000_primitive1"
         values="1"
         type="saturate"
         result="fbSourceGraphic" /><feColorMatrix
         id="mask-powermask-path-effect1000_primitive2"
         values="-1 0 0 0 1 0 -1 0 0 1 0 0 -1 0 1 0 0 0 1 0 "
         in="fbSourceGraphic" /></filter><filter
       id="mask-powermask-path-effect1303_inverse"
       inkscape:label="filtermask-powermask-path-effect1303"
       style="color-interpolation-filters:sRGB"
       height="100"
       width="100"
       x="-50"
       y="-50"><feColorMatrix
         id="mask-powermask-path-effect1303_primitive1"
         values="1"
         type="saturate"
         result="fbSourceGraphic" /><feColorMatrix
         id="mask-powermask-path-effect1303_primitive2"
         values="-1 0 0 0 1 0 -1 0 0 1 0 0 -1 0 1 0 0 0 1 0 "
         in="fbSourceGraphic" /></filter><clipPath
       clipPathUnits="userSpaceOnUse"
       id="clipPath1450"><rect
         style="display:block;fill:#ff0000;fill-opacity:1;stroke-width:0.264583"
         id="rect1452"
         width="25.799131"
         height="19.768751"
         x="65.427315"
         y="100.11331"
         ry="0.07" /></clipPath><clipPath
       clipPathUnits="userSpaceOnUse"
       id="clipPath1548"><g
         aria-label="E Computer"
         id="g1568"
         style="font-size:2.82223px;font-family:'Bauhaus 93';-inkscape-font-specification:'Bauhaus 93, ';text-align:center;text-anchor:middle;display:block;fill:#ff0000;stroke-width:0.264583"><path
           d="m 63.801164,132.24445 v 0.41893 h -0.365181 q -0.07441,0 -0.106109,0.022 -0.03032,0.0221 -0.03032,0.0744 0,0.0592 0.03169,0.0786 0.03169,0.0179 0.129536,0.0179 h 0.376205 v 0.53744 H 63.39739 q -0.31006,0 -0.474047,-0.14745 -0.163987,-0.14883 -0.163987,-0.42857 v -0.73726 q 0,-0.27009 0.154341,-0.41892 0.155719,-0.14883 0.43684,-0.14883 h 0.486448 v 0.54019 H 63.48008 q -0.144694,0 -0.144694,0.0937 0,0.0551 0.03445,0.0772 0.03445,0.0207 0.122646,0.0207 z"
           id="path1550" /><path
           d="m 66.135567,132.47458 0.585668,0.0152 q -0.05788,0.45476 -0.315571,0.7028 -0.256316,0.24805 -0.669729,0.24805 -0.420303,0 -0.704179,-0.28112 -0.282499,-0.2825 -0.282499,-0.70004 0,-0.42031 0.288011,-0.70694 0.289389,-0.28663 0.712448,-0.28663 0.416168,0 0.694533,0.28112 0.192926,0.1943 0.272852,0.54157 l -0.599448,0.04 q -0.100597,-0.30868 -0.381718,-0.30868 -0.179145,0 -0.296279,0.12402 -0.115755,0.12403 -0.115755,0.31558 0,0.18465 0.114377,0.30592 0.114378,0.11989 0.289389,0.11989 0.177767,0 0.282499,-0.10611 0.106109,-0.10611 0.125401,-0.30455 z"
           id="path1552" /><path
           d="m 67.599048,131.99089 q 0.292145,0 0.500229,0.21084 0.209463,0.20946 0.209463,0.50299 0,0.29765 -0.212219,0.50712 -0.21084,0.20946 -0.509875,0.20946 -0.299036,0 -0.511254,-0.20946 -0.212219,-0.21084 -0.212219,-0.50712 0,-0.30179 0.212219,-0.50712 0.212218,-0.20671 0.523656,-0.20671 z m -0.01378,0.5085 q -0.08268,0 -0.14056,0.0606 -0.05788,0.0593 -0.05788,0.14607 0,0.0854 0.05788,0.14608 0.05926,0.0606 0.14056,0.0606 0.08268,0 0.140561,-0.0606 0.05926,-0.0606 0.05926,-0.14608 0,-0.0868 -0.05788,-0.14607 -0.05788,-0.0606 -0.141939,-0.0606 z"
           id="path1554" /><path
           d="m 70.408876,133.39374 h -0.515388 v -0.74139 q 0,-0.0854 -0.01791,-0.11851 -0.01792,-0.0331 -0.06477,-0.0331 -0.08682,0 -0.08682,0.15296 v 0.74001 H 69.2086 v -0.74139 q 0,-0.0854 -0.01929,-0.11851 -0.01791,-0.0331 -0.06477,-0.0331 -0.08544,0 -0.08544,0.15296 v 0.74001 h -0.515388 v -0.84612 q 0,-0.23151 0.155719,-0.39274 0.155719,-0.16261 0.377584,-0.16261 0.228755,0 0.410656,0.19292 0.202572,-0.19292 0.405145,-0.19292 0.257693,0 0.413412,0.18741 0.122646,0.14608 0.122646,0.42582 z"
           id="path1556" /><path
           d="M 71.195738,133.90224 H 70.68035 v -1.14654 q 0,-0.31557 0.165365,-0.51401 0.09508,-0.11437 0.241157,-0.1819 0.147451,-0.0675 0.301792,-0.0675 0.307303,0 0.518143,0.20671 0.210841,0.2067 0.210841,0.50711 0,0.29215 -0.209462,0.50437 -0.209463,0.21222 -0.496096,0.21222 -0.04685,0 -0.137804,-0.01 v -0.56775 q 0.06339,0.051 0.12678,0.051 0.07993,0 0.136426,-0.0593 0.05788,-0.0593 0.05788,-0.14056 0,-0.0813 -0.05926,-0.13781 -0.05926,-0.0579 -0.141938,-0.0579 -0.198438,0 -0.198438,0.27423 z"
           id="path1558" /><path
           d="m 72.343647,132.03912 h 0.515388 v 0.77584 q 0,0.11713 0.09784,0.11713 0.09646,0 0.09646,-0.11713 v -0.77584 h 0.515388 v 0.76619 q 0,0.26734 -0.177768,0.452 -0.177767,0.18328 -0.435461,0.18328 -0.293523,0 -0.472668,-0.2136 -0.139183,-0.16674 -0.139183,-0.46302 z"
           id="path1560" /><path
           d="m 74.328028,131.51271 v 0.52641 h 0.231511 v 0.54433 h -0.231511 q 0,0.16399 0.05099,0.226 0.05237,0.062 0.190169,0.062 v 0.54157 q -0.03996,0.001 -0.05926,0.001 -0.175012,0 -0.330731,-0.0813 -0.15434,-0.0813 -0.248047,-0.22048 -0.118512,-0.17777 -0.118512,-0.47129 v -1.12862 z"
           id="path1562" /><path
           d="M 76.163579,132.79016 H 75.38223 q -0.01792,-0.0593 -0.01792,-0.10887 0,-0.0689 0.02481,-0.13505 h 0.261828 q -0.02756,-0.15296 -0.172255,-0.15296 -0.09646,0 -0.157097,0.0827 -0.06063,0.0813 -0.06063,0.20946 0,0.13367 0.05788,0.21636 0.05926,0.0827 0.15434,0.0827 0.07717,0 0.148829,-0.0772 l 0.293523,0.35278 q -0.205328,0.16123 -0.456132,0.16123 -0.305925,0 -0.51401,-0.20533 -0.208084,-0.20533 -0.208084,-0.5085 0,-0.30179 0.209462,-0.50987 0.210841,-0.20809 0.516766,-0.20809 0.299035,0 0.501607,0.20395 0.203951,0.20258 0.203951,0.50023 0,0.0303 -0.0055,0.0965 z"
           id="path1564" /><path
           d="m 77.130965,132.00605 v 0.55122 q -0.05374,-0.0303 -0.09784,-0.0303 -0.140561,0 -0.140561,0.21497 v 0.65182 h -0.515387 v -0.75104 q 0,-0.29765 0.162609,-0.47404 0.162609,-0.17777 0.434083,-0.17777 0.06063,0 0.157097,0.0152 z"
           id="path1566" /></g></clipPath><clipPath
       clipPathUnits="userSpaceOnUse"
       id="clipPath1584"><rect
         style="display:block;fill:#ff0000;fill-opacity:1;stroke-width:0.25805"
         id="rect1586"
         width="13.693034"
         height="1.4055763"
         x="79.347054"
         y="126.54723"
         ry="0.39377484"
         inkscape:label="Diskette" /></clipPath><clipPath
       clipPathUnits="userSpaceOnUse"
       id="clipPath2028"><rect
         style="display:block;fill:#0000ff;stroke-width:0.264583"
         id="rect2030"
         width="16.78503"
         height="2.3978715"
         x="86.010307"
         y="134.90585"
         ry="0.31738824"
         inkscape:label="Diskette" /></clipPath><clipPath
       clipPathUnits="userSpaceOnUse"
       id="clipPath2047"><g
         aria-label="E Computer"
         id="g2067"
         style="font-size:3.52777px;font-family:'Bauhaus 93';-inkscape-font-specification:'Bauhaus 93, ';text-align:center;text-anchor:middle;display:block;stroke-width:0.264583"><path
           d="m 64.036194,143.89476 v 0.52365 h -0.456475 q -0.09302,0 -0.132636,0.0276 -0.03789,0.0276 -0.03789,0.093 0,0.0741 0.03962,0.0982 0.03962,0.0224 0.161919,0.0224 h 0.470255 v 0.67179 h -0.549492 q -0.387572,0 -0.592555,-0.18431 -0.204983,-0.18604 -0.204983,-0.53571 v -0.92156 q 0,-0.33762 0.192925,-0.52366 0.194648,-0.18603 0.546047,-0.18603 h 0.608058 v 0.67523 h -0.446139 q -0.180867,0 -0.180867,0.11714 0,0.0689 0.04306,0.0965 0.04306,0.0258 0.153307,0.0258 z"
           id="path2049" /><path
           d="m 66.954183,144.18242 0.732081,0.0189 q -0.07235,0.56844 -0.394463,0.8785 -0.320393,0.31006 -0.837156,0.31006 -0.525376,0 -0.88022,-0.3514 -0.353121,-0.35312 -0.353121,-0.87505 0,-0.52538 0.360011,-0.88367 0.361735,-0.35829 0.890556,-0.35829 0.520208,0 0.868162,0.3514 0.241156,0.24288 0.341063,0.67696 l -0.749306,0.0499 q -0.125746,-0.38585 -0.477145,-0.38585 -0.223931,0 -0.370347,0.15503 -0.144694,0.15503 -0.144694,0.39447 0,0.23082 0.142972,0.3824 0.142971,0.14986 0.361734,0.14986 0.222208,0 0.353121,-0.13263 0.132636,-0.13264 0.156752,-0.38069 z"
           id="path2051" /><path
           d="m 68.783524,143.57781 q 0.36518,0 0.625284,0.26355 0.261827,0.26183 0.261827,0.62873 0,0.37207 -0.265272,0.63389 -0.263549,0.26183 -0.637341,0.26183 -0.373793,0 -0.639064,-0.26183 -0.265272,-0.26355 -0.265272,-0.63389 0,-0.37724 0.265272,-0.6339 0.265271,-0.25838 0.654566,-0.25838 z m -0.01722,0.63562 q -0.103353,0 -0.1757,0.0758 -0.07235,0.0741 -0.07235,0.18259 0,0.1068 0.07235,0.18259 0.07407,0.0758 0.1757,0.0758 0.103353,0 0.175699,-0.0758 0.07407,-0.0758 0.07407,-0.18259 0,-0.10852 -0.07235,-0.18259 -0.07235,-0.0758 -0.177422,-0.0758 z"
           id="path2053" /><path
           d="M 72.295792,145.33136 H 71.65156 v -0.92673 q 0,-0.1068 -0.02239,-0.14814 -0.02239,-0.0413 -0.08096,-0.0413 -0.10852,0 -0.10852,0.1912 v 0.92501 h -0.644232 v -0.92673 q 0,-0.1068 -0.02412,-0.14814 -0.02239,-0.0413 -0.08096,-0.0413 -0.106798,0 -0.106798,0.1912 v 0.92501 h -0.644231 v -1.05764 q 0,-0.28939 0.194647,-0.49093 0.194648,-0.20326 0.471977,-0.20326 0.285943,0 0.513318,0.24116 0.253214,-0.24116 0.506428,-0.24116 0.322116,0 0.516763,0.23427 0.153307,0.18259 0.153307,0.53226 z"
           id="path2055" /><path
           d="m 73.279364,145.96698 h -0.644231 v -1.43316 q 0,-0.39446 0.206705,-0.64251 0.118855,-0.14297 0.301445,-0.22737 0.184312,-0.0844 0.377237,-0.0844 0.384128,0 0.647677,0.25838 0.263549,0.25839 0.263549,0.6339 0,0.36518 -0.261827,0.63045 -0.261826,0.26527 -0.620115,0.26527 -0.05857,0 -0.172255,-0.012 v -0.70969 q 0.07924,0.0637 0.158474,0.0637 0.09991,0 0.170532,-0.0741 0.07235,-0.0741 0.07235,-0.1757 0,-0.10163 -0.07407,-0.17225 -0.07407,-0.0724 -0.177422,-0.0724 -0.248046,0 -0.248046,0.34279 z"
           id="path2057" /><path
           d="m 74.714244,143.6381 h 0.644231 v 0.96979 q 0,0.14642 0.122301,0.14642 0.120578,0 0.120578,-0.14642 v -0.96979 h 0.644231 v 0.95773 q 0,0.33418 -0.222208,0.565 -0.222208,0.2291 -0.544324,0.2291 -0.366902,0 -0.590832,-0.267 -0.173977,-0.20843 -0.173977,-0.57877 z"
           id="path2059" /><path
           d="m 77.194707,142.98009 v 0.65801 h 0.289388 v 0.6804 h -0.289388 q 0,0.20499 0.06373,0.2825 0.06546,0.0775 0.237711,0.0775 v 0.67696 q -0.04995,0.002 -0.07407,0.002 -0.218763,0 -0.413411,-0.10163 -0.192924,-0.10163 -0.310057,-0.27561 -0.148139,-0.22221 -0.148139,-0.58911 v -1.41076 z"
           id="path2061" /><path
           d="m 79.489135,144.57689 h -0.976682 q -0.02239,-0.0741 -0.02239,-0.13609 0,-0.0861 0.03101,-0.1688 h 0.327283 q -0.03445,-0.19121 -0.215318,-0.19121 -0.120578,0 -0.19637,0.10336 -0.07579,0.10163 -0.07579,0.26182 0,0.16709 0.07235,0.27044 0.07407,0.10335 0.192925,0.10335 0.09646,0 0.186035,-0.0965 l 0.366901,0.44097 q -0.256659,0.20154 -0.570162,0.20154 -0.382404,0 -0.642509,-0.25666 -0.260104,-0.25666 -0.260104,-0.63562 0,-0.37723 0.261827,-0.63734 0.263549,-0.2601 0.645954,-0.2601 0.373792,0 0.627006,0.25493 0.254936,0.25322 0.254936,0.62529 0,0.0379 -0.0069,0.12058 z"
           id="path2063" /><path
           d="m 80.69836,143.59676 v 0.68902 q -0.06718,-0.0379 -0.1223,-0.0379 -0.1757,0 -0.1757,0.26872 v 0.81476 h -0.644231 v -0.93879 q 0,-0.37207 0.20326,-0.59255 0.20326,-0.22221 0.542601,-0.22221 0.07579,0 0.19637,0.0189 z"
           id="path2065" /></g></clipPath><clipPath
       clipPathUnits="userSpaceOnUse"
       id="clipPath2081"><rect
         style="display:block;fill:#ff0000;stroke-width:0.264583"
         id="rect2083"
         width="35.238167"
         height="25.542458"
         x="65.576347"
         y="101.02302"
         ry="0.31738824" /></clipPath></defs><g
     inkscape:label="[fixed] BG"
     inkscape:groupmode="layer"
     sodipodi:insensitive="true"
     id="g1992"><rect
       x="0"
       y="0"
       width="55.0"
       height="55.0"
       style="fill:#FFFFFF;fill-opacity:1;stroke:none"
       id="rect1990" /></g><g
     inkscape:label="Edge.Cuts"
     inkscape:groupmode="layer"
     id="g1994"
     style="display:inline"><path
       id="polygon65"
       class="st2"
       style="display:inline;fill:#000000"
       d="M 244.8 259.5 L 231.6 259.5 L 218.4 259.4 L 205.2 259.4 L 192 259.4 L 191.2 259.5 L 190.3 259.5 L 189.5 259.5 L 188.7 259.6 L 187.8 259.6 L 187 259.7 L 186.2 259.7 L 185.4 259.7 L 185.2 259.7 L 185 259.8 L 184.8 259.8 L 184.6 259.9 L 184.4 259.9 L 184.2 260 L 184.1 260.1 L 183.9 260.2 L 183.7 260.4 L 183.5 260.5 L 183.3 260.8 L 183.1 261 L 182.9 261.3 L 182.7 261.7 L 182.5 262.1 L 182.3 262.5 L 182.3 262.7 L 182.2 262.8 L 182.2 262.9 L 182.2 263 L 182.2 263.1 L 182.2 263.2 L 182.2 263.3 L 182.2 263.4 L 182.1 264.2 L 182.1 265 L 182.1 265.8 L 182.1 266.5 L 182.1 267.3 L 182.1 268.1 L 182.1 268.9 L 182.1 269.7 L 182.1 285.1 L 182.1 300.6 L 182.1 316.1 L 182.1 331.5 L 182.1 347 L 182.1 362.5 L 182.1 393.4 L 182.1 393.5 L 182.1 393.8 L 182.2 394.3 L 182.4 394.9 L 182.8 395.5 L 183.3 396.1 L 184.1 396.6 L 185.1 397 L 185.1 397.4 L 185.1 398.6 L 185.1 400.3 L 185.1 402.4 L 185.1 404.8 L 185.1 407.2 L 185.1 409.5 L 185.1 411.5 L 185.2 412.1 L 185.4 412.6 L 185.7 413.1 L 186 413.5 L 186.4 413.8 L 186.9 414.1 L 187.4 414.3 L 188 414.4 L 202.1 414.4 L 216.2 414.4 L 230.3 414.4 L 244.4 414.4 L 258.5 414.4 L 272.6 414.4 L 281.6 414.4 L 286.4 414.4 L 300.5 414.4 L 301.1 414.3 L 301.6 414.1 L 302.1 413.8 L 302.5 413.5 L 302.8 413.1 L 303.1 412.6 L 303.3 412.1 L 303.4 411.5 L 303.4 409.5 L 303.4 407.2 L 303.4 404.8 L 303.4 402.4 L 303.4 400.3 L 303.4 398.6 L 303.4 397.4 L 303.4 397 L 304.4 396.6 L 305.2 396.1 L 305.7 395.5 L 306.1 394.9 L 306.3 394.3 L 306.4 393.8 L 306.4 393.5 L 306.4 393.4 L 306.5 360.4 L 306.5 344.5 L 306.5 328.6 L 306.5 312.8 L 306.5 296.9 L 306.5 281.1 L 306.5 265.2 L 306.5 265.1 L 306.5 264.8 L 306.5 264.5 L 306.5 264.3 L 306.4 264 L 306.4 263.7 L 306.4 263.5 L 306.4 263.2 L 306.4 263 L 306.4 262.9 L 306.4 262.8 L 306.3 262.7 L 306.3 262.6 L 306.3 262.5 L 306.3 262.4 L 306.2 262.3 L 306.1 262 L 305.9 261.6 L 305.7 261.2 L 305.3 260.8 L 304.9 260.4 L 304.3 260.1 L 303.7 259.8 L 302.9 259.7 L 302.2 259.7 L 301.6 259.6 L 300.9 259.6 L 300.3 259.6 L 299.6 259.6 L 299 259.5 L 298.3 259.5 L 297.7 259.5 L 284.5 259.5 L 271.2 259.5 L 258 259.5 L 244.8 259.5"
       transform="matrix(0.354839 0 0 0.354839 -58.9981 -92.0452)" /></g><g
     inkscape:label="B.Cu"
     inkscape:groupmode="layer"
     id="g1996" /><g
     inkscape:label="B.Mask"
     inkscape:groupmode="layer"
     id="g1998"><polygon
       class="st3"
       points="202.9,277.5 203,276.9 203.3,276.5 203.6,276 204.1,275.7 204.5,275.4 205.1,275.3 205.6,275.2 215.4,275.2 225.2,275.2 235,275.2 244.7,275.2 254.5,275.2 264.3,275.2 274.1,275.2 283.9,275.2 284.4,275.3 285,275.4 285.4,275.7 285.8,276 286.2,276.5 286.5,276.9 286.6,277.5 286.7,278 286.7,285.7 286.7,293.4 286.7,301 286.7,308.7 286.7,316.3 286.7,324 286.7,331.7 286.7,339.3 286.6,339.9 286.5,340.4 286.2,340.9 285.8,341.3 285.4,341.7 285,341.9 284.4,342.1 283.9,342.2 274.1,342.2 264.3,342.2 254.5,342.2 244.7,342.2 235,342.2 225.2,342.2 215.4,342.2 205.6,342.2 205.1,342.1 204.5,341.9 204.1,341.7 203.6,341.3 203.3,340.9 203,340.4 202.9,339.9 202.8,339.3 202.8,331.7 202.8,324 202.8,316.3 202.8,308.7 202.8,301 202.8,293.4 202.8,285.7 202.8,278 "
       id="polygon69"
       style="display:inline;fill:#000000"
       transform="matrix(0.35483871,0,0,0.35483871,-58.998129,-92.045161)" /></g><g
     inkscape:label="B.SilkS"
     inkscape:groupmode="layer"
     id="g2000"
     style="fill:#000000"><g
       id="layer2_1_"
       style="display:inline;fill:#000000"
       transform="matrix(0.35483871,0,0,0.35483871,-58.998129,-92.045161)">
						<g
   class="st0"
   id="g42"
   style="enable-background:new;fill:#000000">
							<path
   class="st1"
   d="m 299.5,356.7 -0.6,-0.1 -0.5,-0.4 -0.4,-0.5 -0.1,-0.6 v -2.1 -2.1 l 0.1,-0.6 0.4,-0.5 0.5,-0.4 0.6,-0.1 h 1.7 1.7 v 3.8 3.8 h -1.7 -1.7 z m 1.7,-6.7 h -0.4 -0.4 l -0.3,0.1 -0.3,0.2 -0.2,0.3 -0.1,0.3 v 2.1 2.1 l 0.1,0.3 0.2,0.3 0.3,0.2 0.3,0.1 h 0.4 0.4 v -2.9 z"
   id="path4"
   style="fill:#000000" />
							<path
   class="st1"
   d="m 291.2,352.5 0.1,-0.6 0.4,-0.5 0.5,-0.4 0.6,-0.1 h 0.8 0.8 l 0.6,0.1 0.5,0.4 0.4,0.5 0.1,0.6 v 1.2 1.2 l -0.1,0.6 -0.4,0.5 -0.5,0.4 -0.6,0.1 h -0.8 -0.8 l -1.2,-0.4 -0.5,-1.2 h 0.4 0.4 l 0.2,0.6 0.6,0.2 h 0.4 0.4 l 0.3,-0.1 0.3,-0.2 0.2,-0.3 0.1,-0.3 v -0.4 -0.4 h -1.7 -1.7 v -0.8 -0.7 z m 3.3,0 -0.1,-0.3 -0.2,-0.3 -0.3,-0.2 -0.3,-0.1 -0.3,0.1 -0.3,0.2 -0.2,0.3 -0.1,0.3 v 0.4 0.4 h 0.8 0.8 v -0.4 -0.4 z"
   id="path6"
   style="fill:#000000" />
							<path
   class="st1"
   d="m 287,350.9 h 0.4 0.4 l 0.6,0.1 0.5,0.4 0.4,0.5 0.1,0.6 v 0.4 l -0.1,0.4 -0.4,0.4 -0.8,0.5 -0.9,0.6 -0.3,0.4 0.1,0.3 0.2,0.2 0.3,0.1 h 0.4 l 0.5,-0.2 0.2,-0.6 h 0.4 0.4 l -0.4,1.2 -1.2,0.4 h -0.4 -0.4 l -0.6,-0.1 -0.5,-0.4 -0.4,-0.5 -0.1,-0.6 v -0.4 l 0.1,-0.4 0.4,-0.4 0.8,-0.5 0.9,-0.6 0.3,-0.4 -0.1,-0.3 -0.2,-0.2 -0.3,-0.1 h -0.4 l -0.5,0.2 -0.3,0.6 h -0.4 -0.4 l 0.5,-1.3 z"
   id="path8"
   style="fill:#000000" />
							<path
   class="st1"
   d="m 282,350 v -0.4 -0.4 h 0.8 0.8 v 0.4 0.4 h -0.8 z m 0,6.7 v -2.9 -2.9 h 0.8 0.8 v 2.9 2.9 h -0.8 z"
   id="path10"
   style="fill:#000000" />
							<path
   class="st1"
   d="m 278.7,350.9 0.6,0.1 0.5,0.4 0.4,0.5 0.1,0.6 v 1.2 1.2 l -0.1,0.6 -0.4,0.5 -0.5,0.4 -0.6,0.1 h -0.4 -0.4 l -0.6,-0.2 -0.3,-0.6 v 0.8 0.8 l 0.1,0.3 0.2,0.3 0.3,0.2 0.3,0.1 h 0.4 0.4 l 0.6,-0.2 0.2,-0.6 h 0.4 0.4 l -0.5,1.2 -1.2,0.4 h -0.8 -0.8 l -0.6,-0.1 -0.5,-0.4 -0.4,-0.5 -0.1,-0.6 v -3.3 -3.3 h 1.7 1.6 z m -1.7,4.1 0.1,0.3 0.2,0.3 0.3,0.2 0.3,0.1 0.3,-0.1 0.3,-0.2 0.2,-0.3 0.1,-0.3 v -1.2 -1.2 l -0.1,-0.3 -0.2,-0.3 -0.3,-0.2 -0.3,-0.1 h -0.4 -0.5 v 1.7 z"
   id="path12"
   style="fill:#000000" />
							<path
   class="st1"
   d="m 272,356.7 v -2.1 -2.1 l -0.1,-0.3 -0.2,-0.3 -0.3,-0.2 -0.3,-0.1 -0.3,0.1 -0.3,0.2 -0.2,0.3 -0.1,0.3 v 2.1 2.1 h -0.8 -0.8 v -2.1 -2.1 l 0.1,-0.6 0.4,-0.5 0.5,-0.4 0.6,-0.1 h 0.4 0.4 l 0.3,0.1 0.2,0.2 0.2,0.3 0.1,0.4 v -0.4 -0.4 h 0.8 0.8 v 2.9 2.9 h -0.8 -0.6 z"
   id="path14"
   style="fill:#000000" />
							<path
   class="st1"
   d="m 262,352.5 0.1,-0.6 0.4,-0.5 0.5,-0.4 0.6,-0.1 h 0.8 0.8 l 0.6,0.1 0.5,0.4 0.4,0.5 0.1,0.6 v 1.2 1.2 l -0.1,0.6 -0.4,0.5 -0.5,0.4 -0.6,0.1 h -0.8 -0.8 l -1.2,-0.4 -0.4,-1.1 h 0.4 0.4 l 0.2,0.6 0.6,0.2 h 0.4 0.4 l 0.3,-0.1 0.3,-0.2 0.2,-0.3 0.1,-0.3 v -0.4 -0.4 h -1.7 -1.6 v -0.8 z m 3.3,0 -0.1,-0.3 -0.2,-0.3 -0.3,-0.2 -0.3,-0.1 -0.3,0.1 -0.3,0.2 -0.2,0.3 -0.1,0.3 v 0.4 0.4 h 0.8 0.8 v -0.4 -0.4 z"
   id="path16"
   style="fill:#000000" />
							<path
   class="st1"
   d="m 255.3,349.2 h 0.8 0.8 v 0.8 0.8 h 0.8 0.8 l 0.6,0.1 0.5,0.4 0.4,0.5 0.1,0.6 v 1.2 1.2 l -0.1,0.6 -0.4,0.5 -0.5,0.4 -0.6,0.1 h -0.4 -0.4 l -0.6,-0.2 -0.3,-0.6 v 0.4 0.4 h -0.8 -0.8 v -3.8 -3.4 z m 1.7,5.8 0.1,0.3 0.2,0.3 0.3,0.2 0.3,0.1 0.3,-0.1 0.3,-0.2 0.2,-0.3 0.1,-0.3 v -1.2 -1.2 l -0.1,-0.3 -0.2,-0.3 -0.3,-0.2 -0.3,-0.1 h -0.4 -0.5 v 1.7 z"
   id="path18"
   style="fill:#000000" />
							<path
   class="st1"
   d="m 247.9,356.7 -0.6,-0.1 -0.5,-0.4 -0.4,-0.5 -0.1,-0.6 v -0.2 -0.2 l 0.1,-0.6 0.3,-0.5 0.5,-0.4 0.7,-0.1 -0.7,-0.2 -0.5,-0.3 -0.3,-0.5 -0.1,-0.7 v -0.2 -0.2 l 0.1,-0.6 0.4,-0.5 0.5,-0.4 0.6,-0.1 h 1.7 1.7 v 3.8 3.8 h -1.7 -1.7 z m 1.7,-6.7 h -0.4 -0.4 l -0.3,0.1 -0.3,0.2 -0.2,0.3 -0.1,0.3 v 0.4 0.4 l 0.1,0.3 0.2,0.3 0.3,0.2 0.3,0.1 h 0.4 0.4 v -1.2 z m 0,3.4 h -0.4 -0.4 l -0.6,0.2 -0.2,0.6 v 0.4 0.4 l 0.1,0.3 0.2,0.3 0.3,0.2 0.3,0.1 h 0.4 0.4 v -1.2 -1.3 z"
   id="path20"
   style="fill:#000000" />
							<path
   class="st1"
   d="m 244.6,357.5 -0.5,1.2 -1.2,0.4 h -0.8 -0.8 l -0.6,-0.1 -0.5,-0.4 -0.4,-0.5 -0.1,-0.6 v -3.3 -3.3 h 0.8 0.8 v 2.1 2.1 l 0.1,0.3 0.2,0.3 0.3,0.2 0.3,0.1 0.3,-0.1 0.3,-0.2 0.2,-0.3 0.1,-0.3 v -2.1 -2.1 h 0.8 0.8 v 2.1 2.1 l -0.1,0.6 -0.4,0.5 -0.5,0.4 -0.6,0.1 h -0.4 -0.4 l -0.6,-0.2 -0.3,-0.6 v 0.8 0.8 l 0.1,0.3 0.2,0.3 0.3,0.2 0.3,0.1 h 0.4 0.4 l 0.6,-0.2 0.2,-0.6 h 0.4 z"
   id="path22"
   style="fill:#000000" />
							<path
   class="st1"
   d="m 234.6,356.7 v -2.1 -2.1 l -2.3,2.1 -2.3,2.1 h -0.2 -0.2 v -3.8 -3.8 h 0.4 0.4 v 2.1 2.1 l 2.3,-2.1 2.3,-2.1 h 0.2 0.2 v 3.8 3.8 H 235 Z"
   id="path24"
   style="fill:#000000" />
							<path
   class="st1"
   d="m 226.3,350 v -0.4 -0.4 h 0.8 0.8 v 0.4 0.4 h -0.8 z m 0,6.7 v -2.9 -2.9 h 0.8 0.8 v 2.9 2.9 h -0.8 z"
   id="path26"
   style="fill:#000000" />
							<path
   class="st1"
   d="m 223,356.7 v -3.8 -3.8 h 0.8 0.8 v 3.8 3.8 h -0.8 z"
   id="path28"
   style="fill:#000000" />
							<path
   class="st1"
   d="m 218,356.7 -0.6,-0.1 -0.5,-0.4 -0.4,-0.5 -0.1,-0.6 v -1.2 -1.2 l 0.1,-0.6 0.4,-0.5 0.5,-0.4 0.6,-0.1 h 0.4 0.4 l 0.3,0.1 0.2,0.2 0.2,0.3 0.1,0.4 v -1.2 -1.2 h 0.8 0.8 v 3.8 3.8 h -1.7 -1.5 z m 1.6,-4.2 -0.1,-0.3 -0.2,-0.3 -0.3,-0.2 -0.3,-0.1 -0.3,0.1 -0.3,0.2 -0.2,0.3 -0.1,0.3 v 1.2 1.2 l 0.1,0.3 0.2,0.3 0.3,0.2 0.3,0.1 h 0.4 0.4 v -1.7 -1.6 z"
   id="path30"
   style="fill:#000000" />
							<path
   class="st1"
   d="m 213,350 v -0.4 -0.4 h 0.8 0.8 v 0.4 0.4 h -0.8 z m 0,6.7 v -2.9 -2.9 h 0.8 0.8 v 2.9 2.9 h -0.8 z"
   id="path32"
   style="fill:#000000" />
							<path
   class="st1"
   d="m 209.6,356.7 v -2.1 -2.1 l -0.1,-0.3 -0.2,-0.3 -0.3,-0.2 -0.3,-0.1 -0.3,0.1 -0.3,0.2 -0.2,0.3 -0.1,0.3 v 2.1 2.1 h -0.8 -0.8 v -2.1 -2.1 l 0.1,-0.6 0.4,-0.5 0.5,-0.4 0.6,-0.1 h 0.4 0.4 l 0.3,0.1 0.2,0.2 0.2,0.3 0.1,0.4 v -0.4 -0.4 h 0.8 0.8 v 2.9 2.9 h -0.8 -0.6 z"
   id="path34"
   style="fill:#000000" />
							<path
   class="st1"
   d="m 202.1,349.2 h 0.4 0.4 l 0.6,0.1 0.5,0.4 0.4,0.5 0.1,0.6 v 0.2 0.2 l -0.1,0.6 -0.4,0.6 -0.9,1 -0.9,1 -0.2,0.3 -0.1,0.3 v 0.4 l 0.1,0.3 0.3,0.2 0.4,0.1 h 0.3 l 0.3,-0.1 0.2,-0.2 0.1,-0.3 v -0.1 -0.1 h 0.4 0.4 l -0.1,0.7 -0.3,0.5 -0.5,0.3 -0.7,0.1 h -0.4 -0.4 l -0.6,-0.1 -0.5,-0.4 -0.4,-0.5 -0.1,-0.6 v -0.2 -0.2 l 0.1,-0.6 0.4,-0.6 0.9,-1 0.9,-1 0.2,-0.3 0.1,-0.3 -0.1,-0.4 -0.2,-0.3 -0.3,-0.2 -0.4,-0.1 -0.5,0.2 -0.3,0.6 h -0.4 -0.4 l 0.5,-1.2 z"
   id="path36"
   style="fill:#000000" />
							<path
   class="st1"
   d="m 193.8,352.5 0.1,-0.6 0.4,-0.5 0.5,-0.4 0.6,-0.1 h 0.8 0.8 l 0.6,0.1 0.5,0.4 0.4,0.5 0.1,0.6 v 1.2 1.2 l -0.1,0.6 -0.4,0.5 -0.5,0.4 -0.6,0.1 h -0.8 -0.8 l -1.2,-0.4 -0.5,-1.2 h 0.4 0.4 l 0.2,0.6 0.6,0.2 h 0.4 0.4 l 0.3,-0.1 0.3,-0.2 0.2,-0.3 0.1,-0.3 v -0.4 -0.4 h -1.7 -1.7 v -0.8 -0.7 z m 3.3,0 -0.1,-0.3 -0.2,-0.3 -0.3,-0.2 -0.3,-0.1 -0.3,0.1 -0.3,0.2 -0.2,0.3 -0.1,0.3 v 0.4 0.4 h 0.8 0.8 v -0.4 -0.4 z"
   id="path38"
   style="fill:#000000" />
							<path
   class="st1"
   d="m 189.6,350.9 h 0.4 0.4 l 0.6,0.1 0.5,0.4 0.4,0.5 0.1,0.6 v 1.2 1.2 l -0.1,0.6 -0.4,0.5 -0.5,0.4 -0.6,0.1 h -0.4 -0.4 l -1.2,-0.4 -0.4,-1.1 h 0.4 0.4 l 0.3,0.6 0.6,0.2 0.3,-0.1 0.3,-0.2 0.2,-0.3 0.1,-0.3 v -1.2 -1.2 l -0.1,-0.3 -0.2,-0.3 -0.3,-0.2 -0.3,-0.1 -0.6,0.2 -0.3,0.6 h -0.4 -0.4 l 0.5,-1.3 z"
   id="path40"
   style="fill:#000000" />
						</g>
						<g
   class="st0"
   id="g58"
   style="enable-background:new;fill:#000000">
							<path
   class="st1"
   d="m 267.1,369.2 v -1.7 -1.7 h -0.8 -0.8 v -0.4 -0.4 h 0.8 0.8 v -1.2 -1.2 h -1.2 -1.2 v -0.4 -0.4 h 2.1 2.1 v 3.8 3.8 h -0.8 -1 z"
   id="path44"
   style="fill:#000000" />
							<path
   class="st1"
   d="m 262.4,363.9 0.4,0.5 0.1,0.6 v 1.2 1.2 l -0.1,0.6 -0.4,0.5 -0.5,0.4 -0.6,0.1 h -0.8 -0.8 l -0.6,-0.1 -0.5,-0.4 -0.4,-0.5 -0.1,-0.6 v -1.2 -1.2 l 0.1,-0.6 0.4,-0.5 0.5,-0.4 0.6,-0.1 h 0.8 0.8 l 0.6,0.1 z m -1.4,0.5 -0.3,-0.2 -0.3,-0.1 -0.3,0.1 -0.3,0.2 -0.2,0.3 -0.1,0.3 v 1.2 1.2 l 0.1,0.3 0.2,0.3 0.3,0.2 0.3,0.1 0.3,-0.1 0.3,-0.2 0.2,-0.3 0.1,-0.3 v -1.2 -1.2 l -0.1,-0.3 z"
   id="path46"
   style="fill:#000000" />
							<path
   class="st1"
   d="m 254.6,365.9 -0.1,-0.3 -0.2,-0.3 -0.3,-0.2 -0.3,-0.1 h -0.8 -0.8 v -0.8 -0.8 h 0.4 0.4 l 0.7,0.1 0.5,0.3 0.3,0.5 0.2,0.7 v -0.8 -0.8 h 0.8 0.8 v 2.9 2.9 h -0.8 -0.8 v -1.7 z"
   id="path48"
   style="fill:#000000" />
							<path
   class="st1"
   d="m 245.5,369.2 -0.6,-0.1 -0.5,-0.4 -0.4,-0.5 -0.1,-0.6 v -2.1 -2.1 l 0.1,-0.6 0.4,-0.5 0.5,-0.4 0.6,-0.1 h 1.7 1.7 v 3.8 3.8 h -1.7 -1.7 z m 1.7,-6.7 h -0.4 -0.4 l -0.3,0.1 -0.3,0.2 -0.2,0.3 -0.1,0.3 v 2.1 2.1 l 0.1,0.3 0.2,0.3 0.3,0.2 0.3,0.1 h 0.4 0.4 v -2.9 z"
   id="path50"
   style="fill:#000000" />
							<path
   class="st1"
   d="m 238,367.5 0.3,0.6 0.6,0.2 h 0.4 0.4 l 0.3,-0.1 0.3,-0.2 0.2,-0.3 0.1,-0.3 v -2.1 -2.1 l -0.1,-0.3 -0.2,-0.3 -0.3,-0.2 -0.3,-0.1 h -0.4 -0.4 l -0.6,0.2 -0.3,0.6 h -0.4 -0.4 l 0.5,-1.2 1.2,-0.4 h 0.8 0.8 l 0.6,0.1 0.5,0.4 0.4,0.5 0.1,0.6 v 2.1 2.1 l -0.1,0.6 -0.4,0.5 -0.5,0.4 -0.6,0.1 h -0.8 -0.8 l -1.2,-0.4 -0.5,-1.2 h 0.4 0.4 z"
   id="path52"
   style="fill:#000000" />
							<path
   class="st1"
   d="m 235.5,362.5 h -1.7 -1.7 l 1.2,0.8 1.2,0.8 v 0.4 0.4 h -0.8 -0.7 l -0.4,0.1 -0.3,0.2 -0.2,0.3 -0.1,0.2 v 0.8 0.8 l 0.1,0.3 0.2,0.3 0.3,0.2 0.3,0.1 h 0.4 0.4 l 0.6,-0.2 0.2,-0.6 h 0.4 0.4 l -0.5,1.2 -1.2,0.4 h -0.6 -0.8 l -0.6,-0.1 -0.5,-0.4 -0.4,-0.5 -0.1,-0.6 v -0.8 -0.8 l 0.1,-0.6 0.4,-0.6 0.5,-0.4 0.7,-0.1 h 0.4 0.4 l -1.2,-0.8 -1.2,-0.8 v -0.4 -0.4 h 2.5 2.5 v 0.4 0.4 z"
   id="path54"
   style="fill:#000000" />
							<path
   class="st1"
   d="m 225.5,369.2 v -3.8 -3.8 h 0.4 0.4 l 0.8,0.4 0.8,0.4 v 0.4 0.4 h -0.4 -0.4 v 2.9 2.9 h -0.8 -0.8 z"
   id="path56"
   style="fill:#000000" />
						</g>
					</g></g><g
     inkscape:label="F.Cu"
     inkscape:groupmode="layer"
     id="g2002"
     style="fill:#000000"><g
       id="Layer_3_1_"
       style="display:inline;fill:#000000"
       transform="matrix(0.35483871,0,0,0.35483871,-58.998129,-92.045161)">
			<g
   id="g78"
   style="display:inline;fill:#000000">
				<g
   id="g76"
   style="fill:#000000">
					<path
   d="m 294.4,271.3 -0.2,-0.6 -0.3,-0.5 -0.4,-0.4 -0.4,-0.4 -0.5,-0.3 -0.6,-0.2 -0.6,-0.1 H 279.7 268 256.3 244.6 232.9 221.2 209.5 198 l -0.6,0.1 -0.6,0.2 -0.5,0.3 -0.4,0.4 -0.4,0.4 -0.3,0.5 -0.2,0.6 -0.1,0.6 v 9.2 9.2 9.2 9.2 9.2 9.2 9.2 9.2 l 0.1,0.6 0.2,0.6 0.3,0.5 0.4,0.4 0.4,0.4 0.5,0.3 0.6,0.2 0.6,0.1 h 11.7 11.7 11.7 11.7 11.7 11.7 11.7 11.7 l 0.6,-0.1 0.6,-0.2 0.5,-0.3 0.4,-0.4 0.4,-0.4 0.3,-0.5 0.2,-0.6 0.1,-0.6 v -9.2 -9.2 -9.2 -9.2 -9.2 -9.2 -9.2 -9.2 z m -1.9,9.8 v 9.2 9.2 9.2 9.2 9.2 9.2 9.2 0 0 l -2.7,-2.4 -2.7,-2.4 -0.7,0.8 -0.7,0.8 2.3,2.1 2.3,2.1 H 279.1 267.9 256.2 244.5 232.8 221.1 210 198.7 l 2.4,-2.1 2.4,-2.1 -0.7,-0.8 -0.7,-0.8 -2.6,2.3 -2.6,2.3 v -9.1 -9.1 -9.2 -9.2 -9.2 -9.2 -9 -9 l 2.6,2.3 2.6,2.3 0.7,-0.8 0.7,-0.8 -2.5,-2.2 -2.5,-2.2 h 11.5 11.4 11.7 11.7 11.7 11.7 11.2 11.2 l -2.4,2.1 -2.4,2.1 0.7,0.8 0.7,0.8 2.7,-2.4 2.7,-2.4 v 0 0 9.2 z"
   id="path74"
   style="fill:#000000" />
				</g>
			</g>
			<g
   id="g102"
   style="display:inline;fill:#000000">
				<rect
   x="248.89999"
   y="363.39999"
   width="43.799999"
   height="4.6999998"
   id="rect80"
   style="display:inline;fill:#000000" />
				<g
   id="g100"
   style="display:inline;fill:#000000">
					<path
   d="m 189,391.908 c -0.1,0 -0.3,0 -0.5,-0.1 -0.2,-0.1 -0.3,-0.1 -0.5,-0.3 -0.2,-0.1 -0.3,-0.3 -0.4,-0.5 -0.1,-0.2 -0.2,-0.4 -0.2,-0.7 v -3.90196 -0.2 c 0,-0.1 0.1,-0.1 0.1,-0.2 0,0 0.1,-0.1 0.2,-0.1 h 0.2 4.8 V 387.1 h -4.09928 l 0.008,3.3 c 2.6e-4,0.1 0,0.2 0.1,0.3 0.1,0.1 0.2,0.1 0.3,0.1 h 3.88328 v 1.09964 z m 3.4,-2.30764 H 189 v -1.1 h 3.4 z"
   id="path82"
   sodipodi:nodetypes="cscsscscsccccssscccccccc"
   style="fill:#000000" />
					<path
   d="m 202,391.89994 h -3.9 c -0.1,0 -0.2,0 -0.3,0 -0.1,0 -0.2,-0.1 -0.3,-0.1 -0.1,0 -0.2,-0.1 -0.3,-0.2 -0.1,-0.1 -0.2,-0.2 -0.3,-0.3 -0.1,-0.1 -0.1,-0.2 -0.2,-0.4 0,-0.1 -0.1,-0.3 -0.1,-0.5 v -2.9 c 0,-0.1 0,-0.2 0,-0.3 0,-0.1 0.1,-0.2 0.1,-0.3 0,-0.1 0.1,-0.2 0.2,-0.3 0.1,-0.1 0.2,-0.2 0.3,-0.3 0.1,-0.1 0.2,-0.1 0.4,-0.2 0.2,-0.1 0.3,-0.1 0.5,-0.1 h 3.9 v 1.1 h -3.9 c -0.1,0 -0.2,0 -0.3,0.1 -0.1,0.1 -0.1,0.2 -0.1,0.3 v 2.9 c 0,0.1 0,0.2 0.1,0.3 0.1,0.1 0.2,0.1 0.3,0.1 h 3.9 z"
   id="path84"
   style="fill:#000000" />
					<path
   d="m 207.7,390.4 c 0,0.2 0,0.4 -0.1,0.5 0,0.1 -0.1,0.3 -0.2,0.4 -0.1,0.1 -0.2,0.2 -0.3,0.3 -0.1,0.1 -0.2,0.1 -0.3,0.2 -0.1,0 -0.2,0.1 -0.3,0.1 -0.1,0 -0.2,0 -0.3,0 h -1.9 c -0.1,0 -0.3,0 -0.5,-0.1 -0.2,-0.1 -0.3,-0.1 -0.5,-0.3 -0.2,-0.2 -0.3,-0.3 -0.4,-0.5 -0.1,-0.2 -0.2,-0.4 -0.2,-0.7 V 389 c 0,-0.3 0.1,-0.5 0.2,-0.7 0.1,-0.2 0.2,-0.3 0.4,-0.5 0.1,-0.1 0.3,-0.2 0.5,-0.3 0.2,-0.1 0.3,-0.1 0.5,-0.1 h 1.9 c 0.3,0 0.5,0 0.7,0.1 0.2,0.1 0.3,0.2 0.5,0.4 0.1,0.1 0.2,0.3 0.3,0.5 0.1,0.2 0.1,0.3 0.1,0.5 v 1.5 z m -1.1,-1.4 c 0,-0.1 0,-0.3 -0.1,-0.3 -0.1,-0.1 -0.2,-0.1 -0.3,-0.1 h -1.9 c -0.1,0 -0.3,0 -0.3,0.1 -0.1,0.1 -0.1,0.2 -0.1,0.3 v 1.5 c 0,0.1 0,0.2 0.1,0.3 0.1,0.1 0.2,0.1 0.3,0.1 h 1.9 c 0.1,0 0.3,0 0.3,-0.1 0,-0.1 0.1,-0.2 0.1,-0.3 z"
   id="path86"
   style="fill:#000000" />
					<path
   d="m 212.6,392 h -1.1 v -3 c 0,-0.1 0,-0.2 -0.1,-0.3 -0.1,-0.1 -0.2,-0.1 -0.3,-0.1 h -1.4 v 3.4 h -1.1 v -4 -0.2 c 0,-0.1 0.1,-0.1 0.1,-0.2 0,0 0.1,-0.1 0.2,-0.1 h 0.2 1.9 c 0.1,0 0.3,0 0.5,0.1 0.2,0.1 0.3,0.1 0.5,0.3 v -0.3 h 1.5 0.3 c 0.1,0 0.2,0.1 0.3,0.1 0.1,0 0.2,0.1 0.3,0.2 l 0.3,0.3 c 0.1,0.1 0.1,0.2 0.2,0.4 0,0.1 0.1,0.3 0.1,0.5 v 2.90234 l -1.1,-0.004 V 389.1 c 0,-0.1 0.0156,-0.28594 -0.0844,-0.38594 -0.1,-0.1 -0.2039,-0.11133 -0.3039,-0.11172 l -1.00781,-0.004 c 0,0.1 0.0961,0.3 0.0961,0.4 z"
   id="path88"
   sodipodi:nodetypes="ccsssccccscscsscccsssscsccssscsc"
   style="fill:#000000" />
					<path
   d="m 220.9,390.4 c 0,0.2 0,0.4 -0.1,0.5 0,0.1 -0.1,0.3 -0.2,0.4 -0.1,0.1 -0.2,0.2 -0.3,0.3 -0.1,0.1 -0.2,0.1 -0.3,0.2 -0.1,0 -0.2,0.1 -0.3,0.1 -0.1,0 -0.2,0 -0.3,0 h -1.9 v -1.1 h 1.9 c 0.1,0 0.3,0 0.3,-0.1 0.1,-0.1 0.1,-0.2 0.1,-0.3 V 389 c 0,-0.1 0,-0.3 -0.1,-0.3 -0.1,-0.1 -0.2,-0.1 -0.3,-0.1 h -1.9 c -0.1,0 -0.3,0 -0.3,0.1 -0.1,0.1 -0.1,0.2 -0.1,0.3 v 4.4 H 216 V 389 c 0,-0.2 0,-0.3 0.1,-0.5 0,-0.1 0.1,-0.3 0.2,-0.4 0.1,-0.1 0.2,-0.2 0.3,-0.3 0.1,-0.1 0.2,-0.1 0.3,-0.2 0.1,0 0.2,-0.1 0.3,-0.1 0.1,0 0.2,0 0.3,0 h 1.9 c 0.2,0 0.3,0 0.5,0.1 0.1,0 0.3,0.1 0.4,0.2 0.1,0.1 0.2,0.2 0.3,0.3 0.1,0.1 0.1,0.2 0.2,0.3 0,0.1 0.1,0.2 0.1,0.3 0,0.1 0,0.2 0,0.3 z"
   id="path90"
   style="fill:#000000" />
					<path
   d="m 226.7,391.4 c 0,0.1 0,0.1 0,0.2 0,0.1 -0.1,0.1 -0.1,0.2 0,0 -0.1,0.1 -0.2,0.1 -0.1,0 -0.1,0 -0.2,0 h -2.4 c -0.1,0 -0.3,0 -0.4,0 -0.1,0 -0.3,-0.1 -0.4,-0.1 -0.1,0 -0.3,-0.2 -0.4,-0.3 -0.1,-0.1 -0.3,-0.2 -0.4,-0.4 -0.1,-0.1 -0.2,-0.3 -0.2,-0.5 -0.1,-0.2 -0.1,-0.4 -0.1,-0.7 v -2.5 h 1.1 v 2.5 c 0,0.1 0,0.3 0.1,0.4 0,0.1 0.1,0.2 0.2,0.3 0.1,0.1 0.2,0.1 0.3,0.2 0.1,0 0.2,0.1 0.4,0.1 h 1.9 v -3.4 h 1.1 v 3.9 z"
   id="path92"
   style="fill:#000000" />
					<path
   d="m 231.8,388.6 h -1.9 v 3.4 h -1.1 v -3.4 h -1.4 v -1.1 h 1.4 V 386 h 1.1 v 1.5 h 1.9 z"
   id="path94"
   style="fill:#000000" />
					<path
   d="m 237.3,388.8934 c 0,0.1 0,0.3 -0.1,0.5 -0.1,0.2 -0.1,0.3 -0.3,0.5 -0.1,0.1 -0.3,0.3 -0.5,0.4 -0.2,0.1 -0.4,0.1 -0.7,0.1 h -1.9 v -1 h 1.9 c 0.1,0 0.3,0 0.3,-0.1 0.1,-0.1 0.1,-0.2 0.1,-0.3 0,-0.1 0,-0.3 -0.1,-0.3 -0.1,-0.1 -0.2,-0.1 -0.3,-0.1 h -1.9 c -0.1,0 -0.3,0 -0.3,0.1 -0.1,0.1 -0.1,0.2 -0.1,0.3 v 1.5 c 0,0.1 0,0.3 0.1,0.3 0.1,0.1 0.2,0.1 0.3,0.1 h 1.9 v 1 h -1.9 c -0.1,0 -0.3,0 -0.5,-0.1 -0.2,-0.1 -0.3,-0.1 -0.5,-0.3 -0.1,-0.1 -0.3,-0.3 -0.4,-0.5 -0.1,-0.2 -0.1,-0.4 -0.1,-0.7 v -1.4 c 0,-0.1 0,-0.3 0.1,-0.5 0.1,-0.2 0.1,-0.3 0.3,-0.5 0.1,-0.1 0.3,-0.3 0.5,-0.4 0.2,-0.1 0.4,-0.1 0.7,-0.1 h 1.9 c 0.1,0 0.3,0 0.5,0.1 0.2,0.1 0.3,0.1 0.5,0.3 0.1,0.1 0.3,0.3 0.4,0.5 0,0.1 0.1,0.3 0.1,0.6 z"
   id="path96"
   style="display:inline;fill:#000000" />
					<path
   d="m 241.9,388.6 h -2.4 c -0.1,0 -0.3,0 -0.3,0.1 -0.1,0.1 -0.1,0.2 -0.1,0.3 v 3 H 238 v -3 c 0,-0.2 0,-0.3 0.1,-0.5 0,-0.1 0.1,-0.3 0.2,-0.4 0.1,-0.1 0.2,-0.2 0.3,-0.3 0.1,-0.1 0.2,-0.1 0.3,-0.2 0.1,0 0.2,-0.1 0.3,-0.1 0.1,0 0.2,0 0.3,0 h 2.4 z"
   id="path98"
   style="display:inline;fill:#000000" />
				</g>
			</g>
		</g></g><g
     inkscape:label="F.Mask"
     inkscape:groupmode="layer"
     id="g2004"
     style="display:inline;fill:#000000"><polygon
       class="st3"
       points="202.8,301 202.8,293.4 202.8,285.7 202.8,278 202.9,277.5 203,276.9 203.3,276.5 203.6,276 204.1,275.7 204.5,275.4 205.1,275.3 205.6,275.2 215.4,275.2 225.2,275.2 235,275.2 244.7,275.2 254.5,275.2 264.3,275.2 274.1,275.2 283.9,275.2 284.4,275.3 285,275.4 285.4,275.7 285.8,276 286.2,276.5 286.5,276.9 286.6,277.5 286.7,278 286.7,285.7 286.7,293.4 286.7,301 286.7,308.7 286.7,316.3 286.7,324 286.7,331.7 286.7,339.3 286.6,339.9 286.5,340.4 286.2,340.9 285.8,341.3 285.4,341.7 285,341.9 284.4,342.1 283.9,342.2 274.1,342.2 264.3,342.2 254.5,342.2 244.7,342.2 235,342.2 225.2,342.2 215.4,342.2 205.6,342.2 205.1,342.1 204.5,341.9 204.1,341.7 203.6,341.3 203.3,340.9 203,340.4 202.9,339.9 202.8,339.3 202.8,331.7 202.8,324 202.8,316.3 202.8,308.7 "
       id="polygon5985"
       style="display:inline;fill:#000000"
       transform="matrix(0.35483871,0,0,0.35483871,-58.998129,-92.045161)" /><g
       id="g1450"
       style="display:inline;fill:#000000"
       transform="matrix(0.35483871,0,0,0.35483871,-58.998128,-92.04516)">
			<g
   id="g1424"
   style="display:inline;fill:#000000">
				<g
   id="g1422"
   style="fill:#000000">
					<path
   d="m 294.4,271.3 -0.2,-0.6 -0.3,-0.5 -0.4,-0.4 -0.4,-0.4 -0.5,-0.3 -0.6,-0.2 -0.6,-0.1 H 279.7 268 256.3 244.6 232.9 221.2 209.5 198 l -0.6,0.1 -0.6,0.2 -0.5,0.3 -0.4,0.4 -0.4,0.4 -0.3,0.5 -0.2,0.6 -0.1,0.6 v 9.2 9.2 9.2 9.2 9.2 9.2 9.2 9.2 l 0.1,0.6 0.2,0.6 0.3,0.5 0.4,0.4 0.4,0.4 0.5,0.3 0.6,0.2 0.6,0.1 h 11.7 11.7 11.7 11.7 11.7 11.7 11.7 11.7 l 0.6,-0.1 0.6,-0.2 0.5,-0.3 0.4,-0.4 0.4,-0.4 0.3,-0.5 0.2,-0.6 0.1,-0.6 v -9.2 -9.2 -9.2 -9.2 -9.2 -9.2 -9.2 -9.2 z m -1.9,9.8 v 9.2 9.2 9.2 9.2 9.2 9.2 9.2 0 0 l -2.7,-2.4 -2.7,-2.4 -0.7,0.8 -0.7,0.8 2.3,2.1 2.3,2.1 H 279.1 267.9 256.2 244.5 232.8 221.1 210 198.7 l 2.4,-2.1 2.4,-2.1 -0.7,-0.8 -0.7,-0.8 -2.6,2.3 -2.6,2.3 v -9.1 -9.1 -9.2 -9.2 -9.2 -9.2 -9 -9 l 2.6,2.3 2.6,2.3 0.7,-0.8 0.7,-0.8 -2.5,-2.2 -2.5,-2.2 h 11.5 11.4 11.7 11.7 11.7 11.7 11.2 11.2 l -2.4,2.1 -2.4,2.1 0.7,0.8 0.7,0.8 2.7,-2.4 2.7,-2.4 v 0 0 9.2 z"
   id="path1420"
   style="fill:#000000" />
				</g>
			</g>
			<g
   id="g1448"
   style="display:inline;fill:#000000">
				<rect
   x="248.89999"
   y="363.39999"
   width="43.799999"
   height="4.6999998"
   id="rect1426"
   style="display:inline;fill:#000000" />
				<g
   id="g1446"
   style="display:inline;fill:#000000">
					<path
   d="m 189,391.908 c -0.1,0 -0.3,0 -0.5,-0.1 -0.2,-0.1 -0.3,-0.1 -0.5,-0.3 -0.2,-0.1 -0.3,-0.3 -0.4,-0.5 -0.1,-0.2 -0.2,-0.4 -0.2,-0.7 v -3.90196 -0.2 c 0,-0.1 0.1,-0.1 0.1,-0.2 0,0 0.1,-0.1 0.2,-0.1 h 0.2 4.8 V 387.1 h -4.09928 l 0.008,3.3 c 2.6e-4,0.1 0,0.2 0.1,0.3 0.1,0.1 0.2,0.1 0.3,0.1 h 3.88328 v 1.09964 z m 3.4,-2.30764 H 189 v -1.1 h 3.4 z"
   id="path1428"
   sodipodi:nodetypes="cscsscscsccccssscccccccc"
   style="fill:#000000" />
					<path
   d="m 202,391.89994 h -3.9 c -0.1,0 -0.2,0 -0.3,0 -0.1,0 -0.2,-0.1 -0.3,-0.1 -0.1,0 -0.2,-0.1 -0.3,-0.2 -0.1,-0.1 -0.2,-0.2 -0.3,-0.3 -0.1,-0.1 -0.1,-0.2 -0.2,-0.4 0,-0.1 -0.1,-0.3 -0.1,-0.5 v -2.9 c 0,-0.1 0,-0.2 0,-0.3 0,-0.1 0.1,-0.2 0.1,-0.3 0,-0.1 0.1,-0.2 0.2,-0.3 0.1,-0.1 0.2,-0.2 0.3,-0.3 0.1,-0.1 0.2,-0.1 0.4,-0.2 0.2,-0.1 0.3,-0.1 0.5,-0.1 h 3.9 v 1.1 h -3.9 c -0.1,0 -0.2,0 -0.3,0.1 -0.1,0.1 -0.1,0.2 -0.1,0.3 v 2.9 c 0,0.1 0,0.2 0.1,0.3 0.1,0.1 0.2,0.1 0.3,0.1 h 3.9 z"
   id="path1430"
   style="fill:#000000" />
					<path
   d="m 207.7,390.4 c 0,0.2 0,0.4 -0.1,0.5 0,0.1 -0.1,0.3 -0.2,0.4 -0.1,0.1 -0.2,0.2 -0.3,0.3 -0.1,0.1 -0.2,0.1 -0.3,0.2 -0.1,0 -0.2,0.1 -0.3,0.1 -0.1,0 -0.2,0 -0.3,0 h -1.9 c -0.1,0 -0.3,0 -0.5,-0.1 -0.2,-0.1 -0.3,-0.1 -0.5,-0.3 -0.2,-0.2 -0.3,-0.3 -0.4,-0.5 -0.1,-0.2 -0.2,-0.4 -0.2,-0.7 V 389 c 0,-0.3 0.1,-0.5 0.2,-0.7 0.1,-0.2 0.2,-0.3 0.4,-0.5 0.1,-0.1 0.3,-0.2 0.5,-0.3 0.2,-0.1 0.3,-0.1 0.5,-0.1 h 1.9 c 0.3,0 0.5,0 0.7,0.1 0.2,0.1 0.3,0.2 0.5,0.4 0.1,0.1 0.2,0.3 0.3,0.5 0.1,0.2 0.1,0.3 0.1,0.5 v 1.5 z m -1.1,-1.4 c 0,-0.1 0,-0.3 -0.1,-0.3 -0.1,-0.1 -0.2,-0.1 -0.3,-0.1 h -1.9 c -0.1,0 -0.3,0 -0.3,0.1 -0.1,0.1 -0.1,0.2 -0.1,0.3 v 1.5 c 0,0.1 0,0.2 0.1,0.3 0.1,0.1 0.2,0.1 0.3,0.1 h 1.9 c 0.1,0 0.3,0 0.3,-0.1 0,-0.1 0.1,-0.2 0.1,-0.3 z"
   id="path1432"
   style="fill:#000000" />
					<path
   d="m 212.6,392 h -1.1 v -3 c 0,-0.1 0,-0.2 -0.1,-0.3 -0.1,-0.1 -0.2,-0.1 -0.3,-0.1 h -1.4 v 3.4 h -1.1 v -4 -0.2 c 0,-0.1 0.1,-0.1 0.1,-0.2 0,0 0.1,-0.1 0.2,-0.1 h 0.2 1.9 c 0.1,0 0.3,0 0.5,0.1 0.2,0.1 0.3,0.1 0.5,0.3 v -0.3 h 1.5 0.3 c 0.1,0 0.2,0.1 0.3,0.1 0.1,0 0.2,0.1 0.3,0.2 l 0.3,0.3 c 0.1,0.1 0.1,0.2 0.2,0.4 0,0.1 0.1,0.3 0.1,0.5 v 2.90234 l -1.1,-0.004 V 389.1 c 0,-0.1 0.0156,-0.28594 -0.0844,-0.38594 -0.1,-0.1 -0.2039,-0.11133 -0.3039,-0.11172 l -1.00781,-0.004 c 0,0.1 0.0961,0.3 0.0961,0.4 z"
   id="path1434"
   sodipodi:nodetypes="ccsssccccscscsscccsssscsccssscsc"
   style="fill:#000000" />
					<path
   d="m 220.9,390.4 c 0,0.2 0,0.4 -0.1,0.5 0,0.1 -0.1,0.3 -0.2,0.4 -0.1,0.1 -0.2,0.2 -0.3,0.3 -0.1,0.1 -0.2,0.1 -0.3,0.2 -0.1,0 -0.2,0.1 -0.3,0.1 -0.1,0 -0.2,0 -0.3,0 h -1.9 v -1.1 h 1.9 c 0.1,0 0.3,0 0.3,-0.1 0.1,-0.1 0.1,-0.2 0.1,-0.3 V 389 c 0,-0.1 0,-0.3 -0.1,-0.3 -0.1,-0.1 -0.2,-0.1 -0.3,-0.1 h -1.9 c -0.1,0 -0.3,0 -0.3,0.1 -0.1,0.1 -0.1,0.2 -0.1,0.3 v 4.4 H 216 V 389 c 0,-0.2 0,-0.3 0.1,-0.5 0,-0.1 0.1,-0.3 0.2,-0.4 0.1,-0.1 0.2,-0.2 0.3,-0.3 0.1,-0.1 0.2,-0.1 0.3,-0.2 0.1,0 0.2,-0.1 0.3,-0.1 0.1,0 0.2,0 0.3,0 h 1.9 c 0.2,0 0.3,0 0.5,0.1 0.1,0 0.3,0.1 0.4,0.2 0.1,0.1 0.2,0.2 0.3,0.3 0.1,0.1 0.1,0.2 0.2,0.3 0,0.1 0.1,0.2 0.1,0.3 0,0.1 0,0.2 0,0.3 z"
   id="path1436"
   style="fill:#000000" />
					<path
   d="m 226.7,391.4 c 0,0.1 0,0.1 0,0.2 0,0.1 -0.1,0.1 -0.1,0.2 0,0 -0.1,0.1 -0.2,0.1 -0.1,0 -0.1,0 -0.2,0 h -2.4 c -0.1,0 -0.3,0 -0.4,0 -0.1,0 -0.3,-0.1 -0.4,-0.1 -0.1,0 -0.3,-0.2 -0.4,-0.3 -0.1,-0.1 -0.3,-0.2 -0.4,-0.4 -0.1,-0.1 -0.2,-0.3 -0.2,-0.5 -0.1,-0.2 -0.1,-0.4 -0.1,-0.7 v -2.5 h 1.1 v 2.5 c 0,0.1 0,0.3 0.1,0.4 0,0.1 0.1,0.2 0.2,0.3 0.1,0.1 0.2,0.1 0.3,0.2 0.1,0 0.2,0.1 0.4,0.1 h 1.9 v -3.4 h 1.1 v 3.9 z"
   id="path1438"
   style="fill:#000000" />
					<path
   d="m 231.8,388.6 h -1.9 v 3.4 h -1.1 v -3.4 h -1.4 v -1.1 h 1.4 V 386 h 1.1 v 1.5 h 1.9 z"
   id="path1440"
   style="fill:#000000" />
					<path
   d="m 237.3,388.8934 c 0,0.1 0,0.3 -0.1,0.5 -0.1,0.2 -0.1,0.3 -0.3,0.5 -0.1,0.1 -0.3,0.3 -0.5,0.4 -0.2,0.1 -0.4,0.1 -0.7,0.1 h -1.9 v -1 h 1.9 c 0.1,0 0.3,0 0.3,-0.1 0.1,-0.1 0.1,-0.2 0.1,-0.3 0,-0.1 0,-0.3 -0.1,-0.3 -0.1,-0.1 -0.2,-0.1 -0.3,-0.1 h -1.9 c -0.1,0 -0.3,0 -0.3,0.1 -0.1,0.1 -0.1,0.2 -0.1,0.3 v 1.5 c 0,0.1 0,0.3 0.1,0.3 0.1,0.1 0.2,0.1 0.3,0.1 h 1.9 v 1 h -1.9 c -0.1,0 -0.3,0 -0.5,-0.1 -0.2,-0.1 -0.3,-0.1 -0.5,-0.3 -0.1,-0.1 -0.3,-0.3 -0.4,-0.5 -0.1,-0.2 -0.1,-0.4 -0.1,-0.7 v -1.4 c 0,-0.1 0,-0.3 0.1,-0.5 0.1,-0.2 0.1,-0.3 0.3,-0.5 0.1,-0.1 0.3,-0.3 0.5,-0.4 0.2,-0.1 0.4,-0.1 0.7,-0.1 h 1.9 c 0.1,0 0.3,0 0.5,0.1 0.2,0.1 0.3,0.1 0.5,0.3 0.1,0.1 0.3,0.3 0.4,0.5 0,0.1 0.1,0.3 0.1,0.6 z"
   id="path1442"
   style="display:inline;fill:#000000" />
					<path
   d="m 241.9,388.6 h -2.4 c -0.1,0 -0.3,0 -0.3,0.1 -0.1,0.1 -0.1,0.2 -0.1,0.3 v 3 H 238 v -3 c 0,-0.2 0,-0.3 0.1,-0.5 0,-0.1 0.1,-0.3 0.2,-0.4 0.1,-0.1 0.2,-0.2 0.3,-0.3 0.1,-0.1 0.2,-0.1 0.3,-0.2 0.1,0 0.2,-0.1 0.3,-0.1 0.1,0 0.2,0 0.3,0 h 2.4 z"
   id="path1444"
   style="display:inline;fill:#000000" />
				</g>
			</g>
		</g></g><g
     inkscape:label="F.SilkS"
     inkscape:groupmode="layer"
     id="g2006"
     style="fill:#000000"><path
       class="st4"
       d="M 14.169613,45.845161 H 13.49542 c -0.03548,0 -0.106452,0 -0.106452,0.03548 -0.03548,0.03548 -0.03548,0.07097 -0.03548,0.106452 v 0.532258 c 0,0.03548 0,0.07097 0.03548,0.106452 0.03548,0.03548 0.07097,0.03548 0.106452,0.03548 h 0.674193 c 0.03548,0 0.106452,0 0.106452,-0.03548 0,-0.03548 0.03548,-0.07097 0.03548,-0.106452 v -0.532258 c 0,-0.03548 0,-0.106452 -0.03548,-0.106452 -0.03548,-0.03548 -0.07097,-0.03548 -0.106452,-0.03548 z"
       id="path107"
       style="display:inline;opacity:1;fill:#000000;stroke-width:0.354839"
       inkscape:label="path107" /><path
       class="st4"
       d="m 5.618,37.329032 v 10.219355 0.03548 0.106452 l 0.035484,0.177419 0.070968,0.212903 0.1419354,0.212904 0.1774194,0.212903 0.283871,0.177419 0.3548387,0.141936 v 0.141935 0.425807 0.603225 0.745162 0.851613 0.851612 0.816129 0.709678 l 0.035484,0.212903 0.070968,0.177419 0.1064516,0.17742 0.1064516,0.141935 0.1419355,0.106452 0.1774194,0.106452 0.1774193,0.07097 0.2129032,0.03548 h 5.0032269 5.003225 5.003226 5.003226 5.003226 5.003226 3.193548 1.703226 5.003226 l 0.212903,-0.03548 0.177419,-0.07097 0.17742,-0.106452 0.141935,-0.106452 0.106452,-0.141935 0.106451,-0.17742 0.07097,-0.177419 0.03548,-0.212903 V 53.261286 52.445157 51.593545 50.741932 49.99677 49.393545 48.967738 48.825803 l 0.354839,-0.141936 0.283871,-0.177419 0.177419,-0.212903 0.141935,-0.212904 0.07097,-0.212903 0.03548,-0.177419 v -0.106452 -0.03548 l 0.04257,-16.216129 z m 3.832259,7.983871 H 7.9244517 v 1.170968 c 0,0.03548 0,0.07097 0.035484,0.106452 0.035484,0.03548 0.070968,0.03548 0.1064516,0.03548 H 9.450259 v 0.390322 H 8.0663871 c -0.035484,0 -0.1064516,0 -0.1774193,-0.03548 C 7.8179998,46.945165 7.7825162,46.945165 7.7115484,46.874194 7.6405804,46.838714 7.6050968,46.767742 7.569613,46.696774 7.534129,46.625804 7.498645,46.554839 7.498645,46.448387 v -1.383871 -0.07097 c 0,-0.03548 0.035484,-0.03548 0.035484,-0.07097 0,0 0.035484,-0.03548 0.070968,-0.03548 h 0.070968 1.703226 v 0.425806 z m -0.17742,0.496775 V 46.2 H 8.0663871 v -0.390322 z m 3.406452,-0.496775 H 11.29542 c -0.03548,0 -0.07097,0 -0.106452,0.03548 -0.03548,0.03548 -0.03548,0.07097 -0.03548,0.106452 v 1.029032 c 0,0.03548 0,0.07097 0.03548,0.106452 0.03548,0.03548 0.07097,0.03548 0.106452,0.03548 h 1.383871 v 0.390322 H 11.29542 11.188968 c -0.03548,0 -0.07097,-0.03548 -0.106451,-0.03548 -0.03548,0 -0.07097,-0.03548 -0.106452,-0.07097 l -0.106452,-0.106452 c -0.03548,-0.03548 -0.03548,-0.07097 -0.07097,-0.141936 0,-0.03548 -0.03548,-0.106451 -0.03548,-0.177419 V 45.454832 45.34838 c 0,-0.03548 0.03548,-0.07097 0.03548,-0.106451 0,-0.03548 0.03548,-0.07097 0.07097,-0.106452 l 0.106452,-0.106452 c 0.03548,-0.03548 0.07097,-0.03548 0.141935,-0.07097 0.07097,-0.03548 0.106452,-0.03548 0.17742,-0.03548 h 1.383871 z m 2.02258,1.170968 c 0,0.07097 0,0.141936 -0.03548,0.177419 0,0.03548 -0.03548,0.106452 -0.07097,0.141936 l -0.106452,0.106452 c -0.03548,0.03548 -0.07097,0.03548 -0.106451,0.07097 -0.03548,0 -0.07097,0.03548 -0.106452,0.03548 h -0.106452 -0.674193 c -0.03548,0 -0.106452,0 -0.17742,-0.03548 -0.07097,-0.03548 -0.106451,-0.03548 -0.177419,-0.106451 -0.07097,-0.07097 -0.106452,-0.106452 -0.141935,-0.17742 -0.03548,-0.07097 -0.07097,-0.141935 -0.07097,-0.248387 V 45.9871 c 0,-0.106452 0.03548,-0.177419 0.07097,-0.248387 0.03548,-0.07097 0.07097,-0.106452 0.141935,-0.17742 0.03548,-0.03548 0.106452,-0.07097 0.177419,-0.106451 0.07097,-0.03548 0.106452,-0.03548 0.17742,-0.03548 h 0.674193 c 0.106452,0 0.17742,0 0.248387,0.03548 0.07097,0.03548 0.106452,0.07097 0.17742,0.141935 0.03548,0.03548 0.07097,0.106452 0.106451,0.17742 0.03548,0.07097 0.03548,0.106451 0.03548,0.177419 v 0.532258 z m 2.590323,0.567742 h -0.390323 v -1.064516 c 0,-0.03548 0,-0.07097 -0.03548,-0.106452 -0.03548,-0.03548 -0.07097,-0.03548 -0.106452,-0.03548 H 16.4051 c 0,0.03548 0.03548,0.106452 0.03548,0.141936 v 1.064516 h -0.390322 v -1.064516 c 0,-0.03548 0,-0.07097 -0.03548,-0.106452 -0.03548,-0.03548 -0.07097,-0.03548 -0.106452,-0.03548 h -0.496774 v 1.206452 h -0.390323 v -1.419355 -0.07097 c 0,-0.03548 0.03548,-0.03548 0.03548,-0.07097 0,0 0.03548,-0.03548 0.07097,-0.03548 h 0.07097 0.674193 c 0.03548,0 0.106452,0 0.17742,0.03548 0.07097,0.03548 0.106451,0.03548 0.177419,0.106451 v -0.106451 h 0.532258 0.106452 c 0.03548,0 0.07097,0.03548 0.106451,0.03548 0.03548,0 0.07097,0.03548 0.106452,0.07097 l 0.106451,0.106452 c 0.03548,0.03548 0.03548,0.07097 0.07097,0.141935 0,0.03548 0.03548,0.106452 0.03548,0.17742 z m 2.093548,-0.567742 c 0,0.07097 0,0.141936 -0.03548,0.177419 0,0.03548 -0.03548,0.106452 -0.07097,0.141936 l -0.106452,0.106452 c -0.03548,0.03548 -0.07097,0.03548 -0.106451,0.07097 -0.03548,0 -0.07097,0.03548 -0.106452,0.03548 h -0.106452 -0.674193 v -0.390322 h 0.674193 c 0.03548,0 0.106452,0 0.106452,-0.03548 0.03548,-0.03548 0.03548,-0.07097 0.03548,-0.106452 V 45.9871 c 0,-0.03548 0,-0.106452 -0.03548,-0.106452 -0.03548,-0.03548 -0.07097,-0.03548 -0.106452,-0.03548 h -0.674193 c -0.03548,0 -0.106452,0 -0.106452,0.03548 -0.03548,0.03548 -0.03548,0.07097 -0.03548,0.106452 v 1.56129 H 17.647038 V 45.9871 c 0,-0.07097 0,-0.106452 0.03548,-0.177419 0,-0.03548 0.03548,-0.106452 0.07097,-0.141936 l 0.106452,-0.106452 c 0.03548,-0.03548 0.07097,-0.03548 0.106452,-0.07097 0.03548,0 0.07097,-0.03548 0.106451,-0.03548 h 0.106452 0.674193 c 0.07097,0 0.106452,0 0.17742,0.03548 0.03548,0 0.106451,0.03548 0.141935,0.07097 l 0.106452,0.106452 c 0.03548,0.03548 0.03548,0.07097 0.07097,0.106452 0,0.03548 0.03548,0.07097 0.03548,0.106451 V 45.9871 Z m 2.058065,0.354839 v 0.07097 c 0,0.03548 -0.03548,0.03548 -0.03548,0.07097 0,0 -0.03548,0.03548 -0.07097,0.03548 h -0.07097 -0.851613 -0.141936 c -0.03548,0 -0.106451,-0.03548 -0.141935,-0.03548 -0.03548,0 -0.106452,-0.07097 -0.141936,-0.106451 -0.03548,-0.03548 -0.106451,-0.07097 -0.141935,-0.141936 -0.03548,-0.03548 -0.07097,-0.106451 -0.07097,-0.177419 -0.03548,-0.07097 -0.03548,-0.141936 -0.03548,-0.248387 V 45.41936 h 0.390323 v 0.887097 c 0,0.03548 0,0.106451 0.03548,0.141935 0,0.03548 0.03548,0.07097 0.07097,0.106452 0.03548,0.03548 0.07097,0.03548 0.106452,0.07097 0.03548,0 0.07097,0.03548 0.141935,0.03548 h 0.674194 v -1.206451 h 0.390323 v 1.383871 z m 1.809677,-0.993549 h -0.674193 v 1.206452 h -0.390323 v -1.206452 h -0.496774 v -0.390322 h 0.496774 v -0.532258 h 0.390323 v 0.532258 h 0.674193 z m 1.916129,0.283871 c -0.03548,0.07097 -0.03548,0.106452 -0.106451,0.17742 -0.03548,0.03548 -0.106452,0.106451 -0.17742,0.141935 -0.07097,0.03548 -0.141935,0.03548 -0.248387,0.03548 h -0.674193 v -0.354839 h 0.674193 c 0.03548,0 0.106452,0 0.106452,-0.03548 0.03548,-0.03548 0.03548,-0.07097 0.03548,-0.106452 0,-0.03548 0,-0.106452 -0.03548,-0.106452 -0.03548,-0.03548 -0.07097,-0.03548 -0.106452,-0.03548 h -0.674193 c -0.03548,0 -0.106452,0 -0.106452,0.03548 -0.03548,0.03548 -0.03548,0.07097 -0.03548,0.106452 v 0.532258 c 0,0.03548 0,0.106452 0.03548,0.106452 0.03548,0.03548 0.07097,0.03548 0.106452,0.03548 h 0.674193 v 0.354839 h -0.674193 c -0.03548,0 -0.106452,0 -0.17742,-0.03548 -0.07097,-0.03548 -0.106451,-0.03548 -0.177419,-0.106451 -0.03548,-0.03548 -0.106452,-0.106452 -0.141935,-0.17742 -0.03548,-0.07097 -0.03548,-0.141935 -0.03548,-0.248387 v -0.46129 c 0,-0.03548 0,-0.106452 0.03548,-0.177419 0.03548,-0.07097 0.03548,-0.106452 0.106451,-0.17742 0.03548,-0.03548 0.106452,-0.106451 0.17742,-0.141935 0.07097,-0.03548 0.141935,-0.03548 0.248387,-0.03548 h 0.674193 c 0.03548,0 0.106452,0 0.17742,0.03548 0.07097,0.03548 0.106451,0.03548 0.177419,0.106451 0.03548,0.03548 0.106451,0.106452 0.141935,0.17742 0.03548,0.07097 0.03548,0.141935 0.03548,0.248387 0,0 -0.03548,0.07097 -0.03548,0.106451 z m 1.667742,-0.283871 h -0.851613 c -0.03548,0 -0.106451,0 -0.106451,0.03548 -0.03548,0.03548 -0.03548,0.07097 -0.03548,0.106452 v 1.064516 h -0.390323 v -1.064516 c 0,-0.07097 0,-0.106452 0.03548,-0.177419 0,-0.03548 0.03548,-0.106452 0.07097,-0.141936 l 0.106452,-0.106452 c 0.03548,-0.03548 0.07097,-0.03548 0.106451,-0.07097 0.03548,0 0.07097,-0.03548 0.106452,-0.03548 h 0.106451 0.851613 z M 44.863162,38.570968 H 29.321226 v -1.667742 h 15.541936 z"
       id="path105"
       style="display:inline;opacity:1;fill:#000000;stroke-width:0.354839"
       sodipodi:nodetypes="cccccccccccccccccccccccccccccccccccccccccccccccccccccccccccccccsssccsscsscscsccccccccccsssssscccsssscscssssssccccsscscsssssssssssssssccccssscsccsssccccscscsscccsssscscscsscscccscsscsscsccscsscscscsscscscscsccsssccsccscscscccccccccccccccccccsssccscscsscsscsccsssssssssssssscccscsccscsscscccccccc" /></g><g
     inkscape:label="Dwgs.User"
     inkscape:groupmode="layer"
     id="g2008" /><g
     inkscape:label="Drill"
     inkscape:groupmode="layer"
     id="g2010" /><g
     id="Layer_7"
     style="display:inline"
     inkscape:label="Edgecut (pink)"
     transform="matrix(0.35483871,0,0,0.35483871,-58.998129,-92.045161)">
			
		</g></svg>
