G04 #@! TF.GenerationSoftware,KiCad,Pcbnew,(7.0.0)*
G04 #@! TF.CreationDate,2023-04-17T17:46:40-04:00*
G04 #@! TF.ProjectId,AA Design THT Modify,41412044-6573-4696-976e-20544854204d,rev?*
G04 #@! TF.SameCoordinates,Original*
G04 #@! TF.FileFunction,Profile,NP*
%FSLAX46Y46*%
G04 Gerber Fmt 4.6, Leading zero omitted, Abs format (unit mm)*
G04 Created by KiCad (PCBNEW (7.0.0)) date 2023-04-17 17:46:40*
%MOMM*%
%LPD*%
G01*
G04 APERTURE LIST*
G04 #@! TA.AperFunction,Profile*
%ADD10C,0.100000*%
G04 #@! TD*
G04 APERTURE END LIST*
D10*
X41624410Y-36420132D02*
X41553442Y-36526584D01*
X41269571Y-44971752D02*
X41269571Y-50471756D01*
X41269571Y-50471756D02*
X41269571Y-55971761D01*
X85411543Y-49158852D02*
X85411543Y-43552396D01*
X41305055Y-83720171D02*
X41376023Y-83933074D01*
X63376041Y-90852435D02*
X68379270Y-90852435D01*
X41695378Y-84358881D02*
X41979249Y-84536300D01*
X43292153Y-35923357D02*
X43008282Y-35958841D01*
X42972798Y-90745983D02*
X43150218Y-90816951D01*
X82288959Y-35887874D02*
X77605084Y-35887874D01*
X82501863Y-35887874D02*
X82288959Y-35887874D01*
X68379270Y-90852435D02*
X73382500Y-90852435D01*
X77605084Y-35887874D02*
X72885726Y-35887874D01*
X84098638Y-90391144D02*
X84205090Y-90213724D01*
X85411543Y-66049189D02*
X85411543Y-60407248D01*
X43008282Y-35958841D02*
X42724411Y-35958841D01*
X83282509Y-90852435D02*
X83495412Y-90816951D01*
X83672831Y-90745983D02*
X83850251Y-90639531D01*
X41269571Y-83400816D02*
X41269571Y-83436300D01*
X85376059Y-83436300D02*
X85376059Y-83400816D01*
X84311542Y-84820172D02*
X84311542Y-84678236D01*
X85340575Y-37023358D02*
X85340575Y-36987874D01*
X41695378Y-36349164D02*
X41624410Y-36420132D01*
X43150218Y-90816951D02*
X43363121Y-90852435D01*
X84276058Y-90036305D02*
X84311542Y-89823402D01*
X76576051Y-90852435D02*
X78279279Y-90852435D01*
X58834101Y-35887874D02*
X54150227Y-35852390D01*
X42334088Y-86594367D02*
X42334088Y-87445980D01*
X42440540Y-35958841D02*
X42369572Y-35958841D01*
X85376059Y-37484649D02*
X85376059Y-37378197D01*
X41269571Y-38939489D02*
X41269571Y-39223360D01*
X42334088Y-89113723D02*
X42334088Y-89823402D01*
X41305055Y-37058842D02*
X41305055Y-37094326D01*
X83885735Y-35958841D02*
X83672831Y-35923357D01*
X42440540Y-90213724D02*
X42546991Y-90391144D01*
X42795379Y-90639531D02*
X42972798Y-90745983D01*
X73382500Y-90852435D02*
X76576051Y-90852435D01*
X41269571Y-37555617D02*
X41269571Y-37839488D01*
X42334088Y-85245978D02*
X42334088Y-85849205D01*
X84950252Y-84358881D02*
X85127671Y-84145978D01*
X84985736Y-36349164D02*
X84843800Y-36207229D01*
X85376059Y-83400816D02*
X85411543Y-71691129D01*
X85376059Y-37058842D02*
X85340575Y-37023358D01*
X85411543Y-71691129D02*
X85411543Y-66049189D01*
X42334088Y-87445980D02*
X42334088Y-88297594D01*
X85340575Y-36987874D02*
X85340575Y-36952391D01*
X48366351Y-90852435D02*
X53369581Y-90852435D01*
X85376059Y-37094326D02*
X85376059Y-37058842D01*
X41269571Y-39223360D02*
X41269571Y-39507231D01*
X41269571Y-72436291D02*
X41269571Y-83400816D01*
X85305091Y-36881423D02*
X85269607Y-36774971D01*
X42369572Y-90036305D02*
X42440540Y-90213724D01*
X68201851Y-35887874D02*
X63517976Y-35887874D01*
X85340575Y-36952391D02*
X85340575Y-36916907D01*
X72885726Y-35887874D02*
X68201851Y-35887874D01*
X84311542Y-89113723D02*
X84311542Y-88297594D01*
X85411543Y-37874972D02*
X85411543Y-37768520D01*
X41766346Y-36242713D02*
X41695378Y-36349164D01*
X84311542Y-88297594D02*
X84311542Y-87445980D01*
X41269571Y-37839488D02*
X41269571Y-38123359D01*
X44782477Y-35852390D02*
X44498606Y-35887874D01*
X78279279Y-90852435D02*
X83282509Y-90852435D01*
X84311542Y-89823402D02*
X84311542Y-89113723D01*
X85411543Y-37768520D02*
X85411543Y-37662069D01*
X42156668Y-36029809D02*
X42085701Y-36029809D01*
X85340575Y-36916907D02*
X85305091Y-36881423D01*
X42546991Y-90391144D02*
X42653443Y-90533080D01*
X41517958Y-84145978D02*
X41695378Y-84358881D01*
X83992186Y-90533080D02*
X84098638Y-90391144D01*
X83672831Y-35923357D02*
X83424444Y-35923357D01*
X41305055Y-37236262D02*
X41305055Y-37271746D01*
X42334088Y-88297594D02*
X42334088Y-89113723D01*
X43895379Y-35887874D02*
X43611508Y-35923357D01*
X83495412Y-90816951D02*
X83672831Y-90745983D01*
X41837313Y-36207229D02*
X41766346Y-36242713D01*
X41269571Y-39507231D02*
X41269571Y-44971752D01*
X41269571Y-38371747D02*
X41269571Y-38655618D01*
X85411543Y-54800792D02*
X85411543Y-49158852D01*
X42298604Y-35994325D02*
X42227636Y-35994325D01*
X85376059Y-37200778D02*
X85376059Y-37129810D01*
X85411543Y-37662069D02*
X85411543Y-37591101D01*
X42334088Y-84820172D02*
X42334088Y-85245978D01*
X84630897Y-36100777D02*
X84417993Y-35994325D01*
X41305055Y-37165294D02*
X41305055Y-37200778D01*
X84311542Y-85849205D02*
X84311542Y-85245978D01*
X41411506Y-36810455D02*
X41340539Y-36952391D01*
X41305055Y-37271746D02*
X41269571Y-37555617D01*
X84417993Y-35994325D02*
X84134122Y-35958841D01*
X41305055Y-37200778D02*
X41305055Y-37236262D01*
X83424444Y-35923357D02*
X83211541Y-35923357D01*
X85411543Y-37591101D02*
X85376059Y-37484649D01*
X63517976Y-35887874D02*
X58834101Y-35887874D01*
X41340539Y-36952391D02*
X41340539Y-37023358D01*
X84205090Y-90213724D02*
X84276058Y-90036305D01*
X41482474Y-36668519D02*
X41411506Y-36810455D01*
X41269571Y-83542751D02*
X41305055Y-83720171D01*
X43611508Y-35923357D02*
X43292153Y-35923357D01*
X42334088Y-85849205D02*
X42334088Y-86594367D01*
X42334088Y-84678236D02*
X42334088Y-84820172D01*
X84134122Y-35958841D02*
X83885735Y-35958841D01*
X42369572Y-35958841D02*
X42298604Y-35994325D01*
X42724411Y-35958841D02*
X42440540Y-35958841D01*
X44498606Y-35887874D02*
X44179251Y-35887874D01*
X84311542Y-84678236D02*
X84666381Y-84536300D01*
X53369581Y-90852435D02*
X58372811Y-90852435D01*
X42014733Y-36065293D02*
X41979249Y-36100777D01*
X44179251Y-35887874D02*
X43895379Y-35887874D01*
X41269571Y-83436300D02*
X41269571Y-83542751D01*
X41340539Y-37023358D02*
X41305055Y-37058842D01*
X41553442Y-36526584D02*
X41482474Y-36668519D01*
X82963153Y-35923357D02*
X82750250Y-35887874D01*
X41908281Y-36136261D02*
X41837313Y-36207229D01*
X85127671Y-36491100D02*
X84985736Y-36349164D01*
X84666381Y-84536300D02*
X84950252Y-84358881D01*
X85127671Y-84145978D02*
X85269607Y-83933074D01*
X83211541Y-35923357D02*
X82963153Y-35923357D01*
X85198639Y-36633035D02*
X85127671Y-36491100D01*
X41269571Y-61436282D02*
X41269571Y-66936286D01*
X42334088Y-89823402D02*
X42369572Y-90036305D01*
X84843800Y-36207229D02*
X84630897Y-36100777D01*
X41979249Y-84536300D02*
X42334088Y-84678236D01*
X63517976Y-35887874D02*
X63517976Y-35887874D01*
X58372811Y-90852435D02*
X63376041Y-90852435D01*
X41269571Y-66936286D02*
X41269571Y-72436291D01*
X85269607Y-36774971D02*
X85198639Y-36633035D01*
X42653443Y-90533080D02*
X42795379Y-90639531D01*
X85411543Y-43552396D02*
X85411543Y-37910456D01*
X41269571Y-38123359D02*
X41269571Y-38371747D01*
X85411543Y-37910456D02*
X85411543Y-37874972D01*
X54150227Y-35852390D02*
X49466352Y-35852390D01*
X85376059Y-37307230D02*
X85376059Y-37200778D01*
X85340575Y-83720171D02*
X85376059Y-83542751D01*
X84311542Y-86594367D02*
X84311542Y-85849205D01*
X41376023Y-83933074D02*
X41517958Y-84145978D01*
X85411543Y-60407248D02*
X85411543Y-54800792D01*
X84311542Y-87445980D02*
X84311542Y-86594367D01*
X84311542Y-85245978D02*
X84311542Y-84820172D01*
X85376059Y-37378197D02*
X85376059Y-37307230D01*
X83850251Y-90639531D02*
X83992186Y-90533080D01*
X41979249Y-36100777D02*
X41908281Y-36136261D01*
X82750250Y-35887874D02*
X82501863Y-35887874D01*
X42227636Y-35994325D02*
X42156668Y-36029809D01*
X85376059Y-37129810D02*
X85376059Y-37094326D01*
X41305055Y-37129810D02*
X41305055Y-37165294D01*
X49466352Y-35852390D02*
X44782477Y-35852390D01*
X43363121Y-90852435D02*
X48366351Y-90852435D01*
X85376059Y-83542751D02*
X85376059Y-83436300D01*
X42085701Y-36029809D02*
X42014733Y-36065293D01*
X41269571Y-55971761D02*
X41269571Y-61436282D01*
X41269571Y-38655618D02*
X41269571Y-38939489D01*
X41305055Y-37094326D02*
X41305055Y-37129810D01*
X85269607Y-83933074D02*
X85340575Y-83720171D01*
M02*
