G04 #@! TF.GenerationSoftware,KiCad,Pcbnew,(7.0.0)*
G04 #@! TF.CreationDate,2023-04-17T17:46:40-04:00*
G04 #@! TF.ProjectId,AA Design THT Modify,41412044-6573-4696-976e-20544854204d,rev?*
G04 #@! TF.SameCoordinates,Original*
G04 #@! TF.FileFunction,Legend,Bot*
G04 #@! TF.FilePolarity,Positive*
%FSLAX46Y46*%
G04 Gerber Fmt 4.6, Leading zero omitted, Abs format (unit mm)*
G04 Created by KiCad (PCBNEW (7.0.0)) date 2023-04-17 17:46:40*
%MOMM*%
%LPD*%
G01*
G04 APERTURE LIST*
G04 Aperture macros list*
%AMRoundRect*
0 Rectangle with rounded corners*
0 $1 Rounding radius*
0 $2 $3 $4 $5 $6 $7 $8 $9 X,Y pos of 4 corners*
0 Add a 4 corners polygon primitive as box body*
4,1,4,$2,$3,$4,$5,$6,$7,$8,$9,$2,$3,0*
0 Add four circle primitives for the rounded corners*
1,1,$1+$1,$2,$3*
1,1,$1+$1,$4,$5*
1,1,$1+$1,$6,$7*
1,1,$1+$1,$8,$9*
0 Add four rect primitives between the rounded corners*
20,1,$1+$1,$2,$3,$4,$5,0*
20,1,$1+$1,$4,$5,$6,$7,0*
20,1,$1+$1,$6,$7,$8,$9,0*
20,1,$1+$1,$8,$9,$2,$3,0*%
G04 Aperture macros list end*
%ADD10C,0.150000*%
%ADD11C,0.700000*%
%ADD12C,0.010000*%
%ADD13C,0.120000*%
%ADD14O,2.127200X2.127200*%
%ADD15RoundRect,0.200000X-0.863600X0.863600X-0.863600X-0.863600X0.863600X-0.863600X0.863600X0.863600X0*%
%ADD16C,2.127200*%
%ADD17RoundRect,0.200000X-0.900000X-0.900000X0.900000X-0.900000X0.900000X0.900000X-0.900000X0.900000X0*%
%ADD18C,2.200000*%
%ADD19RoundRect,0.450001X-0.624999X0.462499X-0.624999X-0.462499X0.624999X-0.462499X0.624999X0.462499X0*%
%ADD20C,1.800000*%
%ADD21O,1.800000X1.800000*%
G04 APERTURE END LIST*
D10*
G04 #@! TO.C,X1*
X61531428Y-88969250D02*
X61602857Y-88933535D01*
X61602857Y-88933535D02*
X61709999Y-88933535D01*
X61709999Y-88933535D02*
X61817142Y-88969250D01*
X61817142Y-88969250D02*
X61888571Y-89040678D01*
X61888571Y-89040678D02*
X61924285Y-89112107D01*
X61924285Y-89112107D02*
X61959999Y-89254964D01*
X61959999Y-89254964D02*
X61959999Y-89362107D01*
X61959999Y-89362107D02*
X61924285Y-89504964D01*
X61924285Y-89504964D02*
X61888571Y-89576392D01*
X61888571Y-89576392D02*
X61817142Y-89647821D01*
X61817142Y-89647821D02*
X61709999Y-89683535D01*
X61709999Y-89683535D02*
X61638571Y-89683535D01*
X61638571Y-89683535D02*
X61531428Y-89647821D01*
X61531428Y-89647821D02*
X61495714Y-89612107D01*
X61495714Y-89612107D02*
X61495714Y-89362107D01*
X61495714Y-89362107D02*
X61638571Y-89362107D01*
X61174285Y-89683535D02*
X61174285Y-88933535D01*
X61174285Y-88933535D02*
X60745714Y-89683535D01*
X60745714Y-89683535D02*
X60745714Y-88933535D01*
X60388571Y-89683535D02*
X60388571Y-88933535D01*
X60388571Y-88933535D02*
X60210000Y-88933535D01*
X60210000Y-88933535D02*
X60102857Y-88969250D01*
X60102857Y-88969250D02*
X60031428Y-89040678D01*
X60031428Y-89040678D02*
X59995714Y-89112107D01*
X59995714Y-89112107D02*
X59960000Y-89254964D01*
X59960000Y-89254964D02*
X59960000Y-89362107D01*
X59960000Y-89362107D02*
X59995714Y-89504964D01*
X59995714Y-89504964D02*
X60031428Y-89576392D01*
X60031428Y-89576392D02*
X60102857Y-89647821D01*
X60102857Y-89647821D02*
X60210000Y-89683535D01*
X60210000Y-89683535D02*
X60388571Y-89683535D01*
X61959999Y-83091535D02*
X61709999Y-83841535D01*
X61709999Y-83841535D02*
X61459999Y-83091535D01*
X60781428Y-83770107D02*
X60817142Y-83805821D01*
X60817142Y-83805821D02*
X60924285Y-83841535D01*
X60924285Y-83841535D02*
X60995713Y-83841535D01*
X60995713Y-83841535D02*
X61102856Y-83805821D01*
X61102856Y-83805821D02*
X61174285Y-83734392D01*
X61174285Y-83734392D02*
X61209999Y-83662964D01*
X61209999Y-83662964D02*
X61245713Y-83520107D01*
X61245713Y-83520107D02*
X61245713Y-83412964D01*
X61245713Y-83412964D02*
X61209999Y-83270107D01*
X61209999Y-83270107D02*
X61174285Y-83198678D01*
X61174285Y-83198678D02*
X61102856Y-83127250D01*
X61102856Y-83127250D02*
X60995713Y-83091535D01*
X60995713Y-83091535D02*
X60924285Y-83091535D01*
X60924285Y-83091535D02*
X60817142Y-83127250D01*
X60817142Y-83127250D02*
X60781428Y-83162964D01*
X60031428Y-83770107D02*
X60067142Y-83805821D01*
X60067142Y-83805821D02*
X60174285Y-83841535D01*
X60174285Y-83841535D02*
X60245713Y-83841535D01*
X60245713Y-83841535D02*
X60352856Y-83805821D01*
X60352856Y-83805821D02*
X60424285Y-83734392D01*
X60424285Y-83734392D02*
X60459999Y-83662964D01*
X60459999Y-83662964D02*
X60495713Y-83520107D01*
X60495713Y-83520107D02*
X60495713Y-83412964D01*
X60495713Y-83412964D02*
X60459999Y-83270107D01*
X60459999Y-83270107D02*
X60424285Y-83198678D01*
X60424285Y-83198678D02*
X60352856Y-83127250D01*
X60352856Y-83127250D02*
X60245713Y-83091535D01*
X60245713Y-83091535D02*
X60174285Y-83091535D01*
X60174285Y-83091535D02*
X60067142Y-83127250D01*
X60067142Y-83127250D02*
X60031428Y-83162964D01*
X68544142Y-88969250D02*
X68615571Y-88933535D01*
X68615571Y-88933535D02*
X68722713Y-88933535D01*
X68722713Y-88933535D02*
X68829856Y-88969250D01*
X68829856Y-88969250D02*
X68901285Y-89040678D01*
X68901285Y-89040678D02*
X68936999Y-89112107D01*
X68936999Y-89112107D02*
X68972713Y-89254964D01*
X68972713Y-89254964D02*
X68972713Y-89362107D01*
X68972713Y-89362107D02*
X68936999Y-89504964D01*
X68936999Y-89504964D02*
X68901285Y-89576392D01*
X68901285Y-89576392D02*
X68829856Y-89647821D01*
X68829856Y-89647821D02*
X68722713Y-89683535D01*
X68722713Y-89683535D02*
X68651285Y-89683535D01*
X68651285Y-89683535D02*
X68544142Y-89647821D01*
X68544142Y-89647821D02*
X68508428Y-89612107D01*
X68508428Y-89612107D02*
X68508428Y-89362107D01*
X68508428Y-89362107D02*
X68651285Y-89362107D01*
X68186999Y-89683535D02*
X68186999Y-88933535D01*
X68186999Y-88933535D02*
X67901285Y-88933535D01*
X67901285Y-88933535D02*
X67829856Y-88969250D01*
X67829856Y-88969250D02*
X67794142Y-89004964D01*
X67794142Y-89004964D02*
X67758428Y-89076392D01*
X67758428Y-89076392D02*
X67758428Y-89183535D01*
X67758428Y-89183535D02*
X67794142Y-89254964D01*
X67794142Y-89254964D02*
X67829856Y-89290678D01*
X67829856Y-89290678D02*
X67901285Y-89326392D01*
X67901285Y-89326392D02*
X68186999Y-89326392D01*
X67436999Y-89683535D02*
X67436999Y-88933535D01*
X66936999Y-88933535D02*
X66794142Y-88933535D01*
X66794142Y-88933535D02*
X66722713Y-88969250D01*
X66722713Y-88969250D02*
X66651285Y-89040678D01*
X66651285Y-89040678D02*
X66615570Y-89183535D01*
X66615570Y-89183535D02*
X66615570Y-89433535D01*
X66615570Y-89433535D02*
X66651285Y-89576392D01*
X66651285Y-89576392D02*
X66722713Y-89647821D01*
X66722713Y-89647821D02*
X66794142Y-89683535D01*
X66794142Y-89683535D02*
X66936999Y-89683535D01*
X66936999Y-89683535D02*
X67008428Y-89647821D01*
X67008428Y-89647821D02*
X67079856Y-89576392D01*
X67079856Y-89576392D02*
X67115570Y-89433535D01*
X67115570Y-89433535D02*
X67115570Y-89183535D01*
X67115570Y-89183535D02*
X67079856Y-89040678D01*
X67079856Y-89040678D02*
X67008428Y-88969250D01*
X67008428Y-88969250D02*
X66936999Y-88933535D01*
X66329856Y-89004964D02*
X66294142Y-88969250D01*
X66294142Y-88969250D02*
X66222714Y-88933535D01*
X66222714Y-88933535D02*
X66044142Y-88933535D01*
X66044142Y-88933535D02*
X65972714Y-88969250D01*
X65972714Y-88969250D02*
X65936999Y-89004964D01*
X65936999Y-89004964D02*
X65901285Y-89076392D01*
X65901285Y-89076392D02*
X65901285Y-89147821D01*
X65901285Y-89147821D02*
X65936999Y-89254964D01*
X65936999Y-89254964D02*
X66365571Y-89683535D01*
X66365571Y-89683535D02*
X65901285Y-89683535D01*
X68544142Y-83127250D02*
X68615571Y-83091535D01*
X68615571Y-83091535D02*
X68722713Y-83091535D01*
X68722713Y-83091535D02*
X68829856Y-83127250D01*
X68829856Y-83127250D02*
X68901285Y-83198678D01*
X68901285Y-83198678D02*
X68936999Y-83270107D01*
X68936999Y-83270107D02*
X68972713Y-83412964D01*
X68972713Y-83412964D02*
X68972713Y-83520107D01*
X68972713Y-83520107D02*
X68936999Y-83662964D01*
X68936999Y-83662964D02*
X68901285Y-83734392D01*
X68901285Y-83734392D02*
X68829856Y-83805821D01*
X68829856Y-83805821D02*
X68722713Y-83841535D01*
X68722713Y-83841535D02*
X68651285Y-83841535D01*
X68651285Y-83841535D02*
X68544142Y-83805821D01*
X68544142Y-83805821D02*
X68508428Y-83770107D01*
X68508428Y-83770107D02*
X68508428Y-83520107D01*
X68508428Y-83520107D02*
X68651285Y-83520107D01*
X68186999Y-83841535D02*
X68186999Y-83091535D01*
X68186999Y-83091535D02*
X67901285Y-83091535D01*
X67901285Y-83091535D02*
X67829856Y-83127250D01*
X67829856Y-83127250D02*
X67794142Y-83162964D01*
X67794142Y-83162964D02*
X67758428Y-83234392D01*
X67758428Y-83234392D02*
X67758428Y-83341535D01*
X67758428Y-83341535D02*
X67794142Y-83412964D01*
X67794142Y-83412964D02*
X67829856Y-83448678D01*
X67829856Y-83448678D02*
X67901285Y-83484392D01*
X67901285Y-83484392D02*
X68186999Y-83484392D01*
X67436999Y-83841535D02*
X67436999Y-83091535D01*
X66936999Y-83091535D02*
X66794142Y-83091535D01*
X66794142Y-83091535D02*
X66722713Y-83127250D01*
X66722713Y-83127250D02*
X66651285Y-83198678D01*
X66651285Y-83198678D02*
X66615570Y-83341535D01*
X66615570Y-83341535D02*
X66615570Y-83591535D01*
X66615570Y-83591535D02*
X66651285Y-83734392D01*
X66651285Y-83734392D02*
X66722713Y-83805821D01*
X66722713Y-83805821D02*
X66794142Y-83841535D01*
X66794142Y-83841535D02*
X66936999Y-83841535D01*
X66936999Y-83841535D02*
X67008428Y-83805821D01*
X67008428Y-83805821D02*
X67079856Y-83734392D01*
X67079856Y-83734392D02*
X67115570Y-83591535D01*
X67115570Y-83591535D02*
X67115570Y-83341535D01*
X67115570Y-83341535D02*
X67079856Y-83198678D01*
X67079856Y-83198678D02*
X67008428Y-83127250D01*
X67008428Y-83127250D02*
X66936999Y-83091535D01*
X65901285Y-83841535D02*
X66329856Y-83841535D01*
X66115571Y-83841535D02*
X66115571Y-83091535D01*
X66115571Y-83091535D02*
X66186999Y-83198678D01*
X66186999Y-83198678D02*
X66258428Y-83270107D01*
X66258428Y-83270107D02*
X66329856Y-83305821D01*
X64392856Y-89647821D02*
X64285714Y-89683535D01*
X64285714Y-89683535D02*
X64107142Y-89683535D01*
X64107142Y-89683535D02*
X64035714Y-89647821D01*
X64035714Y-89647821D02*
X63999999Y-89612107D01*
X63999999Y-89612107D02*
X63964285Y-89540678D01*
X63964285Y-89540678D02*
X63964285Y-89469250D01*
X63964285Y-89469250D02*
X63999999Y-89397821D01*
X63999999Y-89397821D02*
X64035714Y-89362107D01*
X64035714Y-89362107D02*
X64107142Y-89326392D01*
X64107142Y-89326392D02*
X64249999Y-89290678D01*
X64249999Y-89290678D02*
X64321428Y-89254964D01*
X64321428Y-89254964D02*
X64357142Y-89219250D01*
X64357142Y-89219250D02*
X64392856Y-89147821D01*
X64392856Y-89147821D02*
X64392856Y-89076392D01*
X64392856Y-89076392D02*
X64357142Y-89004964D01*
X64357142Y-89004964D02*
X64321428Y-88969250D01*
X64321428Y-88969250D02*
X64249999Y-88933535D01*
X64249999Y-88933535D02*
X64071428Y-88933535D01*
X64071428Y-88933535D02*
X63964285Y-88969250D01*
X63214285Y-89612107D02*
X63249999Y-89647821D01*
X63249999Y-89647821D02*
X63357142Y-89683535D01*
X63357142Y-89683535D02*
X63428570Y-89683535D01*
X63428570Y-89683535D02*
X63535713Y-89647821D01*
X63535713Y-89647821D02*
X63607142Y-89576392D01*
X63607142Y-89576392D02*
X63642856Y-89504964D01*
X63642856Y-89504964D02*
X63678570Y-89362107D01*
X63678570Y-89362107D02*
X63678570Y-89254964D01*
X63678570Y-89254964D02*
X63642856Y-89112107D01*
X63642856Y-89112107D02*
X63607142Y-89040678D01*
X63607142Y-89040678D02*
X63535713Y-88969250D01*
X63535713Y-88969250D02*
X63428570Y-88933535D01*
X63428570Y-88933535D02*
X63357142Y-88933535D01*
X63357142Y-88933535D02*
X63249999Y-88969250D01*
X63249999Y-88969250D02*
X63214285Y-89004964D01*
X62535713Y-89683535D02*
X62892856Y-89683535D01*
X62892856Y-89683535D02*
X62892856Y-88933535D01*
X64410713Y-83805821D02*
X64303571Y-83841535D01*
X64303571Y-83841535D02*
X64124999Y-83841535D01*
X64124999Y-83841535D02*
X64053571Y-83805821D01*
X64053571Y-83805821D02*
X64017856Y-83770107D01*
X64017856Y-83770107D02*
X63982142Y-83698678D01*
X63982142Y-83698678D02*
X63982142Y-83627250D01*
X63982142Y-83627250D02*
X64017856Y-83555821D01*
X64017856Y-83555821D02*
X64053571Y-83520107D01*
X64053571Y-83520107D02*
X64124999Y-83484392D01*
X64124999Y-83484392D02*
X64267856Y-83448678D01*
X64267856Y-83448678D02*
X64339285Y-83412964D01*
X64339285Y-83412964D02*
X64374999Y-83377250D01*
X64374999Y-83377250D02*
X64410713Y-83305821D01*
X64410713Y-83305821D02*
X64410713Y-83234392D01*
X64410713Y-83234392D02*
X64374999Y-83162964D01*
X64374999Y-83162964D02*
X64339285Y-83127250D01*
X64339285Y-83127250D02*
X64267856Y-83091535D01*
X64267856Y-83091535D02*
X64089285Y-83091535D01*
X64089285Y-83091535D02*
X63982142Y-83127250D01*
X63660713Y-83841535D02*
X63660713Y-83091535D01*
X63660713Y-83091535D02*
X63482142Y-83091535D01*
X63482142Y-83091535D02*
X63374999Y-83127250D01*
X63374999Y-83127250D02*
X63303570Y-83198678D01*
X63303570Y-83198678D02*
X63267856Y-83270107D01*
X63267856Y-83270107D02*
X63232142Y-83412964D01*
X63232142Y-83412964D02*
X63232142Y-83520107D01*
X63232142Y-83520107D02*
X63267856Y-83662964D01*
X63267856Y-83662964D02*
X63303570Y-83734392D01*
X63303570Y-83734392D02*
X63374999Y-83805821D01*
X63374999Y-83805821D02*
X63482142Y-83841535D01*
X63482142Y-83841535D02*
X63660713Y-83841535D01*
X62946427Y-83627250D02*
X62589285Y-83627250D01*
X63017856Y-83841535D02*
X62767856Y-83091535D01*
X62767856Y-83091535D02*
X62517856Y-83841535D01*
G04 #@! TO.C,D1*
X79827380Y-52601905D02*
X78827380Y-52601905D01*
X78827380Y-52601905D02*
X78827380Y-52840000D01*
X78827380Y-52840000D02*
X78875000Y-52982857D01*
X78875000Y-52982857D02*
X78970238Y-53078095D01*
X78970238Y-53078095D02*
X79065476Y-53125714D01*
X79065476Y-53125714D02*
X79255952Y-53173333D01*
X79255952Y-53173333D02*
X79398809Y-53173333D01*
X79398809Y-53173333D02*
X79589285Y-53125714D01*
X79589285Y-53125714D02*
X79684523Y-53078095D01*
X79684523Y-53078095D02*
X79779761Y-52982857D01*
X79779761Y-52982857D02*
X79827380Y-52840000D01*
X79827380Y-52840000D02*
X79827380Y-52601905D01*
X79827380Y-54125714D02*
X79827380Y-53554286D01*
X79827380Y-53840000D02*
X78827380Y-53840000D01*
X78827380Y-53840000D02*
X78970238Y-53744762D01*
X78970238Y-53744762D02*
X79065476Y-53649524D01*
X79065476Y-53649524D02*
X79113095Y-53554286D01*
G04 #@! TO.C,D2*
X44267380Y-52601905D02*
X43267380Y-52601905D01*
X43267380Y-52601905D02*
X43267380Y-52840000D01*
X43267380Y-52840000D02*
X43315000Y-52982857D01*
X43315000Y-52982857D02*
X43410238Y-53078095D01*
X43410238Y-53078095D02*
X43505476Y-53125714D01*
X43505476Y-53125714D02*
X43695952Y-53173333D01*
X43695952Y-53173333D02*
X43838809Y-53173333D01*
X43838809Y-53173333D02*
X44029285Y-53125714D01*
X44029285Y-53125714D02*
X44124523Y-53078095D01*
X44124523Y-53078095D02*
X44219761Y-52982857D01*
X44219761Y-52982857D02*
X44267380Y-52840000D01*
X44267380Y-52840000D02*
X44267380Y-52601905D01*
X43362619Y-53554286D02*
X43315000Y-53601905D01*
X43315000Y-53601905D02*
X43267380Y-53697143D01*
X43267380Y-53697143D02*
X43267380Y-53935238D01*
X43267380Y-53935238D02*
X43315000Y-54030476D01*
X43315000Y-54030476D02*
X43362619Y-54078095D01*
X43362619Y-54078095D02*
X43457857Y-54125714D01*
X43457857Y-54125714D02*
X43553095Y-54125714D01*
X43553095Y-54125714D02*
X43695952Y-54078095D01*
X43695952Y-54078095D02*
X44267380Y-53506667D01*
X44267380Y-53506667D02*
X44267380Y-54125714D01*
G04 #@! TO.C,R2*
X80116666Y-81267380D02*
X80449999Y-80791190D01*
X80688094Y-81267380D02*
X80688094Y-80267380D01*
X80688094Y-80267380D02*
X80307142Y-80267380D01*
X80307142Y-80267380D02*
X80211904Y-80315000D01*
X80211904Y-80315000D02*
X80164285Y-80362619D01*
X80164285Y-80362619D02*
X80116666Y-80457857D01*
X80116666Y-80457857D02*
X80116666Y-80600714D01*
X80116666Y-80600714D02*
X80164285Y-80695952D01*
X80164285Y-80695952D02*
X80211904Y-80743571D01*
X80211904Y-80743571D02*
X80307142Y-80791190D01*
X80307142Y-80791190D02*
X80688094Y-80791190D01*
X79735713Y-80362619D02*
X79688094Y-80315000D01*
X79688094Y-80315000D02*
X79592856Y-80267380D01*
X79592856Y-80267380D02*
X79354761Y-80267380D01*
X79354761Y-80267380D02*
X79259523Y-80315000D01*
X79259523Y-80315000D02*
X79211904Y-80362619D01*
X79211904Y-80362619D02*
X79164285Y-80457857D01*
X79164285Y-80457857D02*
X79164285Y-80553095D01*
X79164285Y-80553095D02*
X79211904Y-80695952D01*
X79211904Y-80695952D02*
X79783332Y-81267380D01*
X79783332Y-81267380D02*
X79164285Y-81267380D01*
D11*
G04 #@! TO.C,X1*
X56134000Y-82296000D02*
X56134000Y-88900000D01*
X60960000Y-82296000D02*
X56134000Y-82296000D01*
X70779640Y-82245200D02*
X66040000Y-82245200D01*
X70866000Y-88900000D02*
X70866000Y-82296000D01*
G04 #@! TO.C,G\u002A\u002A\u002A*
G36*
X52822155Y-68009019D02*
G01*
X52229489Y-68009019D01*
X52229489Y-67712686D01*
X52822155Y-67712686D01*
X52822155Y-68009019D01*
G37*
D12*
X52822155Y-68009019D02*
X52229489Y-68009019D01*
X52229489Y-67712686D01*
X52822155Y-67712686D01*
X52822155Y-68009019D01*
G36*
X52822155Y-70379686D02*
G01*
X52229489Y-70379686D01*
X52229489Y-68305353D01*
X52822155Y-68305353D01*
X52822155Y-70379686D01*
G37*
X52822155Y-70379686D02*
X52229489Y-70379686D01*
X52229489Y-68305353D01*
X52822155Y-68305353D01*
X52822155Y-70379686D01*
G36*
X56356989Y-70379686D02*
G01*
X55764322Y-70379686D01*
X55764322Y-67670353D01*
X56356989Y-67670353D01*
X56356989Y-70379686D01*
G37*
X56356989Y-70379686D02*
X55764322Y-70379686D01*
X55764322Y-67670353D01*
X56356989Y-67670353D01*
X56356989Y-70379686D01*
G36*
X57531739Y-68315936D02*
G01*
X57542725Y-70379686D01*
X56949655Y-70379686D01*
X56949655Y-68304158D01*
X57531739Y-68315936D01*
G37*
X57531739Y-68315936D02*
X57542725Y-70379686D01*
X56949655Y-70379686D01*
X56949655Y-68304158D01*
X57531739Y-68315936D01*
G36*
X57542322Y-68009019D02*
G01*
X56949655Y-68009019D01*
X56949655Y-67712686D01*
X57542322Y-67712686D01*
X57542322Y-68009019D01*
G37*
X57542322Y-68009019D02*
X56949655Y-68009019D01*
X56949655Y-67712686D01*
X57542322Y-67712686D01*
X57542322Y-68009019D01*
G36*
X77290822Y-68009019D02*
G01*
X76698155Y-68009019D01*
X76698155Y-67712686D01*
X77290822Y-67712686D01*
X77290822Y-68009019D01*
G37*
X77290822Y-68009019D02*
X76698155Y-68009019D01*
X76698155Y-67712686D01*
X77290822Y-67712686D01*
X77290822Y-68009019D01*
G36*
X77290822Y-70379686D02*
G01*
X76698155Y-70379686D01*
X76698155Y-68305353D01*
X77290822Y-68305353D01*
X77290822Y-70379686D01*
G37*
X77290822Y-70379686D02*
X76698155Y-70379686D01*
X76698155Y-68305353D01*
X77290822Y-68305353D01*
X77290822Y-70379686D01*
G36*
X72083822Y-74888186D02*
G01*
X71427655Y-74888186D01*
X71427655Y-73618186D01*
X70856155Y-73618186D01*
X70856155Y-73321853D01*
X71427655Y-73321853D01*
X71427655Y-72475186D01*
X70559822Y-72475186D01*
X70559822Y-72178853D01*
X72083822Y-72178853D01*
X72083822Y-74888186D01*
G37*
X72083822Y-74888186D02*
X71427655Y-74888186D01*
X71427655Y-73618186D01*
X70856155Y-73618186D01*
X70856155Y-73321853D01*
X71427655Y-73321853D01*
X71427655Y-72475186D01*
X70559822Y-72475186D01*
X70559822Y-72178853D01*
X72083822Y-72178853D01*
X72083822Y-74888186D01*
G36*
X56874668Y-72116172D02*
G01*
X56926437Y-72120545D01*
X56976128Y-72131338D01*
X57032687Y-72151420D01*
X57105062Y-72183661D01*
X57202199Y-72230928D01*
X57256372Y-72257864D01*
X57542322Y-72400376D01*
X57542322Y-72686853D01*
X57245989Y-72686853D01*
X57245989Y-74761186D01*
X56963766Y-74761186D01*
X56858463Y-74760181D01*
X56768818Y-74757431D01*
X56703116Y-74753330D01*
X56669644Y-74748272D01*
X56667433Y-74747075D01*
X56664939Y-74723966D01*
X56662585Y-74662180D01*
X56660412Y-74565372D01*
X56658456Y-74437198D01*
X56656759Y-74281314D01*
X56655358Y-74101376D01*
X56654293Y-73901039D01*
X56653602Y-73683959D01*
X56653325Y-73453792D01*
X56653322Y-73424158D01*
X56653322Y-72115353D01*
X56811872Y-72115353D01*
X56874668Y-72116172D01*
G37*
X56874668Y-72116172D02*
X56926437Y-72120545D01*
X56976128Y-72131338D01*
X57032687Y-72151420D01*
X57105062Y-72183661D01*
X57202199Y-72230928D01*
X57256372Y-72257864D01*
X57542322Y-72400376D01*
X57542322Y-72686853D01*
X57245989Y-72686853D01*
X57245989Y-74761186D01*
X56963766Y-74761186D01*
X56858463Y-74760181D01*
X56768818Y-74757431D01*
X56703116Y-74753330D01*
X56669644Y-74748272D01*
X56667433Y-74747075D01*
X56664939Y-74723966D01*
X56662585Y-74662180D01*
X56660412Y-74565372D01*
X56658456Y-74437198D01*
X56656759Y-74281314D01*
X56655358Y-74101376D01*
X56654293Y-73901039D01*
X56653602Y-73683959D01*
X56653325Y-73453792D01*
X56653322Y-73424158D01*
X56653322Y-72115353D01*
X56811872Y-72115353D01*
X56874668Y-72116172D01*
G36*
X58415176Y-68407282D02*
G01*
X58420739Y-69144211D01*
X59225072Y-68408075D01*
X59404881Y-68243649D01*
X59556316Y-68105614D01*
X59682134Y-67991673D01*
X59785091Y-67899526D01*
X59867941Y-67826877D01*
X59933442Y-67771426D01*
X59984348Y-67730876D01*
X60023416Y-67702928D01*
X60053401Y-67685285D01*
X60077060Y-67675649D01*
X60097149Y-67671721D01*
X60108780Y-67671146D01*
X60188155Y-67670353D01*
X60188155Y-70379686D01*
X59892370Y-70379686D01*
X59886804Y-69650149D01*
X59881239Y-68920612D01*
X59081773Y-69650149D01*
X58902897Y-69813277D01*
X58752438Y-69950111D01*
X58627602Y-70062957D01*
X58525594Y-70154122D01*
X58443620Y-70225911D01*
X58378887Y-70280631D01*
X58328601Y-70320590D01*
X58289968Y-70348093D01*
X58260193Y-70365447D01*
X58236484Y-70374959D01*
X58216045Y-70378935D01*
X58198065Y-70379686D01*
X58113822Y-70379686D01*
X58113822Y-67670353D01*
X58409614Y-67670353D01*
X58415176Y-68407282D01*
G37*
X58415176Y-68407282D02*
X58420739Y-69144211D01*
X59225072Y-68408075D01*
X59404881Y-68243649D01*
X59556316Y-68105614D01*
X59682134Y-67991673D01*
X59785091Y-67899526D01*
X59867941Y-67826877D01*
X59933442Y-67771426D01*
X59984348Y-67730876D01*
X60023416Y-67702928D01*
X60053401Y-67685285D01*
X60077060Y-67675649D01*
X60097149Y-67671721D01*
X60108780Y-67671146D01*
X60188155Y-67670353D01*
X60188155Y-70379686D01*
X59892370Y-70379686D01*
X59886804Y-69650149D01*
X59881239Y-68920612D01*
X59081773Y-69650149D01*
X58902897Y-69813277D01*
X58752438Y-69950111D01*
X58627602Y-70062957D01*
X58525594Y-70154122D01*
X58443620Y-70225911D01*
X58378887Y-70280631D01*
X58328601Y-70320590D01*
X58289968Y-70348093D01*
X58260193Y-70365447D01*
X58236484Y-70374959D01*
X58216045Y-70378935D01*
X58198065Y-70379686D01*
X58113822Y-70379686D01*
X58113822Y-67670353D01*
X58409614Y-67670353D01*
X58415176Y-68407282D01*
G36*
X66354366Y-72754681D02*
G01*
X66466998Y-72759781D01*
X66547690Y-72766244D01*
X66606832Y-72776074D01*
X66654814Y-72791277D01*
X66702026Y-72813856D01*
X66724155Y-72826039D01*
X66792044Y-72869866D01*
X66840202Y-72918952D01*
X66882648Y-72988711D01*
X66895713Y-73014645D01*
X66929378Y-73084701D01*
X66955888Y-73142544D01*
X66968753Y-73173686D01*
X66973123Y-73167247D01*
X66976927Y-73125578D01*
X66979721Y-73055785D01*
X66980984Y-72977894D01*
X66982655Y-72750353D01*
X67575322Y-72750353D01*
X67575322Y-74824686D01*
X66982655Y-74824686D01*
X66982190Y-74226728D01*
X66981821Y-74049068D01*
X66980816Y-73908447D01*
X66978866Y-73799572D01*
X66975665Y-73717150D01*
X66970902Y-73655888D01*
X66964271Y-73610493D01*
X66955463Y-73575672D01*
X66944169Y-73546132D01*
X66942323Y-73542008D01*
X66897579Y-73465313D01*
X66838505Y-73407436D01*
X66759570Y-73366267D01*
X66655243Y-73339694D01*
X66519992Y-73325605D01*
X66365663Y-73321853D01*
X66093655Y-73321853D01*
X66093655Y-72744637D01*
X66354366Y-72754681D01*
G37*
X66354366Y-72754681D02*
X66466998Y-72759781D01*
X66547690Y-72766244D01*
X66606832Y-72776074D01*
X66654814Y-72791277D01*
X66702026Y-72813856D01*
X66724155Y-72826039D01*
X66792044Y-72869866D01*
X66840202Y-72918952D01*
X66882648Y-72988711D01*
X66895713Y-73014645D01*
X66929378Y-73084701D01*
X66955888Y-73142544D01*
X66968753Y-73173686D01*
X66973123Y-73167247D01*
X66976927Y-73125578D01*
X66979721Y-73055785D01*
X66980984Y-72977894D01*
X66982655Y-72750353D01*
X67575322Y-72750353D01*
X67575322Y-74824686D01*
X66982655Y-74824686D01*
X66982190Y-74226728D01*
X66981821Y-74049068D01*
X66980816Y-73908447D01*
X66978866Y-73799572D01*
X66975665Y-73717150D01*
X66970902Y-73655888D01*
X66964271Y-73610493D01*
X66955463Y-73575672D01*
X66944169Y-73546132D01*
X66942323Y-73542008D01*
X66897579Y-73465313D01*
X66838505Y-73407436D01*
X66759570Y-73366267D01*
X66655243Y-73339694D01*
X66519992Y-73325605D01*
X66365663Y-73321853D01*
X66093655Y-73321853D01*
X66093655Y-72744637D01*
X66354366Y-72754681D01*
G36*
X72726516Y-68308909D02*
G01*
X72893394Y-68316488D01*
X72986025Y-68418801D01*
X73078655Y-68521115D01*
X73078655Y-68390019D01*
X73671322Y-68390019D01*
X73671322Y-70464353D01*
X73163322Y-70464353D01*
X73162857Y-69675894D01*
X73162598Y-69470462D01*
X73161952Y-69302904D01*
X73160714Y-69168759D01*
X73158682Y-69063570D01*
X73155650Y-68982876D01*
X73151416Y-68922219D01*
X73145774Y-68877138D01*
X73138523Y-68843174D01*
X73129457Y-68815869D01*
X73122828Y-68800312D01*
X73060505Y-68702328D01*
X72980394Y-68634974D01*
X72889537Y-68600685D01*
X72794973Y-68601896D01*
X72703743Y-68641044D01*
X72690323Y-68650687D01*
X72655348Y-68678217D01*
X72626702Y-68705186D01*
X72603755Y-68735926D01*
X72585873Y-68774763D01*
X72572426Y-68826026D01*
X72562782Y-68894044D01*
X72556309Y-68983146D01*
X72552375Y-69097660D01*
X72550348Y-69241914D01*
X72549596Y-69420237D01*
X72549489Y-69615593D01*
X72549489Y-70379686D01*
X71954186Y-70379686D01*
X71960796Y-69537735D01*
X71967405Y-68695784D01*
X72052072Y-68588385D01*
X72153277Y-68475286D01*
X72257195Y-68394071D01*
X72372196Y-68341272D01*
X72506650Y-68313422D01*
X72668925Y-68307050D01*
X72726516Y-68308909D01*
G37*
X72726516Y-68308909D02*
X72893394Y-68316488D01*
X72986025Y-68418801D01*
X73078655Y-68521115D01*
X73078655Y-68390019D01*
X73671322Y-68390019D01*
X73671322Y-70464353D01*
X73163322Y-70464353D01*
X73162857Y-69675894D01*
X73162598Y-69470462D01*
X73161952Y-69302904D01*
X73160714Y-69168759D01*
X73158682Y-69063570D01*
X73155650Y-68982876D01*
X73151416Y-68922219D01*
X73145774Y-68877138D01*
X73138523Y-68843174D01*
X73129457Y-68815869D01*
X73122828Y-68800312D01*
X73060505Y-68702328D01*
X72980394Y-68634974D01*
X72889537Y-68600685D01*
X72794973Y-68601896D01*
X72703743Y-68641044D01*
X72690323Y-68650687D01*
X72655348Y-68678217D01*
X72626702Y-68705186D01*
X72603755Y-68735926D01*
X72585873Y-68774763D01*
X72572426Y-68826026D01*
X72562782Y-68894044D01*
X72556309Y-68983146D01*
X72552375Y-69097660D01*
X72550348Y-69241914D01*
X72549596Y-69420237D01*
X72549489Y-69615593D01*
X72549489Y-70379686D01*
X71954186Y-70379686D01*
X71960796Y-69537735D01*
X71967405Y-68695784D01*
X72052072Y-68588385D01*
X72153277Y-68475286D01*
X72257195Y-68394071D01*
X72372196Y-68341272D01*
X72506650Y-68313422D01*
X72668925Y-68307050D01*
X72726516Y-68308909D01*
G36*
X50654879Y-68311151D02*
G01*
X50743106Y-68331248D01*
X50810876Y-68369698D01*
X50868495Y-68430551D01*
X50874407Y-68438448D01*
X50938322Y-68525359D01*
X50938322Y-68390019D01*
X51530989Y-68390019D01*
X51530989Y-70464353D01*
X51022989Y-70464353D01*
X51022524Y-69675894D01*
X51022222Y-69456669D01*
X51021163Y-69275522D01*
X51018686Y-69128200D01*
X51014133Y-69010445D01*
X51006847Y-68918006D01*
X50996170Y-68846625D01*
X50981441Y-68792049D01*
X50962004Y-68750023D01*
X50937201Y-68716292D01*
X50906371Y-68686602D01*
X50868859Y-68656697D01*
X50864286Y-68653204D01*
X50774959Y-68604480D01*
X50685769Y-68596961D01*
X50592134Y-68630574D01*
X50562777Y-68648480D01*
X50524796Y-68674380D01*
X50493656Y-68699834D01*
X50468677Y-68729119D01*
X50449180Y-68766509D01*
X50434487Y-68816280D01*
X50423917Y-68882709D01*
X50416792Y-68970070D01*
X50412432Y-69082639D01*
X50410159Y-69224692D01*
X50409293Y-69400505D01*
X50409155Y-69614352D01*
X50409155Y-70379686D01*
X49813853Y-70379686D01*
X49820462Y-69537735D01*
X49827072Y-68695784D01*
X49911739Y-68588385D01*
X50010796Y-68476750D01*
X50110921Y-68396899D01*
X50221504Y-68344576D01*
X50351931Y-68315523D01*
X50511590Y-68305483D01*
X50535886Y-68305353D01*
X50654879Y-68311151D01*
G37*
X50654879Y-68311151D02*
X50743106Y-68331248D01*
X50810876Y-68369698D01*
X50868495Y-68430551D01*
X50874407Y-68438448D01*
X50938322Y-68525359D01*
X50938322Y-68390019D01*
X51530989Y-68390019D01*
X51530989Y-70464353D01*
X51022989Y-70464353D01*
X51022524Y-69675894D01*
X51022222Y-69456669D01*
X51021163Y-69275522D01*
X51018686Y-69128200D01*
X51014133Y-69010445D01*
X51006847Y-68918006D01*
X50996170Y-68846625D01*
X50981441Y-68792049D01*
X50962004Y-68750023D01*
X50937201Y-68716292D01*
X50906371Y-68686602D01*
X50868859Y-68656697D01*
X50864286Y-68653204D01*
X50774959Y-68604480D01*
X50685769Y-68596961D01*
X50592134Y-68630574D01*
X50562777Y-68648480D01*
X50524796Y-68674380D01*
X50493656Y-68699834D01*
X50468677Y-68729119D01*
X50449180Y-68766509D01*
X50434487Y-68816280D01*
X50423917Y-68882709D01*
X50416792Y-68970070D01*
X50412432Y-69082639D01*
X50410159Y-69224692D01*
X50409293Y-69400505D01*
X50409155Y-69614352D01*
X50409155Y-70379686D01*
X49813853Y-70379686D01*
X49820462Y-69537735D01*
X49827072Y-68695784D01*
X49911739Y-68588385D01*
X50010796Y-68476750D01*
X50110921Y-68396899D01*
X50221504Y-68344576D01*
X50351931Y-68315523D01*
X50511590Y-68305483D01*
X50535886Y-68305353D01*
X50654879Y-68311151D01*
G36*
X63201611Y-72695138D02*
G01*
X63785087Y-72695138D01*
X63791080Y-73512879D01*
X63797072Y-74330620D01*
X63853791Y-74404954D01*
X63922362Y-74476352D01*
X64003515Y-74521420D01*
X64107049Y-74544183D01*
X64204530Y-74549037D01*
X64357989Y-74549519D01*
X64357989Y-72454019D01*
X64207729Y-72454019D01*
X64078787Y-72463132D01*
X63979322Y-72493161D01*
X63899990Y-72548144D01*
X63846828Y-72609908D01*
X63785087Y-72695138D01*
X63201611Y-72695138D01*
X63203514Y-72657646D01*
X63204136Y-72651620D01*
X63236532Y-72538688D01*
X63306624Y-72428568D01*
X63416283Y-72318619D01*
X63471634Y-72274103D01*
X63582654Y-72189436D01*
X64287821Y-72182624D01*
X64992989Y-72175813D01*
X64992989Y-74888186D01*
X64379155Y-74888186D01*
X64198783Y-74887916D01*
X64056506Y-74886967D01*
X63948087Y-74885130D01*
X63869291Y-74882195D01*
X63815882Y-74877954D01*
X63783623Y-74872196D01*
X63768278Y-74864713D01*
X63765322Y-74857862D01*
X63758616Y-74836419D01*
X63732897Y-74820385D01*
X63679760Y-74806170D01*
X63617155Y-74794595D01*
X63539324Y-74765467D01*
X63450008Y-74706248D01*
X63358231Y-74623881D01*
X63281512Y-74536373D01*
X63204405Y-74437436D01*
X63197547Y-73599186D01*
X63196360Y-73410118D01*
X63195914Y-73230372D01*
X63196173Y-73065268D01*
X63197099Y-72920123D01*
X63198656Y-72800259D01*
X63200807Y-72710993D01*
X63201611Y-72695138D01*
G37*
X63201611Y-72695138D02*
X63785087Y-72695138D01*
X63791080Y-73512879D01*
X63797072Y-74330620D01*
X63853791Y-74404954D01*
X63922362Y-74476352D01*
X64003515Y-74521420D01*
X64107049Y-74544183D01*
X64204530Y-74549037D01*
X64357989Y-74549519D01*
X64357989Y-72454019D01*
X64207729Y-72454019D01*
X64078787Y-72463132D01*
X63979322Y-72493161D01*
X63899990Y-72548144D01*
X63846828Y-72609908D01*
X63785087Y-72695138D01*
X63201611Y-72695138D01*
X63203514Y-72657646D01*
X63204136Y-72651620D01*
X63236532Y-72538688D01*
X63306624Y-72428568D01*
X63416283Y-72318619D01*
X63471634Y-72274103D01*
X63582654Y-72189436D01*
X64287821Y-72182624D01*
X64992989Y-72175813D01*
X64992989Y-74888186D01*
X64379155Y-74888186D01*
X64198783Y-74887916D01*
X64056506Y-74886967D01*
X63948087Y-74885130D01*
X63869291Y-74882195D01*
X63815882Y-74877954D01*
X63783623Y-74872196D01*
X63768278Y-74864713D01*
X63765322Y-74857862D01*
X63758616Y-74836419D01*
X63732897Y-74820385D01*
X63679760Y-74806170D01*
X63617155Y-74794595D01*
X63539324Y-74765467D01*
X63450008Y-74706248D01*
X63358231Y-74623881D01*
X63281512Y-74536373D01*
X63204405Y-74437436D01*
X63197547Y-73599186D01*
X63196360Y-73410118D01*
X63195914Y-73230372D01*
X63196173Y-73065268D01*
X63197099Y-72920123D01*
X63198656Y-72800259D01*
X63200807Y-72710993D01*
X63201611Y-72695138D01*
G36*
X53438615Y-69311905D02*
G01*
X53944453Y-69311905D01*
X53944489Y-69456732D01*
X53945422Y-69566143D01*
X53947945Y-69647057D01*
X53952754Y-69706390D01*
X53960543Y-69751061D01*
X53972007Y-69787987D01*
X53987841Y-69824085D01*
X53997955Y-69844671D01*
X54055744Y-69933246D01*
X54129965Y-69993081D01*
X54227565Y-70027717D01*
X54355491Y-70040693D01*
X54383197Y-70041002D01*
X54536655Y-70041019D01*
X54540009Y-69453644D01*
X54540765Y-69298429D01*
X54541211Y-69155760D01*
X54541350Y-69031505D01*
X54541183Y-68931533D01*
X54540710Y-68861715D01*
X54539934Y-68827919D01*
X54539864Y-68826999D01*
X54515662Y-68759681D01*
X54462253Y-68693699D01*
X54391009Y-68637494D01*
X54313303Y-68599507D01*
X54240505Y-68588179D01*
X54221997Y-68591071D01*
X54135969Y-68630492D01*
X54054947Y-68698529D01*
X53993310Y-68782514D01*
X53984483Y-68800312D01*
X53970669Y-68835551D01*
X53960420Y-68876251D01*
X53953217Y-68929069D01*
X53948537Y-69000662D01*
X53945860Y-69097686D01*
X53944665Y-69226798D01*
X53944453Y-69311905D01*
X53438615Y-69311905D01*
X53439219Y-69265079D01*
X53446572Y-68777918D01*
X53509056Y-68687785D01*
X53559286Y-68625515D01*
X53626949Y-68554395D01*
X53686243Y-68499660D01*
X53800945Y-68401666D01*
X54085378Y-68393355D01*
X54369810Y-68385043D01*
X54557822Y-68581263D01*
X54557822Y-67882019D01*
X55150489Y-67882019D01*
X55150489Y-70591353D01*
X54007489Y-70591353D01*
X54007489Y-70383658D01*
X53902778Y-70369257D01*
X53789466Y-70333449D01*
X53674913Y-70258594D01*
X53563322Y-70147626D01*
X53534352Y-70111991D01*
X53505306Y-70071191D01*
X53482226Y-70028107D01*
X53464540Y-69977651D01*
X53451676Y-69914731D01*
X53443063Y-69834257D01*
X53438128Y-69731139D01*
X53436301Y-69600286D01*
X53437009Y-69436608D01*
X53438615Y-69311905D01*
G37*
X53438615Y-69311905D02*
X53944453Y-69311905D01*
X53944489Y-69456732D01*
X53945422Y-69566143D01*
X53947945Y-69647057D01*
X53952754Y-69706390D01*
X53960543Y-69751061D01*
X53972007Y-69787987D01*
X53987841Y-69824085D01*
X53997955Y-69844671D01*
X54055744Y-69933246D01*
X54129965Y-69993081D01*
X54227565Y-70027717D01*
X54355491Y-70040693D01*
X54383197Y-70041002D01*
X54536655Y-70041019D01*
X54540009Y-69453644D01*
X54540765Y-69298429D01*
X54541211Y-69155760D01*
X54541350Y-69031505D01*
X54541183Y-68931533D01*
X54540710Y-68861715D01*
X54539934Y-68827919D01*
X54539864Y-68826999D01*
X54515662Y-68759681D01*
X54462253Y-68693699D01*
X54391009Y-68637494D01*
X54313303Y-68599507D01*
X54240505Y-68588179D01*
X54221997Y-68591071D01*
X54135969Y-68630492D01*
X54054947Y-68698529D01*
X53993310Y-68782514D01*
X53984483Y-68800312D01*
X53970669Y-68835551D01*
X53960420Y-68876251D01*
X53953217Y-68929069D01*
X53948537Y-69000662D01*
X53945860Y-69097686D01*
X53944665Y-69226798D01*
X53944453Y-69311905D01*
X53438615Y-69311905D01*
X53439219Y-69265079D01*
X53446572Y-68777918D01*
X53509056Y-68687785D01*
X53559286Y-68625515D01*
X53626949Y-68554395D01*
X53686243Y-68499660D01*
X53800945Y-68401666D01*
X54085378Y-68393355D01*
X54369810Y-68385043D01*
X54557822Y-68581263D01*
X54557822Y-67882019D01*
X55150489Y-67882019D01*
X55150489Y-70591353D01*
X54007489Y-70591353D01*
X54007489Y-70383658D01*
X53902778Y-70369257D01*
X53789466Y-70333449D01*
X53674913Y-70258594D01*
X53563322Y-70147626D01*
X53534352Y-70111991D01*
X53505306Y-70071191D01*
X53482226Y-70028107D01*
X53464540Y-69977651D01*
X53451676Y-69914731D01*
X53443063Y-69834257D01*
X53438128Y-69731139D01*
X53436301Y-69600286D01*
X53437009Y-69436608D01*
X53438615Y-69311905D01*
G36*
X82359081Y-68277322D02*
G01*
X82360239Y-68142905D01*
X82422869Y-68052569D01*
X82474679Y-67987687D01*
X82542140Y-67915762D01*
X82589962Y-67870851D01*
X82633698Y-67835330D01*
X82678748Y-67806482D01*
X82729912Y-67783624D01*
X82791993Y-67766073D01*
X82869792Y-67753144D01*
X82968111Y-67744155D01*
X83091751Y-67738423D01*
X83245514Y-67735263D01*
X83434202Y-67733993D01*
X83552597Y-67733853D01*
X84148822Y-67733853D01*
X84148822Y-70464353D01*
X83534989Y-70464353D01*
X83357805Y-70464243D01*
X83218429Y-70463718D01*
X83112332Y-70462478D01*
X83034990Y-70460227D01*
X82981875Y-70456667D01*
X82948460Y-70451500D01*
X82930220Y-70444428D01*
X82922628Y-70435156D01*
X82921155Y-70424005D01*
X82912564Y-70397931D01*
X82880473Y-70381286D01*
X82816444Y-70369257D01*
X82703133Y-70333449D01*
X82588580Y-70258594D01*
X82476989Y-70147626D01*
X82448019Y-70111991D01*
X82424286Y-70079879D01*
X82404531Y-70047199D01*
X82388431Y-70009971D01*
X82375660Y-69964215D01*
X82365896Y-69905953D01*
X82358813Y-69831205D01*
X82354088Y-69735990D01*
X82351397Y-69616331D01*
X82350415Y-69468246D01*
X82350818Y-69287757D01*
X82352282Y-69070885D01*
X82352396Y-69057238D01*
X82942322Y-69057238D01*
X82942419Y-69260270D01*
X82942863Y-69425483D01*
X82943879Y-69557391D01*
X82945693Y-69660510D01*
X82948533Y-69739353D01*
X82952624Y-69798434D01*
X82958192Y-69842268D01*
X82965464Y-69875370D01*
X82974666Y-69902253D01*
X82985936Y-69927248D01*
X83051203Y-70015000D01*
X83147854Y-70078975D01*
X83270575Y-70116499D01*
X83380394Y-70125686D01*
X83513822Y-70125686D01*
X83513822Y-68009019D01*
X83372338Y-68009019D01*
X83229777Y-68022668D01*
X83117041Y-68064533D01*
X83031218Y-68135991D01*
X82994939Y-68187537D01*
X82942322Y-68277322D01*
X82942322Y-69057238D01*
X82352396Y-69057238D01*
X82353297Y-68949087D01*
X82359081Y-68277322D01*
G37*
X82359081Y-68277322D02*
X82360239Y-68142905D01*
X82422869Y-68052569D01*
X82474679Y-67987687D01*
X82542140Y-67915762D01*
X82589962Y-67870851D01*
X82633698Y-67835330D01*
X82678748Y-67806482D01*
X82729912Y-67783624D01*
X82791993Y-67766073D01*
X82869792Y-67753144D01*
X82968111Y-67744155D01*
X83091751Y-67738423D01*
X83245514Y-67735263D01*
X83434202Y-67733993D01*
X83552597Y-67733853D01*
X84148822Y-67733853D01*
X84148822Y-70464353D01*
X83534989Y-70464353D01*
X83357805Y-70464243D01*
X83218429Y-70463718D01*
X83112332Y-70462478D01*
X83034990Y-70460227D01*
X82981875Y-70456667D01*
X82948460Y-70451500D01*
X82930220Y-70444428D01*
X82922628Y-70435156D01*
X82921155Y-70424005D01*
X82912564Y-70397931D01*
X82880473Y-70381286D01*
X82816444Y-70369257D01*
X82703133Y-70333449D01*
X82588580Y-70258594D01*
X82476989Y-70147626D01*
X82448019Y-70111991D01*
X82424286Y-70079879D01*
X82404531Y-70047199D01*
X82388431Y-70009971D01*
X82375660Y-69964215D01*
X82365896Y-69905953D01*
X82358813Y-69831205D01*
X82354088Y-69735990D01*
X82351397Y-69616331D01*
X82350415Y-69468246D01*
X82350818Y-69287757D01*
X82352282Y-69070885D01*
X82352396Y-69057238D01*
X82942322Y-69057238D01*
X82942419Y-69260270D01*
X82942863Y-69425483D01*
X82943879Y-69557391D01*
X82945693Y-69660510D01*
X82948533Y-69739353D01*
X82952624Y-69798434D01*
X82958192Y-69842268D01*
X82965464Y-69875370D01*
X82974666Y-69902253D01*
X82985936Y-69927248D01*
X83051203Y-70015000D01*
X83147854Y-70078975D01*
X83270575Y-70116499D01*
X83380394Y-70125686D01*
X83513822Y-70125686D01*
X83513822Y-68009019D01*
X83372338Y-68009019D01*
X83229777Y-68022668D01*
X83117041Y-68064533D01*
X83031218Y-68135991D01*
X82994939Y-68187537D01*
X82942322Y-68277322D01*
X82942322Y-69057238D01*
X82352396Y-69057238D01*
X82353297Y-68949087D01*
X82359081Y-68277322D01*
G36*
X67829322Y-68280074D02*
G01*
X68205623Y-68287422D01*
X68581924Y-68294769D01*
X68680472Y-68375546D01*
X68753496Y-68441554D01*
X68828046Y-68518301D01*
X68859795Y-68554868D01*
X68940572Y-68653414D01*
X68947832Y-69171067D01*
X68950204Y-69363853D01*
X68950892Y-69519516D01*
X68949213Y-69643255D01*
X68944487Y-69740269D01*
X68936035Y-69815756D01*
X68923173Y-69874914D01*
X68905223Y-69922943D01*
X68881504Y-69965041D01*
X68851334Y-70006407D01*
X68835940Y-70025593D01*
X68772843Y-70095518D01*
X68703318Y-70161364D01*
X68655931Y-70199000D01*
X68613833Y-70226175D01*
X68574036Y-70244464D01*
X68526191Y-70256100D01*
X68459951Y-70263317D01*
X68364967Y-70268347D01*
X68327732Y-70269824D01*
X68167539Y-70271047D01*
X68043234Y-70260001D01*
X67949784Y-70235265D01*
X67882158Y-70195417D01*
X67835323Y-70139034D01*
X67829815Y-70129129D01*
X67788859Y-70051603D01*
X67786989Y-70273853D01*
X67194322Y-70273853D01*
X67194322Y-68622853D01*
X67848630Y-68622853D01*
X67854851Y-69222409D01*
X67861072Y-69821966D01*
X67920680Y-69911988D01*
X67978629Y-69978316D01*
X68051005Y-70031703D01*
X68125657Y-70065266D01*
X68190434Y-70072119D01*
X68199739Y-70070090D01*
X68244306Y-70051111D01*
X68302530Y-70018857D01*
X68318139Y-70009100D01*
X68362042Y-69978162D01*
X68396198Y-69944985D01*
X68421818Y-69904042D01*
X68440114Y-69849805D01*
X68452298Y-69776748D01*
X68459580Y-69679341D01*
X68463173Y-69552058D01*
X68464288Y-69389371D01*
X68464322Y-69342202D01*
X68464086Y-69188038D01*
X68463046Y-69070072D01*
X68460701Y-68982173D01*
X68456552Y-68918207D01*
X68450098Y-68872040D01*
X68440840Y-68837540D01*
X68428277Y-68808574D01*
X68419493Y-68792271D01*
X68363236Y-68716155D01*
X68290284Y-68664692D01*
X68193493Y-68634758D01*
X68065715Y-68623229D01*
X68031886Y-68622853D01*
X67848630Y-68622853D01*
X67194322Y-68622853D01*
X67194322Y-67712686D01*
X67829322Y-67712686D01*
X67829322Y-68280074D01*
G37*
X67829322Y-68280074D02*
X68205623Y-68287422D01*
X68581924Y-68294769D01*
X68680472Y-68375546D01*
X68753496Y-68441554D01*
X68828046Y-68518301D01*
X68859795Y-68554868D01*
X68940572Y-68653414D01*
X68947832Y-69171067D01*
X68950204Y-69363853D01*
X68950892Y-69519516D01*
X68949213Y-69643255D01*
X68944487Y-69740269D01*
X68936035Y-69815756D01*
X68923173Y-69874914D01*
X68905223Y-69922943D01*
X68881504Y-69965041D01*
X68851334Y-70006407D01*
X68835940Y-70025593D01*
X68772843Y-70095518D01*
X68703318Y-70161364D01*
X68655931Y-70199000D01*
X68613833Y-70226175D01*
X68574036Y-70244464D01*
X68526191Y-70256100D01*
X68459951Y-70263317D01*
X68364967Y-70268347D01*
X68327732Y-70269824D01*
X68167539Y-70271047D01*
X68043234Y-70260001D01*
X67949784Y-70235265D01*
X67882158Y-70195417D01*
X67835323Y-70139034D01*
X67829815Y-70129129D01*
X67788859Y-70051603D01*
X67786989Y-70273853D01*
X67194322Y-70273853D01*
X67194322Y-68622853D01*
X67848630Y-68622853D01*
X67854851Y-69222409D01*
X67861072Y-69821966D01*
X67920680Y-69911988D01*
X67978629Y-69978316D01*
X68051005Y-70031703D01*
X68125657Y-70065266D01*
X68190434Y-70072119D01*
X68199739Y-70070090D01*
X68244306Y-70051111D01*
X68302530Y-70018857D01*
X68318139Y-70009100D01*
X68362042Y-69978162D01*
X68396198Y-69944985D01*
X68421818Y-69904042D01*
X68440114Y-69849805D01*
X68452298Y-69776748D01*
X68459580Y-69679341D01*
X68463173Y-69552058D01*
X68464288Y-69389371D01*
X68464322Y-69342202D01*
X68464086Y-69188038D01*
X68463046Y-69070072D01*
X68460701Y-68982173D01*
X68456552Y-68918207D01*
X68450098Y-68872040D01*
X68440840Y-68837540D01*
X68428277Y-68808574D01*
X68419493Y-68792271D01*
X68363236Y-68716155D01*
X68290284Y-68664692D01*
X68193493Y-68634758D01*
X68065715Y-68623229D01*
X68031886Y-68622853D01*
X67848630Y-68622853D01*
X67194322Y-68622853D01*
X67194322Y-67712686D01*
X67829322Y-67712686D01*
X67829322Y-68280074D01*
G36*
X60293989Y-72453370D02*
G01*
X59687480Y-72458986D01*
X59080972Y-72464603D01*
X59475814Y-72727037D01*
X59870655Y-72989471D01*
X59870655Y-73296886D01*
X59547864Y-73304078D01*
X59409052Y-73308222D01*
X59304885Y-73315341D01*
X59227676Y-73328073D01*
X59169737Y-73349056D01*
X59123380Y-73380930D01*
X59080919Y-73426331D01*
X59042051Y-73477663D01*
X59017845Y-73512542D01*
X59001175Y-73544402D01*
X58990652Y-73581848D01*
X58984887Y-73633485D01*
X58982490Y-73707917D01*
X58982073Y-73813748D01*
X58982120Y-73848903D01*
X58985063Y-73998562D01*
X58994862Y-74113604D01*
X59013797Y-74201495D01*
X59044145Y-74269705D01*
X59088185Y-74325699D01*
X59141720Y-74372060D01*
X59187559Y-74403366D01*
X59233058Y-74422666D01*
X59291594Y-74433552D01*
X59376542Y-74439612D01*
X59396762Y-74440514D01*
X59529012Y-74440055D01*
X59634132Y-74425096D01*
X59677616Y-74412779D01*
X59741436Y-74388544D01*
X59778540Y-74360821D01*
X59803177Y-74315447D01*
X59818163Y-74273076D01*
X59852891Y-74168519D01*
X59999356Y-74168519D01*
X60071914Y-74170993D01*
X60124302Y-74177499D01*
X60145753Y-74186659D01*
X60145822Y-74187233D01*
X60138169Y-74213614D01*
X60117540Y-74269743D01*
X60087429Y-74346371D01*
X60063849Y-74404192D01*
X59981876Y-74602436D01*
X59762224Y-74680398D01*
X59662234Y-74714826D01*
X59584775Y-74737240D01*
X59514800Y-74750136D01*
X59437264Y-74756013D01*
X59337121Y-74757366D01*
X59299155Y-74757258D01*
X59187711Y-74754908D01*
X59078758Y-74749430D01*
X58986915Y-74741718D01*
X58939322Y-74735237D01*
X58826076Y-74695811D01*
X58711908Y-74621165D01*
X58605017Y-74517420D01*
X58546723Y-74442220D01*
X58484239Y-74352055D01*
X58484239Y-73417103D01*
X58571621Y-73290103D01*
X58655481Y-73179183D01*
X58735217Y-73101410D01*
X58820868Y-73050035D01*
X58922472Y-73018311D01*
X58994251Y-73006041D01*
X59084758Y-72994299D01*
X59168410Y-72984417D01*
X59228690Y-72978333D01*
X59233649Y-72977945D01*
X59254643Y-72974928D01*
X59263464Y-72967847D01*
X59256697Y-72953884D01*
X59230928Y-72930221D01*
X59182744Y-72894041D01*
X59108731Y-72842526D01*
X59005475Y-72772860D01*
X58899323Y-72702033D01*
X58492919Y-72431463D01*
X58505405Y-72147103D01*
X59399697Y-72141581D01*
X60293989Y-72136060D01*
X60293989Y-72453370D01*
G37*
X60293989Y-72453370D02*
X59687480Y-72458986D01*
X59080972Y-72464603D01*
X59475814Y-72727037D01*
X59870655Y-72989471D01*
X59870655Y-73296886D01*
X59547864Y-73304078D01*
X59409052Y-73308222D01*
X59304885Y-73315341D01*
X59227676Y-73328073D01*
X59169737Y-73349056D01*
X59123380Y-73380930D01*
X59080919Y-73426331D01*
X59042051Y-73477663D01*
X59017845Y-73512542D01*
X59001175Y-73544402D01*
X58990652Y-73581848D01*
X58984887Y-73633485D01*
X58982490Y-73707917D01*
X58982073Y-73813748D01*
X58982120Y-73848903D01*
X58985063Y-73998562D01*
X58994862Y-74113604D01*
X59013797Y-74201495D01*
X59044145Y-74269705D01*
X59088185Y-74325699D01*
X59141720Y-74372060D01*
X59187559Y-74403366D01*
X59233058Y-74422666D01*
X59291594Y-74433552D01*
X59376542Y-74439612D01*
X59396762Y-74440514D01*
X59529012Y-74440055D01*
X59634132Y-74425096D01*
X59677616Y-74412779D01*
X59741436Y-74388544D01*
X59778540Y-74360821D01*
X59803177Y-74315447D01*
X59818163Y-74273076D01*
X59852891Y-74168519D01*
X59999356Y-74168519D01*
X60071914Y-74170993D01*
X60124302Y-74177499D01*
X60145753Y-74186659D01*
X60145822Y-74187233D01*
X60138169Y-74213614D01*
X60117540Y-74269743D01*
X60087429Y-74346371D01*
X60063849Y-74404192D01*
X59981876Y-74602436D01*
X59762224Y-74680398D01*
X59662234Y-74714826D01*
X59584775Y-74737240D01*
X59514800Y-74750136D01*
X59437264Y-74756013D01*
X59337121Y-74757366D01*
X59299155Y-74757258D01*
X59187711Y-74754908D01*
X59078758Y-74749430D01*
X58986915Y-74741718D01*
X58939322Y-74735237D01*
X58826076Y-74695811D01*
X58711908Y-74621165D01*
X58605017Y-74517420D01*
X58546723Y-74442220D01*
X58484239Y-74352055D01*
X58484239Y-73417103D01*
X58571621Y-73290103D01*
X58655481Y-73179183D01*
X58735217Y-73101410D01*
X58820868Y-73050035D01*
X58922472Y-73018311D01*
X58994251Y-73006041D01*
X59084758Y-72994299D01*
X59168410Y-72984417D01*
X59228690Y-72978333D01*
X59233649Y-72977945D01*
X59254643Y-72974928D01*
X59263464Y-72967847D01*
X59256697Y-72953884D01*
X59230928Y-72930221D01*
X59182744Y-72894041D01*
X59108731Y-72842526D01*
X59005475Y-72772860D01*
X58899323Y-72702033D01*
X58492919Y-72431463D01*
X58505405Y-72147103D01*
X59399697Y-72141581D01*
X60293989Y-72136060D01*
X60293989Y-72453370D01*
G36*
X64051890Y-68361012D02*
G01*
X64635496Y-68361012D01*
X64635638Y-68445040D01*
X64636946Y-68486973D01*
X64641524Y-68581759D01*
X64649225Y-68646357D01*
X64663074Y-68692914D01*
X64686100Y-68733576D01*
X64704781Y-68759152D01*
X64795233Y-68845033D01*
X64910893Y-68897933D01*
X65053056Y-68918414D01*
X65072364Y-68918721D01*
X65204655Y-68919186D01*
X65204655Y-68009019D01*
X65059818Y-68009019D01*
X64919110Y-68022559D01*
X64808112Y-68064283D01*
X64723543Y-68135848D01*
X64680396Y-68200635D01*
X64655889Y-68251901D01*
X64641584Y-68300996D01*
X64635496Y-68361012D01*
X64051890Y-68361012D01*
X64051975Y-68331977D01*
X64054553Y-68255309D01*
X64060938Y-68201833D01*
X64072675Y-68161982D01*
X64091313Y-68126188D01*
X64106412Y-68102737D01*
X64230711Y-67952045D01*
X64366981Y-67842109D01*
X64450056Y-67786769D01*
X65144856Y-67779940D01*
X65839655Y-67773110D01*
X65839655Y-70485519D01*
X64611989Y-70485519D01*
X64611989Y-70434589D01*
X64607038Y-70403414D01*
X64585129Y-70385226D01*
X64535678Y-70373446D01*
X64506723Y-70369181D01*
X64389583Y-70331921D01*
X64273580Y-70252483D01*
X64158609Y-70130795D01*
X64153762Y-70124709D01*
X64110966Y-70066727D01*
X64081967Y-70013601D01*
X64064184Y-69954896D01*
X64055032Y-69880173D01*
X64051931Y-69778999D01*
X64051849Y-69712936D01*
X64053209Y-69619819D01*
X64655962Y-69619819D01*
X64669237Y-69770707D01*
X64713266Y-69892654D01*
X64787497Y-69985091D01*
X64891380Y-70047446D01*
X65024365Y-70079151D01*
X65104114Y-70083336D01*
X65246989Y-70083353D01*
X65246989Y-69215519D01*
X65082947Y-69216670D01*
X64963407Y-69223884D01*
X64861654Y-69242233D01*
X64825459Y-69253712D01*
X64767235Y-69280503D01*
X64731489Y-69313875D01*
X64704611Y-69368589D01*
X64694808Y-69395436D01*
X64672283Y-69482152D01*
X64658151Y-69579635D01*
X64655962Y-69619819D01*
X64053209Y-69619819D01*
X64053324Y-69611965D01*
X64058482Y-69540630D01*
X64069748Y-69486252D01*
X64089545Y-69436152D01*
X64113625Y-69389771D01*
X64194054Y-69274200D01*
X64291716Y-69184626D01*
X64398706Y-69127408D01*
X64459029Y-69111976D01*
X64559072Y-69096751D01*
X64453239Y-69064639D01*
X64313524Y-69008332D01*
X64206845Y-68932247D01*
X64126577Y-68831420D01*
X64114769Y-68810891D01*
X64088168Y-68759997D01*
X64070389Y-68715519D01*
X64059635Y-68666942D01*
X64054111Y-68603750D01*
X64052020Y-68515430D01*
X64051656Y-68441404D01*
X64051890Y-68361012D01*
G37*
X64051890Y-68361012D02*
X64635496Y-68361012D01*
X64635638Y-68445040D01*
X64636946Y-68486973D01*
X64641524Y-68581759D01*
X64649225Y-68646357D01*
X64663074Y-68692914D01*
X64686100Y-68733576D01*
X64704781Y-68759152D01*
X64795233Y-68845033D01*
X64910893Y-68897933D01*
X65053056Y-68918414D01*
X65072364Y-68918721D01*
X65204655Y-68919186D01*
X65204655Y-68009019D01*
X65059818Y-68009019D01*
X64919110Y-68022559D01*
X64808112Y-68064283D01*
X64723543Y-68135848D01*
X64680396Y-68200635D01*
X64655889Y-68251901D01*
X64641584Y-68300996D01*
X64635496Y-68361012D01*
X64051890Y-68361012D01*
X64051975Y-68331977D01*
X64054553Y-68255309D01*
X64060938Y-68201833D01*
X64072675Y-68161982D01*
X64091313Y-68126188D01*
X64106412Y-68102737D01*
X64230711Y-67952045D01*
X64366981Y-67842109D01*
X64450056Y-67786769D01*
X65144856Y-67779940D01*
X65839655Y-67773110D01*
X65839655Y-70485519D01*
X64611989Y-70485519D01*
X64611989Y-70434589D01*
X64607038Y-70403414D01*
X64585129Y-70385226D01*
X64535678Y-70373446D01*
X64506723Y-70369181D01*
X64389583Y-70331921D01*
X64273580Y-70252483D01*
X64158609Y-70130795D01*
X64153762Y-70124709D01*
X64110966Y-70066727D01*
X64081967Y-70013601D01*
X64064184Y-69954896D01*
X64055032Y-69880173D01*
X64051931Y-69778999D01*
X64051849Y-69712936D01*
X64053209Y-69619819D01*
X64655962Y-69619819D01*
X64669237Y-69770707D01*
X64713266Y-69892654D01*
X64787497Y-69985091D01*
X64891380Y-70047446D01*
X65024365Y-70079151D01*
X65104114Y-70083336D01*
X65246989Y-70083353D01*
X65246989Y-69215519D01*
X65082947Y-69216670D01*
X64963407Y-69223884D01*
X64861654Y-69242233D01*
X64825459Y-69253712D01*
X64767235Y-69280503D01*
X64731489Y-69313875D01*
X64704611Y-69368589D01*
X64694808Y-69395436D01*
X64672283Y-69482152D01*
X64658151Y-69579635D01*
X64655962Y-69619819D01*
X64053209Y-69619819D01*
X64053324Y-69611965D01*
X64058482Y-69540630D01*
X64069748Y-69486252D01*
X64089545Y-69436152D01*
X64113625Y-69389771D01*
X64194054Y-69274200D01*
X64291716Y-69184626D01*
X64398706Y-69127408D01*
X64459029Y-69111976D01*
X64559072Y-69096751D01*
X64453239Y-69064639D01*
X64313524Y-69008332D01*
X64206845Y-68932247D01*
X64126577Y-68831420D01*
X64114769Y-68810891D01*
X64088168Y-68759997D01*
X64070389Y-68715519D01*
X64059635Y-68666942D01*
X64054111Y-68603750D01*
X64052020Y-68515430D01*
X64051656Y-68441404D01*
X64051890Y-68361012D01*
G36*
X44251873Y-68316141D02*
G01*
X44355915Y-68327908D01*
X44424445Y-68345170D01*
X44465482Y-68370346D01*
X44524829Y-68417972D01*
X44592051Y-68479423D01*
X44618218Y-68505344D01*
X44683167Y-68572824D01*
X44724783Y-68623373D01*
X44750102Y-68669557D01*
X44766157Y-68723940D01*
X44778834Y-68792260D01*
X44786361Y-68860598D01*
X44791760Y-68958422D01*
X44795130Y-69078305D01*
X44796567Y-69212819D01*
X44796167Y-69354538D01*
X44794029Y-69496034D01*
X44790249Y-69629880D01*
X44784925Y-69748648D01*
X44778152Y-69844912D01*
X44770029Y-69911244D01*
X44763904Y-69935186D01*
X44726641Y-69996984D01*
X44665954Y-70072220D01*
X44592510Y-70149237D01*
X44516977Y-70216375D01*
X44484144Y-70240955D01*
X44443946Y-70266945D01*
X44405816Y-70284513D01*
X44359826Y-70295653D01*
X44296050Y-70302364D01*
X44204558Y-70306643D01*
X44148885Y-70308390D01*
X44039137Y-70310853D01*
X43957992Y-70309420D01*
X43891764Y-70302181D01*
X43826770Y-70287226D01*
X43749325Y-70262647D01*
X43700942Y-70245902D01*
X43501478Y-70176118D01*
X43431212Y-69986860D01*
X43400829Y-69903495D01*
X43377025Y-69835269D01*
X43363080Y-69791742D01*
X43360801Y-69781728D01*
X43380099Y-69773895D01*
X43431013Y-69768224D01*
X43502839Y-69765864D01*
X43508465Y-69765853D01*
X43656275Y-69765853D01*
X43709321Y-69870532D01*
X43745308Y-69933857D01*
X43782363Y-69971765D01*
X43836623Y-69997890D01*
X43875373Y-70010835D01*
X43942576Y-70030363D01*
X43987326Y-70035713D01*
X44027115Y-70026720D01*
X44067296Y-70009009D01*
X44132415Y-69966570D01*
X44193071Y-69909273D01*
X44203225Y-69896813D01*
X44260239Y-69822064D01*
X44260239Y-69312417D01*
X44260100Y-69152307D01*
X44259372Y-69028869D01*
X44257585Y-68936440D01*
X44254270Y-68869360D01*
X44248958Y-68821967D01*
X44241181Y-68788598D01*
X44230468Y-68763592D01*
X44216351Y-68741288D01*
X44212466Y-68735794D01*
X44163309Y-68685182D01*
X44096286Y-68637233D01*
X44069820Y-68622892D01*
X44012085Y-68596866D01*
X43969980Y-68587896D01*
X43923918Y-68594961D01*
X43868277Y-68612395D01*
X43801364Y-68638976D01*
X43758045Y-68672301D01*
X43722093Y-68726561D01*
X43708941Y-68751755D01*
X43656275Y-68855686D01*
X43508465Y-68855686D01*
X43435695Y-68853608D01*
X43383208Y-68848139D01*
X43361634Y-68840430D01*
X43361558Y-68839811D01*
X43369378Y-68814877D01*
X43389912Y-68759295D01*
X43419920Y-68681626D01*
X43451516Y-68601998D01*
X43540572Y-68380061D01*
X43741655Y-68341481D01*
X43861221Y-68324165D01*
X43993478Y-68314209D01*
X44127378Y-68311555D01*
X44251873Y-68316141D01*
G37*
X44251873Y-68316141D02*
X44355915Y-68327908D01*
X44424445Y-68345170D01*
X44465482Y-68370346D01*
X44524829Y-68417972D01*
X44592051Y-68479423D01*
X44618218Y-68505344D01*
X44683167Y-68572824D01*
X44724783Y-68623373D01*
X44750102Y-68669557D01*
X44766157Y-68723940D01*
X44778834Y-68792260D01*
X44786361Y-68860598D01*
X44791760Y-68958422D01*
X44795130Y-69078305D01*
X44796567Y-69212819D01*
X44796167Y-69354538D01*
X44794029Y-69496034D01*
X44790249Y-69629880D01*
X44784925Y-69748648D01*
X44778152Y-69844912D01*
X44770029Y-69911244D01*
X44763904Y-69935186D01*
X44726641Y-69996984D01*
X44665954Y-70072220D01*
X44592510Y-70149237D01*
X44516977Y-70216375D01*
X44484144Y-70240955D01*
X44443946Y-70266945D01*
X44405816Y-70284513D01*
X44359826Y-70295653D01*
X44296050Y-70302364D01*
X44204558Y-70306643D01*
X44148885Y-70308390D01*
X44039137Y-70310853D01*
X43957992Y-70309420D01*
X43891764Y-70302181D01*
X43826770Y-70287226D01*
X43749325Y-70262647D01*
X43700942Y-70245902D01*
X43501478Y-70176118D01*
X43431212Y-69986860D01*
X43400829Y-69903495D01*
X43377025Y-69835269D01*
X43363080Y-69791742D01*
X43360801Y-69781728D01*
X43380099Y-69773895D01*
X43431013Y-69768224D01*
X43502839Y-69765864D01*
X43508465Y-69765853D01*
X43656275Y-69765853D01*
X43709321Y-69870532D01*
X43745308Y-69933857D01*
X43782363Y-69971765D01*
X43836623Y-69997890D01*
X43875373Y-70010835D01*
X43942576Y-70030363D01*
X43987326Y-70035713D01*
X44027115Y-70026720D01*
X44067296Y-70009009D01*
X44132415Y-69966570D01*
X44193071Y-69909273D01*
X44203225Y-69896813D01*
X44260239Y-69822064D01*
X44260239Y-69312417D01*
X44260100Y-69152307D01*
X44259372Y-69028869D01*
X44257585Y-68936440D01*
X44254270Y-68869360D01*
X44248958Y-68821967D01*
X44241181Y-68788598D01*
X44230468Y-68763592D01*
X44216351Y-68741288D01*
X44212466Y-68735794D01*
X44163309Y-68685182D01*
X44096286Y-68637233D01*
X44069820Y-68622892D01*
X44012085Y-68596866D01*
X43969980Y-68587896D01*
X43923918Y-68594961D01*
X43868277Y-68612395D01*
X43801364Y-68638976D01*
X43758045Y-68672301D01*
X43722093Y-68726561D01*
X43708941Y-68751755D01*
X43656275Y-68855686D01*
X43508465Y-68855686D01*
X43435695Y-68853608D01*
X43383208Y-68848139D01*
X43361634Y-68840430D01*
X43361558Y-68839811D01*
X43369378Y-68814877D01*
X43389912Y-68759295D01*
X43419920Y-68681626D01*
X43451516Y-68601998D01*
X43540572Y-68380061D01*
X43741655Y-68341481D01*
X43861221Y-68324165D01*
X43993478Y-68314209D01*
X44127378Y-68311555D01*
X44251873Y-68316141D01*
G36*
X45351080Y-69036867D02*
G01*
X45353813Y-68957902D01*
X45359206Y-68908997D01*
X45367945Y-68884024D01*
X45380714Y-68876857D01*
X45381113Y-68876853D01*
X45406463Y-68857000D01*
X45424414Y-68802453D01*
X45425294Y-68797478D01*
X45438660Y-68727583D01*
X45455437Y-68674680D01*
X45482191Y-68627659D01*
X45525488Y-68575416D01*
X45591893Y-68506843D01*
X45604672Y-68494043D01*
X45687437Y-68415930D01*
X45752712Y-68366106D01*
X45808356Y-68338953D01*
X45829784Y-68333160D01*
X45883885Y-68326640D01*
X45970777Y-68321707D01*
X46081068Y-68318372D01*
X46205363Y-68316641D01*
X46334270Y-68316524D01*
X46458396Y-68318031D01*
X46568348Y-68321169D01*
X46654732Y-68325948D01*
X46707964Y-68332336D01*
X46796604Y-68368332D01*
X46893667Y-68437480D01*
X46991460Y-68533786D01*
X47037216Y-68588946D01*
X47117739Y-68692622D01*
X47117739Y-69287446D01*
X47117189Y-69444725D01*
X47115638Y-69590446D01*
X47113231Y-69718567D01*
X47110116Y-69823047D01*
X47106439Y-69897847D01*
X47102346Y-69936924D01*
X47101944Y-69938549D01*
X47077567Y-69983626D01*
X47029307Y-70045691D01*
X46966332Y-70115277D01*
X46897810Y-70182919D01*
X46832908Y-70239149D01*
X46780794Y-70274502D01*
X46773176Y-70278043D01*
X46732162Y-70286646D01*
X46656415Y-70294610D01*
X46553535Y-70301393D01*
X46431122Y-70306453D01*
X46345155Y-70308553D01*
X45974739Y-70315211D01*
X45551405Y-70167927D01*
X45506682Y-70056848D01*
X45470645Y-69967437D01*
X45431705Y-69870955D01*
X45417032Y-69834644D01*
X45372106Y-69723519D01*
X45681257Y-69723519D01*
X45716435Y-69835115D01*
X45737767Y-69897349D01*
X45760360Y-69934285D01*
X45796568Y-69957481D01*
X45858743Y-69978494D01*
X45874806Y-69983281D01*
X46039212Y-70016433D01*
X46186280Y-70014958D01*
X46313016Y-69980712D01*
X46416427Y-69915549D01*
X46493520Y-69821325D01*
X46541303Y-69699893D01*
X46556822Y-69560613D01*
X46556822Y-69427186D01*
X45350322Y-69427186D01*
X45350322Y-69152019D01*
X45964155Y-69152019D01*
X46514489Y-69152019D01*
X46514489Y-69014436D01*
X46516608Y-68937263D01*
X46524182Y-68894370D01*
X46539033Y-68877860D01*
X46546239Y-68876853D01*
X46569918Y-68872998D01*
X46574673Y-68856264D01*
X46559129Y-68818899D01*
X46525371Y-68759037D01*
X46470393Y-68690366D01*
X46398712Y-68634455D01*
X46322291Y-68598179D01*
X46253091Y-68588410D01*
X46234606Y-68591950D01*
X46129992Y-68644788D01*
X46048189Y-68729956D01*
X45992508Y-68842208D01*
X45966260Y-68976299D01*
X45964620Y-69019728D01*
X45964155Y-69152019D01*
X45350322Y-69152019D01*
X45351080Y-69036867D01*
G37*
X45351080Y-69036867D02*
X45353813Y-68957902D01*
X45359206Y-68908997D01*
X45367945Y-68884024D01*
X45380714Y-68876857D01*
X45381113Y-68876853D01*
X45406463Y-68857000D01*
X45424414Y-68802453D01*
X45425294Y-68797478D01*
X45438660Y-68727583D01*
X45455437Y-68674680D01*
X45482191Y-68627659D01*
X45525488Y-68575416D01*
X45591893Y-68506843D01*
X45604672Y-68494043D01*
X45687437Y-68415930D01*
X45752712Y-68366106D01*
X45808356Y-68338953D01*
X45829784Y-68333160D01*
X45883885Y-68326640D01*
X45970777Y-68321707D01*
X46081068Y-68318372D01*
X46205363Y-68316641D01*
X46334270Y-68316524D01*
X46458396Y-68318031D01*
X46568348Y-68321169D01*
X46654732Y-68325948D01*
X46707964Y-68332336D01*
X46796604Y-68368332D01*
X46893667Y-68437480D01*
X46991460Y-68533786D01*
X47037216Y-68588946D01*
X47117739Y-68692622D01*
X47117739Y-69287446D01*
X47117189Y-69444725D01*
X47115638Y-69590446D01*
X47113231Y-69718567D01*
X47110116Y-69823047D01*
X47106439Y-69897847D01*
X47102346Y-69936924D01*
X47101944Y-69938549D01*
X47077567Y-69983626D01*
X47029307Y-70045691D01*
X46966332Y-70115277D01*
X46897810Y-70182919D01*
X46832908Y-70239149D01*
X46780794Y-70274502D01*
X46773176Y-70278043D01*
X46732162Y-70286646D01*
X46656415Y-70294610D01*
X46553535Y-70301393D01*
X46431122Y-70306453D01*
X46345155Y-70308553D01*
X45974739Y-70315211D01*
X45551405Y-70167927D01*
X45506682Y-70056848D01*
X45470645Y-69967437D01*
X45431705Y-69870955D01*
X45417032Y-69834644D01*
X45372106Y-69723519D01*
X45681257Y-69723519D01*
X45716435Y-69835115D01*
X45737767Y-69897349D01*
X45760360Y-69934285D01*
X45796568Y-69957481D01*
X45858743Y-69978494D01*
X45874806Y-69983281D01*
X46039212Y-70016433D01*
X46186280Y-70014958D01*
X46313016Y-69980712D01*
X46416427Y-69915549D01*
X46493520Y-69821325D01*
X46541303Y-69699893D01*
X46556822Y-69560613D01*
X46556822Y-69427186D01*
X45350322Y-69427186D01*
X45350322Y-69152019D01*
X45964155Y-69152019D01*
X46514489Y-69152019D01*
X46514489Y-69014436D01*
X46516608Y-68937263D01*
X46524182Y-68894370D01*
X46539033Y-68877860D01*
X46546239Y-68876853D01*
X46569918Y-68872998D01*
X46574673Y-68856264D01*
X46559129Y-68818899D01*
X46525371Y-68759037D01*
X46470393Y-68690366D01*
X46398712Y-68634455D01*
X46322291Y-68598179D01*
X46253091Y-68588410D01*
X46234606Y-68591950D01*
X46129992Y-68644788D01*
X46048189Y-68729956D01*
X45992508Y-68842208D01*
X45966260Y-68976299D01*
X45964620Y-69019728D01*
X45964155Y-69152019D01*
X45350322Y-69152019D01*
X45351080Y-69036867D01*
G36*
X79894729Y-69039533D02*
G01*
X79896607Y-68962659D01*
X79900942Y-68914678D01*
X79908718Y-68888872D01*
X79920920Y-68878521D01*
X79934669Y-68876853D01*
X79961104Y-68868006D01*
X79977810Y-68835120D01*
X79988985Y-68775284D01*
X80019926Y-68677812D01*
X80081239Y-68576132D01*
X80163625Y-68480282D01*
X80257787Y-68400299D01*
X80354427Y-68346223D01*
X80399260Y-68332352D01*
X80452922Y-68325928D01*
X80539490Y-68321154D01*
X80649571Y-68318022D01*
X80773770Y-68316522D01*
X80902694Y-68316646D01*
X81026947Y-68318385D01*
X81137136Y-68321730D01*
X81223867Y-68326674D01*
X81277526Y-68333160D01*
X81343451Y-68361736D01*
X81421518Y-68417139D01*
X81502192Y-68489834D01*
X81575938Y-68570284D01*
X81633220Y-68648956D01*
X81664504Y-68716313D01*
X81665681Y-68721315D01*
X81670369Y-68764399D01*
X81674572Y-68843119D01*
X81678108Y-68950782D01*
X81680793Y-69080692D01*
X81682447Y-69226155D01*
X81682905Y-69354684D01*
X81682905Y-69906599D01*
X81627565Y-69989684D01*
X81503151Y-70140440D01*
X81367054Y-70250194D01*
X81336031Y-70269864D01*
X81306108Y-70284308D01*
X81270239Y-70294438D01*
X81221376Y-70301163D01*
X81152473Y-70305393D01*
X81056484Y-70308039D01*
X80926360Y-70310009D01*
X80901388Y-70310329D01*
X80518739Y-70315193D01*
X80317655Y-70245169D01*
X80116572Y-70175145D01*
X80027100Y-69965207D01*
X79990514Y-69877986D01*
X79961062Y-69805162D01*
X79942226Y-69755510D01*
X79937142Y-69738467D01*
X79956254Y-69731074D01*
X80007103Y-69727186D01*
X80079183Y-69727538D01*
X80088357Y-69727884D01*
X80240059Y-69734103D01*
X80274935Y-69838567D01*
X80299480Y-69902189D01*
X80328250Y-69939613D01*
X80375669Y-69965455D01*
X80414274Y-69979801D01*
X80560523Y-70014580D01*
X80703419Y-70017605D01*
X80835305Y-69990418D01*
X80948525Y-69934559D01*
X81032606Y-69855317D01*
X81062280Y-69811073D01*
X81080681Y-69765153D01*
X81091180Y-69704509D01*
X81097150Y-69616096D01*
X81097702Y-69603483D01*
X81105166Y-69427186D01*
X79894322Y-69427186D01*
X79894322Y-69152019D01*
X80524978Y-69152019D01*
X81079655Y-69152019D01*
X81079655Y-69016200D01*
X81083941Y-68928083D01*
X81096685Y-68880087D01*
X81106114Y-68871450D01*
X81118034Y-68849129D01*
X81106385Y-68806164D01*
X81076660Y-68752689D01*
X81034355Y-68698840D01*
X80991042Y-68659163D01*
X80914208Y-68609352D01*
X80850161Y-68590276D01*
X80784924Y-68599871D01*
X80733854Y-68621183D01*
X80646917Y-68673652D01*
X80588140Y-68737540D01*
X80552523Y-68821696D01*
X80535065Y-68934971D01*
X80532557Y-68977394D01*
X80524978Y-69152019D01*
X79894322Y-69152019D01*
X79894729Y-69039533D01*
G37*
X79894729Y-69039533D02*
X79896607Y-68962659D01*
X79900942Y-68914678D01*
X79908718Y-68888872D01*
X79920920Y-68878521D01*
X79934669Y-68876853D01*
X79961104Y-68868006D01*
X79977810Y-68835120D01*
X79988985Y-68775284D01*
X80019926Y-68677812D01*
X80081239Y-68576132D01*
X80163625Y-68480282D01*
X80257787Y-68400299D01*
X80354427Y-68346223D01*
X80399260Y-68332352D01*
X80452922Y-68325928D01*
X80539490Y-68321154D01*
X80649571Y-68318022D01*
X80773770Y-68316522D01*
X80902694Y-68316646D01*
X81026947Y-68318385D01*
X81137136Y-68321730D01*
X81223867Y-68326674D01*
X81277526Y-68333160D01*
X81343451Y-68361736D01*
X81421518Y-68417139D01*
X81502192Y-68489834D01*
X81575938Y-68570284D01*
X81633220Y-68648956D01*
X81664504Y-68716313D01*
X81665681Y-68721315D01*
X81670369Y-68764399D01*
X81674572Y-68843119D01*
X81678108Y-68950782D01*
X81680793Y-69080692D01*
X81682447Y-69226155D01*
X81682905Y-69354684D01*
X81682905Y-69906599D01*
X81627565Y-69989684D01*
X81503151Y-70140440D01*
X81367054Y-70250194D01*
X81336031Y-70269864D01*
X81306108Y-70284308D01*
X81270239Y-70294438D01*
X81221376Y-70301163D01*
X81152473Y-70305393D01*
X81056484Y-70308039D01*
X80926360Y-70310009D01*
X80901388Y-70310329D01*
X80518739Y-70315193D01*
X80317655Y-70245169D01*
X80116572Y-70175145D01*
X80027100Y-69965207D01*
X79990514Y-69877986D01*
X79961062Y-69805162D01*
X79942226Y-69755510D01*
X79937142Y-69738467D01*
X79956254Y-69731074D01*
X80007103Y-69727186D01*
X80079183Y-69727538D01*
X80088357Y-69727884D01*
X80240059Y-69734103D01*
X80274935Y-69838567D01*
X80299480Y-69902189D01*
X80328250Y-69939613D01*
X80375669Y-69965455D01*
X80414274Y-69979801D01*
X80560523Y-70014580D01*
X80703419Y-70017605D01*
X80835305Y-69990418D01*
X80948525Y-69934559D01*
X81032606Y-69855317D01*
X81062280Y-69811073D01*
X81080681Y-69765153D01*
X81091180Y-69704509D01*
X81097150Y-69616096D01*
X81097702Y-69603483D01*
X81105166Y-69427186D01*
X79894322Y-69427186D01*
X79894322Y-69152019D01*
X80524978Y-69152019D01*
X81079655Y-69152019D01*
X81079655Y-69016200D01*
X81083941Y-68928083D01*
X81096685Y-68880087D01*
X81106114Y-68871450D01*
X81118034Y-68849129D01*
X81106385Y-68806164D01*
X81076660Y-68752689D01*
X81034355Y-68698840D01*
X80991042Y-68659163D01*
X80914208Y-68609352D01*
X80850161Y-68590276D01*
X80784924Y-68599871D01*
X80733854Y-68621183D01*
X80646917Y-68673652D01*
X80588140Y-68737540D01*
X80552523Y-68821696D01*
X80535065Y-68934971D01*
X80532557Y-68977394D01*
X80524978Y-69152019D01*
X79894322Y-69152019D01*
X79894729Y-69039533D01*
G36*
X78663933Y-68308289D02*
G01*
X78717860Y-68311027D01*
X78814143Y-68319714D01*
X78902797Y-68332851D01*
X78969228Y-68348100D01*
X78985503Y-68353917D01*
X79071405Y-68405841D01*
X79165036Y-68488194D01*
X79257123Y-68592636D01*
X79270920Y-68610609D01*
X79298616Y-68649512D01*
X79316625Y-68684833D01*
X79327028Y-68726924D01*
X79331904Y-68786140D01*
X79333333Y-68872833D01*
X79333405Y-68921699D01*
X79333405Y-69149783D01*
X79249057Y-69236262D01*
X79202096Y-69277555D01*
X79127530Y-69335087D01*
X79033712Y-69402760D01*
X78928996Y-69474476D01*
X78866325Y-69515671D01*
X78723721Y-69610741D01*
X78616337Y-69689899D01*
X78541677Y-69756456D01*
X78497244Y-69813725D01*
X78480542Y-69865018D01*
X78489075Y-69913646D01*
X78520347Y-69962921D01*
X78525026Y-69968474D01*
X78589910Y-70014066D01*
X78679813Y-70037222D01*
X78783041Y-70036580D01*
X78887897Y-70010779D01*
X78888005Y-70010738D01*
X78946330Y-69984158D01*
X78981444Y-69951351D01*
X79007005Y-69897383D01*
X79016324Y-69870425D01*
X79051057Y-69765853D01*
X79197523Y-69765853D01*
X79270086Y-69767808D01*
X79322474Y-69772949D01*
X79343921Y-69780189D01*
X79343989Y-69780641D01*
X79337768Y-69805783D01*
X79320981Y-69861904D01*
X79296438Y-69939817D01*
X79276079Y-70002610D01*
X79208170Y-70209791D01*
X78984998Y-70284155D01*
X78802503Y-70334674D01*
X78636874Y-70356759D01*
X78474678Y-70351542D01*
X78372867Y-70335668D01*
X78301493Y-70315977D01*
X78238899Y-70289585D01*
X78226512Y-70282303D01*
X78164933Y-70233900D01*
X78096116Y-70167742D01*
X78030760Y-70095478D01*
X77979564Y-70028760D01*
X77956359Y-69988103D01*
X77926248Y-69881390D01*
X77912153Y-69756236D01*
X77915684Y-69634009D01*
X77925375Y-69577213D01*
X77943556Y-69521011D01*
X77972602Y-69468574D01*
X78017075Y-69415722D01*
X78081535Y-69358271D01*
X78170544Y-69292039D01*
X78288662Y-69212846D01*
X78400679Y-69141436D01*
X78546306Y-69045688D01*
X78655216Y-68964129D01*
X78729698Y-68894489D01*
X78772038Y-68834500D01*
X78784523Y-68781893D01*
X78781902Y-68763312D01*
X78749631Y-68696390D01*
X78689583Y-68653081D01*
X78596862Y-68630318D01*
X78564639Y-68627227D01*
X78444956Y-68628791D01*
X78354089Y-68655735D01*
X78284472Y-68711792D01*
X78233529Y-68790627D01*
X78179109Y-68898019D01*
X78031299Y-68898019D01*
X77958371Y-68895494D01*
X77905564Y-68888849D01*
X77883595Y-68879482D01*
X77883489Y-68878750D01*
X77890746Y-68852301D01*
X77910430Y-68795262D01*
X77939410Y-68716413D01*
X77969552Y-68637410D01*
X78055615Y-68415339D01*
X78289284Y-68357369D01*
X78404262Y-68330485D01*
X78494545Y-68314478D01*
X78575860Y-68307646D01*
X78663933Y-68308289D01*
G37*
X78663933Y-68308289D02*
X78717860Y-68311027D01*
X78814143Y-68319714D01*
X78902797Y-68332851D01*
X78969228Y-68348100D01*
X78985503Y-68353917D01*
X79071405Y-68405841D01*
X79165036Y-68488194D01*
X79257123Y-68592636D01*
X79270920Y-68610609D01*
X79298616Y-68649512D01*
X79316625Y-68684833D01*
X79327028Y-68726924D01*
X79331904Y-68786140D01*
X79333333Y-68872833D01*
X79333405Y-68921699D01*
X79333405Y-69149783D01*
X79249057Y-69236262D01*
X79202096Y-69277555D01*
X79127530Y-69335087D01*
X79033712Y-69402760D01*
X78928996Y-69474476D01*
X78866325Y-69515671D01*
X78723721Y-69610741D01*
X78616337Y-69689899D01*
X78541677Y-69756456D01*
X78497244Y-69813725D01*
X78480542Y-69865018D01*
X78489075Y-69913646D01*
X78520347Y-69962921D01*
X78525026Y-69968474D01*
X78589910Y-70014066D01*
X78679813Y-70037222D01*
X78783041Y-70036580D01*
X78887897Y-70010779D01*
X78888005Y-70010738D01*
X78946330Y-69984158D01*
X78981444Y-69951351D01*
X79007005Y-69897383D01*
X79016324Y-69870425D01*
X79051057Y-69765853D01*
X79197523Y-69765853D01*
X79270086Y-69767808D01*
X79322474Y-69772949D01*
X79343921Y-69780189D01*
X79343989Y-69780641D01*
X79337768Y-69805783D01*
X79320981Y-69861904D01*
X79296438Y-69939817D01*
X79276079Y-70002610D01*
X79208170Y-70209791D01*
X78984998Y-70284155D01*
X78802503Y-70334674D01*
X78636874Y-70356759D01*
X78474678Y-70351542D01*
X78372867Y-70335668D01*
X78301493Y-70315977D01*
X78238899Y-70289585D01*
X78226512Y-70282303D01*
X78164933Y-70233900D01*
X78096116Y-70167742D01*
X78030760Y-70095478D01*
X77979564Y-70028760D01*
X77956359Y-69988103D01*
X77926248Y-69881390D01*
X77912153Y-69756236D01*
X77915684Y-69634009D01*
X77925375Y-69577213D01*
X77943556Y-69521011D01*
X77972602Y-69468574D01*
X78017075Y-69415722D01*
X78081535Y-69358271D01*
X78170544Y-69292039D01*
X78288662Y-69212846D01*
X78400679Y-69141436D01*
X78546306Y-69045688D01*
X78655216Y-68964129D01*
X78729698Y-68894489D01*
X78772038Y-68834500D01*
X78784523Y-68781893D01*
X78781902Y-68763312D01*
X78749631Y-68696390D01*
X78689583Y-68653081D01*
X78596862Y-68630318D01*
X78564639Y-68627227D01*
X78444956Y-68628791D01*
X78354089Y-68655735D01*
X78284472Y-68711792D01*
X78233529Y-68790627D01*
X78179109Y-68898019D01*
X78031299Y-68898019D01*
X77958371Y-68895494D01*
X77905564Y-68888849D01*
X77883595Y-68879482D01*
X77883489Y-68878750D01*
X77890746Y-68852301D01*
X77910430Y-68795262D01*
X77939410Y-68716413D01*
X77969552Y-68637410D01*
X78055615Y-68415339D01*
X78289284Y-68357369D01*
X78404262Y-68330485D01*
X78494545Y-68314478D01*
X78575860Y-68307646D01*
X78663933Y-68308289D01*
G36*
X69612131Y-69104394D02*
G01*
X69617094Y-68969182D01*
X69624150Y-68851026D01*
X69632706Y-68757146D01*
X69642173Y-68694756D01*
X69647085Y-68677569D01*
X69682748Y-68619115D01*
X69742327Y-68549205D01*
X69816023Y-68476748D01*
X69894034Y-68410653D01*
X69966560Y-68359829D01*
X70023801Y-68333188D01*
X70026629Y-68332533D01*
X70088344Y-68324546D01*
X70180377Y-68319053D01*
X70293955Y-68315946D01*
X70420302Y-68315115D01*
X70550646Y-68316449D01*
X70676211Y-68319840D01*
X70788223Y-68325177D01*
X70877909Y-68332353D01*
X70936493Y-68341256D01*
X70946036Y-68344010D01*
X71011281Y-68379591D01*
X71088031Y-68439776D01*
X71166103Y-68514309D01*
X71235314Y-68592935D01*
X71285480Y-68665399D01*
X71302697Y-68703192D01*
X71313434Y-68759610D01*
X71322510Y-68850179D01*
X71329781Y-68966744D01*
X71335105Y-69101149D01*
X71338339Y-69245238D01*
X71339341Y-69390858D01*
X71337968Y-69529852D01*
X71334077Y-69654065D01*
X71327526Y-69755343D01*
X71321947Y-69803844D01*
X71295988Y-69979419D01*
X71160903Y-70116514D01*
X71093456Y-70181145D01*
X71029803Y-70235554D01*
X70980423Y-70271009D01*
X70967445Y-70277751D01*
X70925552Y-70286627D01*
X70848635Y-70294751D01*
X70744002Y-70301598D01*
X70618964Y-70306644D01*
X70538655Y-70308561D01*
X70168239Y-70315229D01*
X69973337Y-70246916D01*
X69887598Y-70215474D01*
X69816645Y-70186869D01*
X69770314Y-70165201D01*
X69758610Y-70157436D01*
X69742114Y-70128139D01*
X69717075Y-70070602D01*
X69688602Y-69996658D01*
X69685505Y-69988103D01*
X69657356Y-69910327D01*
X69633280Y-69844708D01*
X69618173Y-69804577D01*
X69617509Y-69802894D01*
X69614081Y-69783938D01*
X69627699Y-69772803D01*
X69666163Y-69767464D01*
X69737271Y-69765893D01*
X69760091Y-69765853D01*
X69917389Y-69765853D01*
X69948536Y-69866394D01*
X69975305Y-69931676D01*
X70013342Y-69977703D01*
X70069964Y-70008053D01*
X70152489Y-70026299D01*
X70268235Y-70036016D01*
X70298465Y-70037347D01*
X70430138Y-70036930D01*
X70530279Y-70021723D01*
X70608066Y-69988544D01*
X70672677Y-69934214D01*
X70703892Y-69896838D01*
X70733295Y-69852826D01*
X70751540Y-69806738D01*
X70761965Y-69745573D01*
X70767911Y-69656331D01*
X70768369Y-69645817D01*
X70775833Y-69469519D01*
X69602520Y-69469519D01*
X69610877Y-69152019D01*
X70157655Y-69152019D01*
X70707989Y-69152019D01*
X70707989Y-69014436D01*
X70709944Y-68937973D01*
X70717148Y-68895396D01*
X70731607Y-68878385D01*
X70741165Y-68876853D01*
X70763766Y-68866248D01*
X70759555Y-68829228D01*
X70718333Y-68746691D01*
X70654319Y-68674421D01*
X70577640Y-68619864D01*
X70498424Y-68590468D01*
X70435664Y-68591071D01*
X70333037Y-68637419D01*
X70250765Y-68717023D01*
X70192502Y-68824237D01*
X70161904Y-68953415D01*
X70158120Y-69019728D01*
X70157655Y-69152019D01*
X69610877Y-69152019D01*
X69612131Y-69104394D01*
G37*
X69612131Y-69104394D02*
X69617094Y-68969182D01*
X69624150Y-68851026D01*
X69632706Y-68757146D01*
X69642173Y-68694756D01*
X69647085Y-68677569D01*
X69682748Y-68619115D01*
X69742327Y-68549205D01*
X69816023Y-68476748D01*
X69894034Y-68410653D01*
X69966560Y-68359829D01*
X70023801Y-68333188D01*
X70026629Y-68332533D01*
X70088344Y-68324546D01*
X70180377Y-68319053D01*
X70293955Y-68315946D01*
X70420302Y-68315115D01*
X70550646Y-68316449D01*
X70676211Y-68319840D01*
X70788223Y-68325177D01*
X70877909Y-68332353D01*
X70936493Y-68341256D01*
X70946036Y-68344010D01*
X71011281Y-68379591D01*
X71088031Y-68439776D01*
X71166103Y-68514309D01*
X71235314Y-68592935D01*
X71285480Y-68665399D01*
X71302697Y-68703192D01*
X71313434Y-68759610D01*
X71322510Y-68850179D01*
X71329781Y-68966744D01*
X71335105Y-69101149D01*
X71338339Y-69245238D01*
X71339341Y-69390858D01*
X71337968Y-69529852D01*
X71334077Y-69654065D01*
X71327526Y-69755343D01*
X71321947Y-69803844D01*
X71295988Y-69979419D01*
X71160903Y-70116514D01*
X71093456Y-70181145D01*
X71029803Y-70235554D01*
X70980423Y-70271009D01*
X70967445Y-70277751D01*
X70925552Y-70286627D01*
X70848635Y-70294751D01*
X70744002Y-70301598D01*
X70618964Y-70306644D01*
X70538655Y-70308561D01*
X70168239Y-70315229D01*
X69973337Y-70246916D01*
X69887598Y-70215474D01*
X69816645Y-70186869D01*
X69770314Y-70165201D01*
X69758610Y-70157436D01*
X69742114Y-70128139D01*
X69717075Y-70070602D01*
X69688602Y-69996658D01*
X69685505Y-69988103D01*
X69657356Y-69910327D01*
X69633280Y-69844708D01*
X69618173Y-69804577D01*
X69617509Y-69802894D01*
X69614081Y-69783938D01*
X69627699Y-69772803D01*
X69666163Y-69767464D01*
X69737271Y-69765893D01*
X69760091Y-69765853D01*
X69917389Y-69765853D01*
X69948536Y-69866394D01*
X69975305Y-69931676D01*
X70013342Y-69977703D01*
X70069964Y-70008053D01*
X70152489Y-70026299D01*
X70268235Y-70036016D01*
X70298465Y-70037347D01*
X70430138Y-70036930D01*
X70530279Y-70021723D01*
X70608066Y-69988544D01*
X70672677Y-69934214D01*
X70703892Y-69896838D01*
X70733295Y-69852826D01*
X70751540Y-69806738D01*
X70761965Y-69745573D01*
X70767911Y-69656331D01*
X70768369Y-69645817D01*
X70775833Y-69469519D01*
X69602520Y-69469519D01*
X69610877Y-69152019D01*
X70157655Y-69152019D01*
X70707989Y-69152019D01*
X70707989Y-69014436D01*
X70709944Y-68937973D01*
X70717148Y-68895396D01*
X70731607Y-68878385D01*
X70741165Y-68876853D01*
X70763766Y-68866248D01*
X70759555Y-68829228D01*
X70718333Y-68746691D01*
X70654319Y-68674421D01*
X70577640Y-68619864D01*
X70498424Y-68590468D01*
X70435664Y-68591071D01*
X70333037Y-68637419D01*
X70250765Y-68717023D01*
X70192502Y-68824237D01*
X70161904Y-68953415D01*
X70158120Y-69019728D01*
X70157655Y-69152019D01*
X69610877Y-69152019D01*
X69612131Y-69104394D01*
G36*
X48546523Y-67714895D02*
G01*
X48612058Y-67717421D01*
X48859849Y-67727626D01*
X48955767Y-67806224D01*
X49026967Y-67870684D01*
X49100354Y-67946381D01*
X49132462Y-67983391D01*
X49213239Y-68081961D01*
X49213239Y-68613175D01*
X49139155Y-68728851D01*
X49102655Y-68779302D01*
X49042918Y-68854296D01*
X48965433Y-68947282D01*
X48875689Y-69051706D01*
X48779175Y-69161016D01*
X48749466Y-69194065D01*
X48623812Y-69334279D01*
X48524429Y-69448186D01*
X48448357Y-69540099D01*
X48392633Y-69614330D01*
X48354295Y-69675191D01*
X48330382Y-69726994D01*
X48317933Y-69774052D01*
X48313985Y-69820678D01*
X48313944Y-69828205D01*
X48318242Y-69919666D01*
X48333948Y-69980966D01*
X48366273Y-70023821D01*
X48415896Y-70057438D01*
X48533142Y-70105606D01*
X48646370Y-70119113D01*
X48722466Y-70105819D01*
X48806533Y-70062813D01*
X48857437Y-69996873D01*
X48879153Y-69915662D01*
X48890729Y-69829353D01*
X49048119Y-69829353D01*
X49128584Y-69830405D01*
X49174756Y-69834907D01*
X49194654Y-69844878D01*
X49196293Y-69862335D01*
X49195277Y-69866394D01*
X49186417Y-69908823D01*
X49175700Y-69973831D01*
X49170901Y-70007224D01*
X49133188Y-70138487D01*
X49060926Y-70248016D01*
X48957796Y-70332260D01*
X48827476Y-70387668D01*
X48761645Y-70402133D01*
X48659217Y-70413282D01*
X48535046Y-70418523D01*
X48405054Y-70417928D01*
X48285156Y-70411571D01*
X48191274Y-70399525D01*
X48191151Y-70399501D01*
X48097738Y-70363271D01*
X47996560Y-70292378D01*
X47894354Y-70191926D01*
X47854647Y-70144554D01*
X47806601Y-70064866D01*
X47776938Y-69966450D01*
X47764517Y-69842705D01*
X47768199Y-69687030D01*
X47770388Y-69656353D01*
X47779511Y-69565810D01*
X47793942Y-69500413D01*
X47819455Y-69442978D01*
X47861823Y-69376321D01*
X47867015Y-69368768D01*
X47905589Y-69317740D01*
X47967423Y-69241797D01*
X48047174Y-69147236D01*
X48139500Y-69040348D01*
X48239056Y-68927429D01*
X48289513Y-68871078D01*
X48408755Y-68737461D01*
X48501516Y-68629934D01*
X48570537Y-68543960D01*
X48618563Y-68475002D01*
X48648337Y-68418522D01*
X48662603Y-68369985D01*
X48664103Y-68324854D01*
X48655581Y-68278591D01*
X48653165Y-68269689D01*
X48624722Y-68191912D01*
X48583620Y-68135234D01*
X48516638Y-68081561D01*
X48514739Y-68080253D01*
X48428439Y-68033666D01*
X48347919Y-68021946D01*
X48258229Y-68043048D01*
X48254082Y-68044606D01*
X48191446Y-68075570D01*
X48147105Y-68119812D01*
X48110851Y-68181749D01*
X48058942Y-68284186D01*
X47911132Y-68284186D01*
X47838196Y-68282623D01*
X47785387Y-68278511D01*
X47763427Y-68272714D01*
X47763322Y-68272263D01*
X47770958Y-68248953D01*
X47791600Y-68195286D01*
X47821846Y-68119934D01*
X47848860Y-68054229D01*
X47934399Y-67848116D01*
X48149333Y-67777666D01*
X48244672Y-67747255D01*
X48317956Y-67727609D01*
X48383290Y-67716891D01*
X48454777Y-67713265D01*
X48546523Y-67714895D01*
G37*
X48546523Y-67714895D02*
X48612058Y-67717421D01*
X48859849Y-67727626D01*
X48955767Y-67806224D01*
X49026967Y-67870684D01*
X49100354Y-67946381D01*
X49132462Y-67983391D01*
X49213239Y-68081961D01*
X49213239Y-68613175D01*
X49139155Y-68728851D01*
X49102655Y-68779302D01*
X49042918Y-68854296D01*
X48965433Y-68947282D01*
X48875689Y-69051706D01*
X48779175Y-69161016D01*
X48749466Y-69194065D01*
X48623812Y-69334279D01*
X48524429Y-69448186D01*
X48448357Y-69540099D01*
X48392633Y-69614330D01*
X48354295Y-69675191D01*
X48330382Y-69726994D01*
X48317933Y-69774052D01*
X48313985Y-69820678D01*
X48313944Y-69828205D01*
X48318242Y-69919666D01*
X48333948Y-69980966D01*
X48366273Y-70023821D01*
X48415896Y-70057438D01*
X48533142Y-70105606D01*
X48646370Y-70119113D01*
X48722466Y-70105819D01*
X48806533Y-70062813D01*
X48857437Y-69996873D01*
X48879153Y-69915662D01*
X48890729Y-69829353D01*
X49048119Y-69829353D01*
X49128584Y-69830405D01*
X49174756Y-69834907D01*
X49194654Y-69844878D01*
X49196293Y-69862335D01*
X49195277Y-69866394D01*
X49186417Y-69908823D01*
X49175700Y-69973831D01*
X49170901Y-70007224D01*
X49133188Y-70138487D01*
X49060926Y-70248016D01*
X48957796Y-70332260D01*
X48827476Y-70387668D01*
X48761645Y-70402133D01*
X48659217Y-70413282D01*
X48535046Y-70418523D01*
X48405054Y-70417928D01*
X48285156Y-70411571D01*
X48191274Y-70399525D01*
X48191151Y-70399501D01*
X48097738Y-70363271D01*
X47996560Y-70292378D01*
X47894354Y-70191926D01*
X47854647Y-70144554D01*
X47806601Y-70064866D01*
X47776938Y-69966450D01*
X47764517Y-69842705D01*
X47768199Y-69687030D01*
X47770388Y-69656353D01*
X47779511Y-69565810D01*
X47793942Y-69500413D01*
X47819455Y-69442978D01*
X47861823Y-69376321D01*
X47867015Y-69368768D01*
X47905589Y-69317740D01*
X47967423Y-69241797D01*
X48047174Y-69147236D01*
X48139500Y-69040348D01*
X48239056Y-68927429D01*
X48289513Y-68871078D01*
X48408755Y-68737461D01*
X48501516Y-68629934D01*
X48570537Y-68543960D01*
X48618563Y-68475002D01*
X48648337Y-68418522D01*
X48662603Y-68369985D01*
X48664103Y-68324854D01*
X48655581Y-68278591D01*
X48653165Y-68269689D01*
X48624722Y-68191912D01*
X48583620Y-68135234D01*
X48516638Y-68081561D01*
X48514739Y-68080253D01*
X48428439Y-68033666D01*
X48347919Y-68021946D01*
X48258229Y-68043048D01*
X48254082Y-68044606D01*
X48191446Y-68075570D01*
X48147105Y-68119812D01*
X48110851Y-68181749D01*
X48058942Y-68284186D01*
X47911132Y-68284186D01*
X47838196Y-68282623D01*
X47785387Y-68278511D01*
X47763427Y-68272714D01*
X47763322Y-68272263D01*
X47770958Y-68248953D01*
X47791600Y-68195286D01*
X47821846Y-68119934D01*
X47848860Y-68054229D01*
X47934399Y-67848116D01*
X48149333Y-67777666D01*
X48244672Y-67747255D01*
X48317956Y-67727609D01*
X48383290Y-67716891D01*
X48454777Y-67713265D01*
X48546523Y-67714895D01*
G36*
X62283655Y-69060670D02*
G01*
X62283751Y-69260059D01*
X62284200Y-69421729D01*
X62285244Y-69550296D01*
X62287128Y-69650373D01*
X62290093Y-69726576D01*
X62294383Y-69783518D01*
X62300241Y-69825815D01*
X62307908Y-69858082D01*
X62317629Y-69884932D01*
X62328252Y-69908111D01*
X62383217Y-69989667D01*
X62456399Y-70055233D01*
X62535918Y-70095804D01*
X62587312Y-70104519D01*
X62675809Y-70085740D01*
X62761963Y-70035675D01*
X62831767Y-69963732D01*
X62855153Y-69924606D01*
X62866269Y-69899607D01*
X62875253Y-69872212D01*
X62882331Y-69837871D01*
X62887730Y-69792034D01*
X62891675Y-69730152D01*
X62894391Y-69647673D01*
X62896104Y-69540048D01*
X62897040Y-69402726D01*
X62897426Y-69231158D01*
X62897489Y-69071253D01*
X62897489Y-68305353D01*
X63492791Y-68305353D01*
X63486181Y-69147699D01*
X63484613Y-69363333D01*
X63483124Y-69541040D01*
X63480980Y-69685218D01*
X63477451Y-69800266D01*
X63471801Y-69890582D01*
X63463300Y-69960565D01*
X63451213Y-70014612D01*
X63434809Y-70057123D01*
X63413353Y-70092496D01*
X63386114Y-70125129D01*
X63352358Y-70159421D01*
X63311353Y-70199769D01*
X63310796Y-70200326D01*
X63240416Y-70268222D01*
X63181843Y-70314813D01*
X63123849Y-70344523D01*
X63055209Y-70361777D01*
X62964698Y-70371000D01*
X62865913Y-70375689D01*
X62705771Y-70376874D01*
X62581511Y-70365722D01*
X62488114Y-70340811D01*
X62420562Y-70300721D01*
X62373835Y-70244030D01*
X62368815Y-70234963D01*
X62327859Y-70157436D01*
X62326924Y-70420628D01*
X62329947Y-70567625D01*
X62341826Y-70680058D01*
X62364995Y-70765204D01*
X62401892Y-70830344D01*
X62454952Y-70882756D01*
X62489846Y-70907464D01*
X62576402Y-70944698D01*
X62688246Y-70966314D01*
X62811000Y-70971491D01*
X62930289Y-70959407D01*
X63012083Y-70937319D01*
X63075451Y-70910075D01*
X63112649Y-70879384D01*
X63138044Y-70830306D01*
X63151395Y-70792436D01*
X63186697Y-70686603D01*
X63311968Y-70674384D01*
X63379968Y-70668853D01*
X63428704Y-70666956D01*
X63445447Y-70668482D01*
X63441270Y-70689339D01*
X63423572Y-70740833D01*
X63395369Y-70814632D01*
X63368239Y-70881783D01*
X63282824Y-71088769D01*
X63063698Y-71166731D01*
X62972868Y-71198368D01*
X62901684Y-71220004D01*
X62837940Y-71233501D01*
X62769432Y-71240720D01*
X62683953Y-71243523D01*
X62569297Y-71243772D01*
X62558822Y-71243739D01*
X62442125Y-71241853D01*
X62330616Y-71237398D01*
X62236314Y-71231020D01*
X62171242Y-71223369D01*
X62167239Y-71222641D01*
X62046546Y-71179821D01*
X61932707Y-71103288D01*
X61833992Y-71001639D01*
X61758673Y-70883473D01*
X61715024Y-70757385D01*
X61713909Y-70751507D01*
X61708311Y-70697989D01*
X61703443Y-70603745D01*
X61699334Y-70470377D01*
X61696012Y-70299486D01*
X61693506Y-70092674D01*
X61691843Y-69851542D01*
X61691054Y-69577692D01*
X61690989Y-69465632D01*
X61690989Y-68305353D01*
X62283655Y-68305353D01*
X62283655Y-69060670D01*
G37*
X62283655Y-69060670D02*
X62283751Y-69260059D01*
X62284200Y-69421729D01*
X62285244Y-69550296D01*
X62287128Y-69650373D01*
X62290093Y-69726576D01*
X62294383Y-69783518D01*
X62300241Y-69825815D01*
X62307908Y-69858082D01*
X62317629Y-69884932D01*
X62328252Y-69908111D01*
X62383217Y-69989667D01*
X62456399Y-70055233D01*
X62535918Y-70095804D01*
X62587312Y-70104519D01*
X62675809Y-70085740D01*
X62761963Y-70035675D01*
X62831767Y-69963732D01*
X62855153Y-69924606D01*
X62866269Y-69899607D01*
X62875253Y-69872212D01*
X62882331Y-69837871D01*
X62887730Y-69792034D01*
X62891675Y-69730152D01*
X62894391Y-69647673D01*
X62896104Y-69540048D01*
X62897040Y-69402726D01*
X62897426Y-69231158D01*
X62897489Y-69071253D01*
X62897489Y-68305353D01*
X63492791Y-68305353D01*
X63486181Y-69147699D01*
X63484613Y-69363333D01*
X63483124Y-69541040D01*
X63480980Y-69685218D01*
X63477451Y-69800266D01*
X63471801Y-69890582D01*
X63463300Y-69960565D01*
X63451213Y-70014612D01*
X63434809Y-70057123D01*
X63413353Y-70092496D01*
X63386114Y-70125129D01*
X63352358Y-70159421D01*
X63311353Y-70199769D01*
X63310796Y-70200326D01*
X63240416Y-70268222D01*
X63181843Y-70314813D01*
X63123849Y-70344523D01*
X63055209Y-70361777D01*
X62964698Y-70371000D01*
X62865913Y-70375689D01*
X62705771Y-70376874D01*
X62581511Y-70365722D01*
X62488114Y-70340811D01*
X62420562Y-70300721D01*
X62373835Y-70244030D01*
X62368815Y-70234963D01*
X62327859Y-70157436D01*
X62326924Y-70420628D01*
X62329947Y-70567625D01*
X62341826Y-70680058D01*
X62364995Y-70765204D01*
X62401892Y-70830344D01*
X62454952Y-70882756D01*
X62489846Y-70907464D01*
X62576402Y-70944698D01*
X62688246Y-70966314D01*
X62811000Y-70971491D01*
X62930289Y-70959407D01*
X63012083Y-70937319D01*
X63075451Y-70910075D01*
X63112649Y-70879384D01*
X63138044Y-70830306D01*
X63151395Y-70792436D01*
X63186697Y-70686603D01*
X63311968Y-70674384D01*
X63379968Y-70668853D01*
X63428704Y-70666956D01*
X63445447Y-70668482D01*
X63441270Y-70689339D01*
X63423572Y-70740833D01*
X63395369Y-70814632D01*
X63368239Y-70881783D01*
X63282824Y-71088769D01*
X63063698Y-71166731D01*
X62972868Y-71198368D01*
X62901684Y-71220004D01*
X62837940Y-71233501D01*
X62769432Y-71240720D01*
X62683953Y-71243523D01*
X62569297Y-71243772D01*
X62558822Y-71243739D01*
X62442125Y-71241853D01*
X62330616Y-71237398D01*
X62236314Y-71231020D01*
X62171242Y-71223369D01*
X62167239Y-71222641D01*
X62046546Y-71179821D01*
X61932707Y-71103288D01*
X61833992Y-71001639D01*
X61758673Y-70883473D01*
X61715024Y-70757385D01*
X61713909Y-70751507D01*
X61708311Y-70697989D01*
X61703443Y-70603745D01*
X61699334Y-70470377D01*
X61696012Y-70299486D01*
X61693506Y-70092674D01*
X61691843Y-69851542D01*
X61691054Y-69577692D01*
X61690989Y-69465632D01*
X61690989Y-68305353D01*
X62283655Y-68305353D01*
X62283655Y-69060670D01*
G36*
X61799269Y-72076118D02*
G01*
X61933126Y-72079200D01*
X62031892Y-72082471D01*
X62102795Y-72087029D01*
X62153068Y-72093974D01*
X62189941Y-72104407D01*
X62220646Y-72119427D01*
X62252413Y-72140132D01*
X62261485Y-72146407D01*
X62325400Y-72197864D01*
X62396415Y-72265568D01*
X62442194Y-72315420D01*
X62492068Y-72378581D01*
X62523418Y-72434751D01*
X62543727Y-72501036D01*
X62558358Y-72581019D01*
X62564991Y-72646253D01*
X62570135Y-72744598D01*
X62573850Y-72870061D01*
X62576195Y-73016653D01*
X62577231Y-73178383D01*
X62577019Y-73349259D01*
X62575617Y-73523291D01*
X62573086Y-73694488D01*
X62569486Y-73856860D01*
X62564877Y-74004415D01*
X62559320Y-74131163D01*
X62552873Y-74231113D01*
X62545598Y-74298274D01*
X62540924Y-74320145D01*
X62507820Y-74382806D01*
X62449786Y-74458524D01*
X62377018Y-74536724D01*
X62299712Y-74606833D01*
X62228062Y-74658278D01*
X62201716Y-74671947D01*
X62157963Y-74685781D01*
X62094921Y-74696176D01*
X62006522Y-74703684D01*
X61886699Y-74708857D01*
X61765072Y-74711669D01*
X61633397Y-74713747D01*
X61534883Y-74714029D01*
X61460365Y-74711490D01*
X61400677Y-74705105D01*
X61346653Y-74693848D01*
X61289128Y-74676693D01*
X61218937Y-74652615D01*
X61210337Y-74649601D01*
X61124526Y-74618143D01*
X61053425Y-74589527D01*
X61006902Y-74567855D01*
X60995087Y-74560103D01*
X60978268Y-74531671D01*
X60951221Y-74474867D01*
X60918536Y-74400678D01*
X60884802Y-74320091D01*
X60854611Y-74244094D01*
X60832552Y-74183674D01*
X60823215Y-74149818D01*
X60823155Y-74148551D01*
X60843140Y-74136297D01*
X60898649Y-74128522D01*
X60971322Y-74126186D01*
X61049127Y-74127298D01*
X61093696Y-74132391D01*
X61114105Y-74144101D01*
X61119430Y-74165066D01*
X61119489Y-74169223D01*
X61128791Y-74212283D01*
X61152542Y-74274718D01*
X61170498Y-74312923D01*
X61205277Y-74373617D01*
X61242126Y-74410513D01*
X61296734Y-74436555D01*
X61336400Y-74449803D01*
X61489153Y-74483115D01*
X61632314Y-74485873D01*
X61759982Y-74459432D01*
X61866254Y-74405148D01*
X61945228Y-74324377D01*
X61955871Y-74307501D01*
X62008489Y-74217717D01*
X62008489Y-73428708D01*
X62008413Y-73224862D01*
X62008035Y-73058924D01*
X62007123Y-72926467D01*
X62005447Y-72823065D01*
X62002777Y-72744293D01*
X61998882Y-72685724D01*
X61993533Y-72642933D01*
X61986499Y-72611494D01*
X61977550Y-72586980D01*
X61966457Y-72564966D01*
X61963264Y-72559233D01*
X61891474Y-72472932D01*
X61790853Y-72411569D01*
X61667880Y-72376729D01*
X61529031Y-72369997D01*
X61380785Y-72392955D01*
X61335793Y-72405761D01*
X61267870Y-72430146D01*
X61224946Y-72458127D01*
X61192072Y-72502712D01*
X61165481Y-72553927D01*
X61110670Y-72665686D01*
X60966912Y-72665686D01*
X60882167Y-72662714D01*
X60835572Y-72653333D01*
X60823113Y-72639228D01*
X60830936Y-72609590D01*
X60852080Y-72550637D01*
X60882997Y-72471882D01*
X60908436Y-72410348D01*
X60993802Y-72207926D01*
X61210279Y-72137960D01*
X61426757Y-72067994D01*
X61799269Y-72076118D01*
G37*
X61799269Y-72076118D02*
X61933126Y-72079200D01*
X62031892Y-72082471D01*
X62102795Y-72087029D01*
X62153068Y-72093974D01*
X62189941Y-72104407D01*
X62220646Y-72119427D01*
X62252413Y-72140132D01*
X62261485Y-72146407D01*
X62325400Y-72197864D01*
X62396415Y-72265568D01*
X62442194Y-72315420D01*
X62492068Y-72378581D01*
X62523418Y-72434751D01*
X62543727Y-72501036D01*
X62558358Y-72581019D01*
X62564991Y-72646253D01*
X62570135Y-72744598D01*
X62573850Y-72870061D01*
X62576195Y-73016653D01*
X62577231Y-73178383D01*
X62577019Y-73349259D01*
X62575617Y-73523291D01*
X62573086Y-73694488D01*
X62569486Y-73856860D01*
X62564877Y-74004415D01*
X62559320Y-74131163D01*
X62552873Y-74231113D01*
X62545598Y-74298274D01*
X62540924Y-74320145D01*
X62507820Y-74382806D01*
X62449786Y-74458524D01*
X62377018Y-74536724D01*
X62299712Y-74606833D01*
X62228062Y-74658278D01*
X62201716Y-74671947D01*
X62157963Y-74685781D01*
X62094921Y-74696176D01*
X62006522Y-74703684D01*
X61886699Y-74708857D01*
X61765072Y-74711669D01*
X61633397Y-74713747D01*
X61534883Y-74714029D01*
X61460365Y-74711490D01*
X61400677Y-74705105D01*
X61346653Y-74693848D01*
X61289128Y-74676693D01*
X61218937Y-74652615D01*
X61210337Y-74649601D01*
X61124526Y-74618143D01*
X61053425Y-74589527D01*
X61006902Y-74567855D01*
X60995087Y-74560103D01*
X60978268Y-74531671D01*
X60951221Y-74474867D01*
X60918536Y-74400678D01*
X60884802Y-74320091D01*
X60854611Y-74244094D01*
X60832552Y-74183674D01*
X60823215Y-74149818D01*
X60823155Y-74148551D01*
X60843140Y-74136297D01*
X60898649Y-74128522D01*
X60971322Y-74126186D01*
X61049127Y-74127298D01*
X61093696Y-74132391D01*
X61114105Y-74144101D01*
X61119430Y-74165066D01*
X61119489Y-74169223D01*
X61128791Y-74212283D01*
X61152542Y-74274718D01*
X61170498Y-74312923D01*
X61205277Y-74373617D01*
X61242126Y-74410513D01*
X61296734Y-74436555D01*
X61336400Y-74449803D01*
X61489153Y-74483115D01*
X61632314Y-74485873D01*
X61759982Y-74459432D01*
X61866254Y-74405148D01*
X61945228Y-74324377D01*
X61955871Y-74307501D01*
X62008489Y-74217717D01*
X62008489Y-73428708D01*
X62008413Y-73224862D01*
X62008035Y-73058924D01*
X62007123Y-72926467D01*
X62005447Y-72823065D01*
X62002777Y-72744293D01*
X61998882Y-72685724D01*
X61993533Y-72642933D01*
X61986499Y-72611494D01*
X61977550Y-72586980D01*
X61966457Y-72564966D01*
X61963264Y-72559233D01*
X61891474Y-72472932D01*
X61790853Y-72411569D01*
X61667880Y-72376729D01*
X61529031Y-72369997D01*
X61380785Y-72392955D01*
X61335793Y-72405761D01*
X61267870Y-72430146D01*
X61224946Y-72458127D01*
X61192072Y-72502712D01*
X61165481Y-72553927D01*
X61110670Y-72665686D01*
X60966912Y-72665686D01*
X60882167Y-72662714D01*
X60835572Y-72653333D01*
X60823113Y-72639228D01*
X60830936Y-72609590D01*
X60852080Y-72550637D01*
X60882997Y-72471882D01*
X60908436Y-72410348D01*
X60993802Y-72207926D01*
X61210279Y-72137960D01*
X61426757Y-72067994D01*
X61799269Y-72076118D01*
G36*
X68236192Y-73560741D02*
G01*
X68741207Y-73560741D01*
X68742527Y-73693424D01*
X68743602Y-73771798D01*
X68745861Y-73921348D01*
X68748279Y-74034856D01*
X68751594Y-74118610D01*
X68756539Y-74178898D01*
X68763851Y-74222007D01*
X68774265Y-74254225D01*
X68788516Y-74281839D01*
X68806550Y-74309947D01*
X68861297Y-74372627D01*
X68931260Y-74425874D01*
X69004286Y-74462654D01*
X69068222Y-74475934D01*
X69088473Y-74473107D01*
X69134479Y-74453029D01*
X69191173Y-74420379D01*
X69198736Y-74415431D01*
X69254823Y-74365718D01*
X69304182Y-74302566D01*
X69309861Y-74293001D01*
X69324221Y-74264631D01*
X69335032Y-74233410D01*
X69342792Y-74193157D01*
X69347998Y-74137692D01*
X69351151Y-74060834D01*
X69352749Y-73956400D01*
X69353290Y-73818210D01*
X69353322Y-73754278D01*
X69353012Y-73600392D01*
X69351756Y-73482519D01*
X69349067Y-73394343D01*
X69344459Y-73329548D01*
X69337444Y-73281816D01*
X69327534Y-73244831D01*
X69314242Y-73212275D01*
X69310987Y-73205432D01*
X69247360Y-73114022D01*
X69166537Y-73056817D01*
X69075882Y-73033540D01*
X68982759Y-73043914D01*
X68894531Y-73087662D01*
X68818561Y-73164509D01*
X68782460Y-73225284D01*
X68767432Y-73258683D01*
X68756278Y-73292465D01*
X68748538Y-73333097D01*
X68743752Y-73387043D01*
X68741462Y-73460769D01*
X68741207Y-73560741D01*
X68236192Y-73560741D01*
X68237515Y-73478238D01*
X68240383Y-73354763D01*
X68244038Y-73262259D01*
X68248966Y-73195046D01*
X68255653Y-73147442D01*
X68264586Y-73113767D01*
X68276249Y-73088339D01*
X68282926Y-73077448D01*
X68328751Y-73018224D01*
X68391638Y-72950757D01*
X68461962Y-72883896D01*
X68530097Y-72826486D01*
X68586417Y-72787377D01*
X68610475Y-72776391D01*
X68651534Y-72771002D01*
X68726651Y-72766804D01*
X68827569Y-72763792D01*
X68946030Y-72761962D01*
X69073776Y-72761308D01*
X69202550Y-72761826D01*
X69324092Y-72763511D01*
X69430146Y-72766358D01*
X69512454Y-72770363D01*
X69562758Y-72775519D01*
X69569249Y-72776955D01*
X69614975Y-72801793D01*
X69677417Y-72850970D01*
X69747412Y-72915322D01*
X69815795Y-72985686D01*
X69873403Y-73052899D01*
X69911074Y-73107797D01*
X69919386Y-73127092D01*
X69923608Y-73162868D01*
X69927412Y-73234855D01*
X69930648Y-73336929D01*
X69933160Y-73462969D01*
X69934797Y-73606852D01*
X69935404Y-73762457D01*
X69935405Y-73768186D01*
X69935405Y-74352102D01*
X69872921Y-74442244D01*
X69821186Y-74506442D01*
X69753240Y-74577538D01*
X69703587Y-74622952D01*
X69630894Y-74678504D01*
X69563483Y-74711970D01*
X69479887Y-74733327D01*
X69457421Y-74737352D01*
X69357025Y-74748914D01*
X69228140Y-74755703D01*
X69084336Y-74757768D01*
X68939183Y-74755160D01*
X68806250Y-74747928D01*
X68699107Y-74736122D01*
X68689443Y-74734540D01*
X68630563Y-74722650D01*
X68583972Y-74706084D01*
X68539485Y-74678418D01*
X68486920Y-74633232D01*
X68416094Y-74564105D01*
X68410830Y-74558845D01*
X68341277Y-74488398D01*
X68295905Y-74437539D01*
X68268772Y-74396115D01*
X68253934Y-74353971D01*
X68245447Y-74300954D01*
X68242087Y-74270565D01*
X68238264Y-74210383D01*
X68235462Y-74115999D01*
X68233772Y-73995533D01*
X68233287Y-73857105D01*
X68234098Y-73708838D01*
X68234949Y-73638364D01*
X68236192Y-73560741D01*
G37*
X68236192Y-73560741D02*
X68741207Y-73560741D01*
X68742527Y-73693424D01*
X68743602Y-73771798D01*
X68745861Y-73921348D01*
X68748279Y-74034856D01*
X68751594Y-74118610D01*
X68756539Y-74178898D01*
X68763851Y-74222007D01*
X68774265Y-74254225D01*
X68788516Y-74281839D01*
X68806550Y-74309947D01*
X68861297Y-74372627D01*
X68931260Y-74425874D01*
X69004286Y-74462654D01*
X69068222Y-74475934D01*
X69088473Y-74473107D01*
X69134479Y-74453029D01*
X69191173Y-74420379D01*
X69198736Y-74415431D01*
X69254823Y-74365718D01*
X69304182Y-74302566D01*
X69309861Y-74293001D01*
X69324221Y-74264631D01*
X69335032Y-74233410D01*
X69342792Y-74193157D01*
X69347998Y-74137692D01*
X69351151Y-74060834D01*
X69352749Y-73956400D01*
X69353290Y-73818210D01*
X69353322Y-73754278D01*
X69353012Y-73600392D01*
X69351756Y-73482519D01*
X69349067Y-73394343D01*
X69344459Y-73329548D01*
X69337444Y-73281816D01*
X69327534Y-73244831D01*
X69314242Y-73212275D01*
X69310987Y-73205432D01*
X69247360Y-73114022D01*
X69166537Y-73056817D01*
X69075882Y-73033540D01*
X68982759Y-73043914D01*
X68894531Y-73087662D01*
X68818561Y-73164509D01*
X68782460Y-73225284D01*
X68767432Y-73258683D01*
X68756278Y-73292465D01*
X68748538Y-73333097D01*
X68743752Y-73387043D01*
X68741462Y-73460769D01*
X68741207Y-73560741D01*
X68236192Y-73560741D01*
X68237515Y-73478238D01*
X68240383Y-73354763D01*
X68244038Y-73262259D01*
X68248966Y-73195046D01*
X68255653Y-73147442D01*
X68264586Y-73113767D01*
X68276249Y-73088339D01*
X68282926Y-73077448D01*
X68328751Y-73018224D01*
X68391638Y-72950757D01*
X68461962Y-72883896D01*
X68530097Y-72826486D01*
X68586417Y-72787377D01*
X68610475Y-72776391D01*
X68651534Y-72771002D01*
X68726651Y-72766804D01*
X68827569Y-72763792D01*
X68946030Y-72761962D01*
X69073776Y-72761308D01*
X69202550Y-72761826D01*
X69324092Y-72763511D01*
X69430146Y-72766358D01*
X69512454Y-72770363D01*
X69562758Y-72775519D01*
X69569249Y-72776955D01*
X69614975Y-72801793D01*
X69677417Y-72850970D01*
X69747412Y-72915322D01*
X69815795Y-72985686D01*
X69873403Y-73052899D01*
X69911074Y-73107797D01*
X69919386Y-73127092D01*
X69923608Y-73162868D01*
X69927412Y-73234855D01*
X69930648Y-73336929D01*
X69933160Y-73462969D01*
X69934797Y-73606852D01*
X69935404Y-73762457D01*
X69935405Y-73768186D01*
X69935405Y-74352102D01*
X69872921Y-74442244D01*
X69821186Y-74506442D01*
X69753240Y-74577538D01*
X69703587Y-74622952D01*
X69630894Y-74678504D01*
X69563483Y-74711970D01*
X69479887Y-74733327D01*
X69457421Y-74737352D01*
X69357025Y-74748914D01*
X69228140Y-74755703D01*
X69084336Y-74757768D01*
X68939183Y-74755160D01*
X68806250Y-74747928D01*
X68699107Y-74736122D01*
X68689443Y-74734540D01*
X68630563Y-74722650D01*
X68583972Y-74706084D01*
X68539485Y-74678418D01*
X68486920Y-74633232D01*
X68416094Y-74564105D01*
X68410830Y-74558845D01*
X68341277Y-74488398D01*
X68295905Y-74437539D01*
X68268772Y-74396115D01*
X68253934Y-74353971D01*
X68245447Y-74300954D01*
X68242087Y-74270565D01*
X68238264Y-74210383D01*
X68235462Y-74115999D01*
X68233772Y-73995533D01*
X68233287Y-73857105D01*
X68234098Y-73708838D01*
X68234949Y-73638364D01*
X68236192Y-73560741D01*
G36*
X75105083Y-68284889D02*
G01*
X75248186Y-68286871D01*
X75373263Y-68289944D01*
X75474291Y-68293917D01*
X75545248Y-68298603D01*
X75580112Y-68303810D01*
X75580618Y-68304005D01*
X75634937Y-68320924D01*
X75702328Y-68335661D01*
X75708896Y-68336767D01*
X75771557Y-68361893D01*
X75847202Y-68413932D01*
X75926609Y-68483754D01*
X76000554Y-68562231D01*
X76059816Y-68640232D01*
X76095171Y-68708628D01*
X76099185Y-68723112D01*
X76104468Y-68770256D01*
X76108742Y-68852031D01*
X76112001Y-68960821D01*
X76114238Y-69089015D01*
X76115447Y-69228999D01*
X76115622Y-69373159D01*
X76114757Y-69513883D01*
X76112844Y-69643556D01*
X76109878Y-69754567D01*
X76105853Y-69839300D01*
X76100762Y-69890144D01*
X76100153Y-69893266D01*
X76072366Y-69959049D01*
X76018406Y-70038687D01*
X75946851Y-70121856D01*
X75866276Y-70198233D01*
X75811899Y-70240201D01*
X75769274Y-70267281D01*
X75727540Y-70285480D01*
X75676003Y-70297191D01*
X75603973Y-70304804D01*
X75500757Y-70310712D01*
X75495588Y-70310959D01*
X75335623Y-70313057D01*
X75211359Y-70301436D01*
X75118006Y-70274733D01*
X75050775Y-70231586D01*
X75005315Y-70171463D01*
X74964359Y-70093936D01*
X74963424Y-70366221D01*
X74963773Y-70482105D01*
X74966535Y-70564885D01*
X74972889Y-70623772D01*
X74984011Y-70667979D01*
X75001079Y-70706715D01*
X75008758Y-70720830D01*
X75078902Y-70804417D01*
X75177844Y-70864720D01*
X75297795Y-70899752D01*
X75430966Y-70907527D01*
X75569569Y-70886058D01*
X75609593Y-70874103D01*
X75686175Y-70846502D01*
X75733019Y-70820235D01*
X75761102Y-70785046D01*
X75781402Y-70730681D01*
X75788101Y-70707367D01*
X75814657Y-70612519D01*
X75972420Y-70612519D01*
X76046845Y-70614624D01*
X76100319Y-70620192D01*
X76123076Y-70628107D01*
X76123127Y-70629768D01*
X76112542Y-70655466D01*
X76089519Y-70711266D01*
X76057781Y-70788146D01*
X76031405Y-70852015D01*
X75946739Y-71057015D01*
X75724449Y-71131100D01*
X75635139Y-71160244D01*
X75564355Y-71180459D01*
X75500639Y-71193297D01*
X75432535Y-71200309D01*
X75348587Y-71203046D01*
X75237338Y-71203060D01*
X75195282Y-71202752D01*
X75078688Y-71200852D01*
X74971090Y-71197326D01*
X74882588Y-71192626D01*
X74823280Y-71187210D01*
X74812660Y-71185507D01*
X74722621Y-71151623D01*
X74624265Y-71087305D01*
X74527815Y-71000177D01*
X74463346Y-70925059D01*
X74380405Y-70816320D01*
X74369621Y-68622853D01*
X74960682Y-68622853D01*
X74966877Y-69241978D01*
X74968764Y-69420306D01*
X74970712Y-69561323D01*
X74973113Y-69670051D01*
X74976361Y-69751510D01*
X74980847Y-69810723D01*
X74986964Y-69852709D01*
X74995105Y-69882492D01*
X75005663Y-69905091D01*
X75019031Y-69925528D01*
X75020490Y-69927580D01*
X75072232Y-69981249D01*
X75140395Y-70028012D01*
X75211578Y-70060801D01*
X75272381Y-70072545D01*
X75290306Y-70069919D01*
X75340892Y-70050520D01*
X75391204Y-70027164D01*
X75438193Y-69991412D01*
X75488811Y-69935770D01*
X75507620Y-69909760D01*
X75526969Y-69879672D01*
X75541547Y-69851553D01*
X75552133Y-69819006D01*
X75559507Y-69775636D01*
X75564444Y-69715046D01*
X75567724Y-69630841D01*
X75570125Y-69516623D01*
X75572240Y-69378579D01*
X75574266Y-69230559D01*
X75575033Y-69118178D01*
X75573973Y-69034746D01*
X75570514Y-68973577D01*
X75564088Y-68927979D01*
X75554123Y-68891266D01*
X75540049Y-68856748D01*
X75525098Y-68825501D01*
X75471014Y-68737126D01*
X75405051Y-68676977D01*
X75319186Y-68640902D01*
X75205398Y-68624753D01*
X75133328Y-68622853D01*
X74960682Y-68622853D01*
X74369621Y-68622853D01*
X74367955Y-68284186D01*
X74949976Y-68284186D01*
X75105083Y-68284889D01*
G37*
X75105083Y-68284889D02*
X75248186Y-68286871D01*
X75373263Y-68289944D01*
X75474291Y-68293917D01*
X75545248Y-68298603D01*
X75580112Y-68303810D01*
X75580618Y-68304005D01*
X75634937Y-68320924D01*
X75702328Y-68335661D01*
X75708896Y-68336767D01*
X75771557Y-68361893D01*
X75847202Y-68413932D01*
X75926609Y-68483754D01*
X76000554Y-68562231D01*
X76059816Y-68640232D01*
X76095171Y-68708628D01*
X76099185Y-68723112D01*
X76104468Y-68770256D01*
X76108742Y-68852031D01*
X76112001Y-68960821D01*
X76114238Y-69089015D01*
X76115447Y-69228999D01*
X76115622Y-69373159D01*
X76114757Y-69513883D01*
X76112844Y-69643556D01*
X76109878Y-69754567D01*
X76105853Y-69839300D01*
X76100762Y-69890144D01*
X76100153Y-69893266D01*
X76072366Y-69959049D01*
X76018406Y-70038687D01*
X75946851Y-70121856D01*
X75866276Y-70198233D01*
X75811899Y-70240201D01*
X75769274Y-70267281D01*
X75727540Y-70285480D01*
X75676003Y-70297191D01*
X75603973Y-70304804D01*
X75500757Y-70310712D01*
X75495588Y-70310959D01*
X75335623Y-70313057D01*
X75211359Y-70301436D01*
X75118006Y-70274733D01*
X75050775Y-70231586D01*
X75005315Y-70171463D01*
X74964359Y-70093936D01*
X74963424Y-70366221D01*
X74963773Y-70482105D01*
X74966535Y-70564885D01*
X74972889Y-70623772D01*
X74984011Y-70667979D01*
X75001079Y-70706715D01*
X75008758Y-70720830D01*
X75078902Y-70804417D01*
X75177844Y-70864720D01*
X75297795Y-70899752D01*
X75430966Y-70907527D01*
X75569569Y-70886058D01*
X75609593Y-70874103D01*
X75686175Y-70846502D01*
X75733019Y-70820235D01*
X75761102Y-70785046D01*
X75781402Y-70730681D01*
X75788101Y-70707367D01*
X75814657Y-70612519D01*
X75972420Y-70612519D01*
X76046845Y-70614624D01*
X76100319Y-70620192D01*
X76123076Y-70628107D01*
X76123127Y-70629768D01*
X76112542Y-70655466D01*
X76089519Y-70711266D01*
X76057781Y-70788146D01*
X76031405Y-70852015D01*
X75946739Y-71057015D01*
X75724449Y-71131100D01*
X75635139Y-71160244D01*
X75564355Y-71180459D01*
X75500639Y-71193297D01*
X75432535Y-71200309D01*
X75348587Y-71203046D01*
X75237338Y-71203060D01*
X75195282Y-71202752D01*
X75078688Y-71200852D01*
X74971090Y-71197326D01*
X74882588Y-71192626D01*
X74823280Y-71187210D01*
X74812660Y-71185507D01*
X74722621Y-71151623D01*
X74624265Y-71087305D01*
X74527815Y-71000177D01*
X74463346Y-70925059D01*
X74380405Y-70816320D01*
X74369621Y-68622853D01*
X74960682Y-68622853D01*
X74966877Y-69241978D01*
X74968764Y-69420306D01*
X74970712Y-69561323D01*
X74973113Y-69670051D01*
X74976361Y-69751510D01*
X74980847Y-69810723D01*
X74986964Y-69852709D01*
X74995105Y-69882492D01*
X75005663Y-69905091D01*
X75019031Y-69925528D01*
X75020490Y-69927580D01*
X75072232Y-69981249D01*
X75140395Y-70028012D01*
X75211578Y-70060801D01*
X75272381Y-70072545D01*
X75290306Y-70069919D01*
X75340892Y-70050520D01*
X75391204Y-70027164D01*
X75438193Y-69991412D01*
X75488811Y-69935770D01*
X75507620Y-69909760D01*
X75526969Y-69879672D01*
X75541547Y-69851553D01*
X75552133Y-69819006D01*
X75559507Y-69775636D01*
X75564444Y-69715046D01*
X75567724Y-69630841D01*
X75570125Y-69516623D01*
X75572240Y-69378579D01*
X75574266Y-69230559D01*
X75575033Y-69118178D01*
X75573973Y-69034746D01*
X75570514Y-68973577D01*
X75564088Y-68927979D01*
X75554123Y-68891266D01*
X75540049Y-68856748D01*
X75525098Y-68825501D01*
X75471014Y-68737126D01*
X75405051Y-68676977D01*
X75319186Y-68640902D01*
X75205398Y-68624753D01*
X75133328Y-68622853D01*
X74960682Y-68622853D01*
X74369621Y-68622853D01*
X74367955Y-68284186D01*
X74949976Y-68284186D01*
X75105083Y-68284889D01*
D13*
G04 #@! TO.C,D1*
X82415000Y-50880000D02*
X82415000Y-54940000D01*
X80145000Y-50880000D02*
X82415000Y-50880000D01*
X80145000Y-54940000D02*
X80145000Y-50880000D01*
G04 #@! TO.C,D2*
X46855000Y-50880000D02*
X46855000Y-54940000D01*
X44585000Y-50880000D02*
X46855000Y-50880000D01*
X44585000Y-54940000D02*
X44585000Y-50880000D01*
G04 #@! TO.C,R2*
X81680000Y-81550000D02*
X78520000Y-81550000D01*
X83520000Y-81550000D02*
G75*
G03*
X83520000Y-81550000I-920000J0D01*
G01*
G04 #@! TD*
%LPC*%
G04 #@! TO.C,G\u002A\u002A\u002A*
G36*
X64418385Y-41444989D02*
G01*
X65294668Y-41444997D01*
X66130555Y-41445013D01*
X66927017Y-41445040D01*
X67685022Y-41445081D01*
X68405540Y-41445138D01*
X69089540Y-41445215D01*
X69737990Y-41445315D01*
X70351861Y-41445439D01*
X70932121Y-41445591D01*
X71479739Y-41445774D01*
X71995686Y-41445990D01*
X72480929Y-41446242D01*
X72936438Y-41446534D01*
X73363183Y-41446867D01*
X73762132Y-41447244D01*
X74134254Y-41447669D01*
X74480520Y-41448145D01*
X74801897Y-41448673D01*
X75099356Y-41449257D01*
X75373865Y-41449899D01*
X75626394Y-41450603D01*
X75857911Y-41451371D01*
X76069386Y-41452206D01*
X76261789Y-41453111D01*
X76436088Y-41454088D01*
X76593252Y-41455140D01*
X76734251Y-41456271D01*
X76860054Y-41457482D01*
X76971630Y-41458777D01*
X77069948Y-41460159D01*
X77155977Y-41461629D01*
X77230687Y-41463192D01*
X77295047Y-41464850D01*
X77350026Y-41466605D01*
X77396594Y-41468461D01*
X77435718Y-41470420D01*
X77468369Y-41472485D01*
X77495516Y-41474659D01*
X77518128Y-41476945D01*
X77537174Y-41479345D01*
X77553623Y-41481862D01*
X77568444Y-41484499D01*
X77573901Y-41485543D01*
X77685516Y-41509808D01*
X77768406Y-41535274D01*
X77836017Y-41566879D01*
X77891401Y-41602181D01*
X77965033Y-41654335D01*
X78017877Y-41694702D01*
X78060486Y-41733314D01*
X78103414Y-41780200D01*
X78157214Y-41845389D01*
X78189485Y-41885489D01*
X78204217Y-41902029D01*
X78218213Y-41914750D01*
X78231493Y-41924720D01*
X78244075Y-41933006D01*
X78255979Y-41940676D01*
X78267222Y-41948798D01*
X78277824Y-41958439D01*
X78287802Y-41970667D01*
X78297177Y-41986550D01*
X78305967Y-42007154D01*
X78314190Y-42033548D01*
X78321866Y-42066800D01*
X78329012Y-42107977D01*
X78335648Y-42158146D01*
X78341792Y-42218376D01*
X78347464Y-42289733D01*
X78352681Y-42373286D01*
X78357463Y-42470102D01*
X78361828Y-42581249D01*
X78365796Y-42707794D01*
X78369384Y-42850805D01*
X78372612Y-43011350D01*
X78375498Y-43190496D01*
X78378061Y-43389311D01*
X78380320Y-43608863D01*
X78382293Y-43850218D01*
X78384000Y-44114446D01*
X78385459Y-44402612D01*
X78386688Y-44715786D01*
X78387707Y-45055034D01*
X78388534Y-45421425D01*
X78389188Y-45816025D01*
X78389687Y-46239903D01*
X78390051Y-46694126D01*
X78390298Y-47179762D01*
X78390447Y-47697878D01*
X78390516Y-48249542D01*
X78390525Y-48835822D01*
X78390492Y-49457785D01*
X78390435Y-50116499D01*
X78390375Y-50813031D01*
X78390328Y-51548449D01*
X78390314Y-52323822D01*
X78390352Y-53140215D01*
X78390370Y-53332889D01*
X78390446Y-54149638D01*
X78390498Y-54925130D01*
X78390524Y-55660439D01*
X78390521Y-56356641D01*
X78390485Y-57014812D01*
X78390414Y-57636027D01*
X78390304Y-58221361D01*
X78390152Y-58771891D01*
X78389954Y-59288692D01*
X78389709Y-59772838D01*
X78389413Y-60225407D01*
X78389062Y-60647472D01*
X78388653Y-61040110D01*
X78388184Y-61404396D01*
X78387651Y-61741406D01*
X78387051Y-62052215D01*
X78386380Y-62337899D01*
X78385637Y-62599533D01*
X78384817Y-62838193D01*
X78383918Y-63054953D01*
X78382936Y-63250890D01*
X78381868Y-63427080D01*
X78380711Y-63584597D01*
X78379462Y-63724517D01*
X78378118Y-63847916D01*
X78376676Y-63955869D01*
X78375132Y-64049452D01*
X78373484Y-64129739D01*
X78371728Y-64197808D01*
X78369861Y-64254732D01*
X78367880Y-64301589D01*
X78365782Y-64339452D01*
X78363563Y-64369398D01*
X78361221Y-64392502D01*
X78358753Y-64409839D01*
X78358070Y-64413639D01*
X78320513Y-64562243D01*
X78264901Y-64689779D01*
X78184306Y-64808742D01*
X78071801Y-64931629D01*
X78069831Y-64933570D01*
X77942079Y-65042339D01*
X77803678Y-65123935D01*
X77641702Y-65185442D01*
X77577416Y-65203438D01*
X77566158Y-65205613D01*
X77548893Y-65207690D01*
X77524683Y-65209671D01*
X77492588Y-65211558D01*
X77451667Y-65213354D01*
X77400980Y-65215061D01*
X77339589Y-65216679D01*
X77266552Y-65218213D01*
X77180929Y-65219663D01*
X77081782Y-65221033D01*
X76968170Y-65222323D01*
X76839153Y-65223536D01*
X76693791Y-65224674D01*
X76531144Y-65225740D01*
X76350272Y-65226735D01*
X76150236Y-65227661D01*
X75930096Y-65228521D01*
X75688911Y-65229316D01*
X75425741Y-65230050D01*
X75139648Y-65230723D01*
X74829690Y-65231337D01*
X74494928Y-65231896D01*
X74134422Y-65232401D01*
X73747232Y-65232854D01*
X73332418Y-65233257D01*
X72889040Y-65233613D01*
X72416159Y-65233923D01*
X71912834Y-65234190D01*
X71378125Y-65234415D01*
X70811093Y-65234601D01*
X70210797Y-65234749D01*
X69576298Y-65234863D01*
X68906656Y-65234943D01*
X68200931Y-65234993D01*
X67458183Y-65235014D01*
X66677471Y-65235008D01*
X65857857Y-65234977D01*
X64998400Y-65234924D01*
X64098160Y-65234851D01*
X63491000Y-65234793D01*
X62559910Y-65234692D01*
X61670229Y-65234577D01*
X60821032Y-65234446D01*
X60011394Y-65234297D01*
X59240390Y-65234128D01*
X58507096Y-65233937D01*
X57810587Y-65233721D01*
X57149938Y-65233479D01*
X56524224Y-65233208D01*
X55932520Y-65232906D01*
X55373903Y-65232571D01*
X54847447Y-65232201D01*
X54352226Y-65231794D01*
X53887318Y-65231347D01*
X53451796Y-65230859D01*
X53044737Y-65230328D01*
X52665214Y-65229750D01*
X52312304Y-65229125D01*
X51985082Y-65228450D01*
X51682624Y-65227722D01*
X51404003Y-65226941D01*
X51148296Y-65226103D01*
X50914578Y-65225206D01*
X50701924Y-65224248D01*
X50509409Y-65223228D01*
X50336109Y-65222143D01*
X50181098Y-65220991D01*
X50043453Y-65219769D01*
X49922248Y-65218477D01*
X49816558Y-65217110D01*
X49725459Y-65215668D01*
X49648027Y-65214149D01*
X49583335Y-65212549D01*
X49530461Y-65210868D01*
X49488478Y-65209102D01*
X49456462Y-65207250D01*
X49433488Y-65205309D01*
X49418632Y-65203278D01*
X49414322Y-65202327D01*
X49209939Y-65128401D01*
X49029746Y-65023346D01*
X48877453Y-64889900D01*
X48756772Y-64730800D01*
X48742829Y-64707019D01*
X48733027Y-64691059D01*
X48723716Y-64677919D01*
X48714884Y-64666524D01*
X48706519Y-64655797D01*
X48698607Y-64644660D01*
X48691137Y-64632038D01*
X48684096Y-64616852D01*
X48677470Y-64598028D01*
X48671248Y-64574486D01*
X48665417Y-64545152D01*
X48659964Y-64508948D01*
X48654877Y-64464798D01*
X48650144Y-64411624D01*
X48645751Y-64348350D01*
X48641685Y-64273899D01*
X48637936Y-64187194D01*
X48634489Y-64087159D01*
X48631333Y-63972717D01*
X48628454Y-63842791D01*
X48625841Y-63696304D01*
X48623480Y-63532179D01*
X48621359Y-63349341D01*
X48619466Y-63146711D01*
X48617787Y-62923213D01*
X48616311Y-62677771D01*
X48615024Y-62409308D01*
X48613915Y-62116746D01*
X48612970Y-61799010D01*
X48612177Y-61455022D01*
X48611523Y-61083705D01*
X48610997Y-60683984D01*
X48610584Y-60254780D01*
X48610273Y-59795018D01*
X48610051Y-59303620D01*
X48609906Y-58779510D01*
X48609825Y-58221611D01*
X48609795Y-57628846D01*
X48609803Y-57000139D01*
X48609838Y-56334412D01*
X48609887Y-55630589D01*
X48609937Y-54887593D01*
X48609975Y-54104348D01*
X48609989Y-53334539D01*
X48609961Y-52510501D01*
X48609890Y-51727723D01*
X48609793Y-50985132D01*
X48609685Y-50281656D01*
X48609585Y-49616220D01*
X48609510Y-48987753D01*
X48609475Y-48395181D01*
X48609499Y-47837431D01*
X48609598Y-47313429D01*
X48609789Y-46822104D01*
X48610089Y-46362382D01*
X48610515Y-45933189D01*
X48611084Y-45533453D01*
X48611813Y-45162101D01*
X48612719Y-44818060D01*
X48613818Y-44500256D01*
X48615129Y-44207617D01*
X48616667Y-43939070D01*
X48618449Y-43693541D01*
X48620494Y-43469958D01*
X48622817Y-43267247D01*
X48625435Y-43084335D01*
X48628366Y-42920150D01*
X48631626Y-42773619D01*
X48635233Y-42643667D01*
X48639203Y-42529223D01*
X48643554Y-42429213D01*
X48648302Y-42342565D01*
X48653464Y-42268204D01*
X48659057Y-42205059D01*
X48665098Y-42152056D01*
X48671605Y-42108121D01*
X48678593Y-42072183D01*
X48686080Y-42043168D01*
X48694084Y-42020002D01*
X48702620Y-42001613D01*
X48711706Y-41986929D01*
X48721359Y-41974875D01*
X48731596Y-41964378D01*
X48742433Y-41954367D01*
X48753888Y-41943767D01*
X48765978Y-41931506D01*
X48778719Y-41916510D01*
X48790660Y-41899936D01*
X48852650Y-41814070D01*
X48913045Y-41743126D01*
X48963357Y-41696839D01*
X48973636Y-41690104D01*
X49036953Y-41649956D01*
X49105728Y-41601255D01*
X49120550Y-41589946D01*
X49172127Y-41557199D01*
X49239009Y-41530206D01*
X49331127Y-41505537D01*
X49416883Y-41487634D01*
X49431658Y-41484812D01*
X49446893Y-41482117D01*
X49463557Y-41479546D01*
X49482622Y-41477097D01*
X49505057Y-41474767D01*
X49531833Y-41472552D01*
X49563919Y-41470450D01*
X49602286Y-41468457D01*
X49647905Y-41466571D01*
X49701745Y-41464789D01*
X49764776Y-41463108D01*
X49837969Y-41461525D01*
X49922294Y-41460036D01*
X50018720Y-41458640D01*
X50128220Y-41457333D01*
X50251761Y-41456112D01*
X50390316Y-41454974D01*
X50544853Y-41453917D01*
X50716343Y-41452937D01*
X50905757Y-41452031D01*
X51114064Y-41451197D01*
X51342235Y-41450432D01*
X51591239Y-41449732D01*
X51862048Y-41449094D01*
X52155631Y-41448517D01*
X52472958Y-41447996D01*
X52815000Y-41447529D01*
X53182726Y-41447113D01*
X53577108Y-41446745D01*
X53999115Y-41446422D01*
X54449717Y-41446142D01*
X54929885Y-41445900D01*
X55440589Y-41445695D01*
X55982799Y-41445523D01*
X56557484Y-41445381D01*
X57165617Y-41445267D01*
X57808165Y-41445177D01*
X58486101Y-41445108D01*
X59200393Y-41445059D01*
X59952013Y-41445025D01*
X60741930Y-41445004D01*
X61571115Y-41444992D01*
X62440537Y-41444988D01*
X63351167Y-41444987D01*
X63500739Y-41444987D01*
X64418385Y-41444989D01*
G37*
D12*
X64418385Y-41444989D02*
X65294668Y-41444997D01*
X66130555Y-41445013D01*
X66927017Y-41445040D01*
X67685022Y-41445081D01*
X68405540Y-41445138D01*
X69089540Y-41445215D01*
X69737990Y-41445315D01*
X70351861Y-41445439D01*
X70932121Y-41445591D01*
X71479739Y-41445774D01*
X71995686Y-41445990D01*
X72480929Y-41446242D01*
X72936438Y-41446534D01*
X73363183Y-41446867D01*
X73762132Y-41447244D01*
X74134254Y-41447669D01*
X74480520Y-41448145D01*
X74801897Y-41448673D01*
X75099356Y-41449257D01*
X75373865Y-41449899D01*
X75626394Y-41450603D01*
X75857911Y-41451371D01*
X76069386Y-41452206D01*
X76261789Y-41453111D01*
X76436088Y-41454088D01*
X76593252Y-41455140D01*
X76734251Y-41456271D01*
X76860054Y-41457482D01*
X76971630Y-41458777D01*
X77069948Y-41460159D01*
X77155977Y-41461629D01*
X77230687Y-41463192D01*
X77295047Y-41464850D01*
X77350026Y-41466605D01*
X77396594Y-41468461D01*
X77435718Y-41470420D01*
X77468369Y-41472485D01*
X77495516Y-41474659D01*
X77518128Y-41476945D01*
X77537174Y-41479345D01*
X77553623Y-41481862D01*
X77568444Y-41484499D01*
X77573901Y-41485543D01*
X77685516Y-41509808D01*
X77768406Y-41535274D01*
X77836017Y-41566879D01*
X77891401Y-41602181D01*
X77965033Y-41654335D01*
X78017877Y-41694702D01*
X78060486Y-41733314D01*
X78103414Y-41780200D01*
X78157214Y-41845389D01*
X78189485Y-41885489D01*
X78204217Y-41902029D01*
X78218213Y-41914750D01*
X78231493Y-41924720D01*
X78244075Y-41933006D01*
X78255979Y-41940676D01*
X78267222Y-41948798D01*
X78277824Y-41958439D01*
X78287802Y-41970667D01*
X78297177Y-41986550D01*
X78305967Y-42007154D01*
X78314190Y-42033548D01*
X78321866Y-42066800D01*
X78329012Y-42107977D01*
X78335648Y-42158146D01*
X78341792Y-42218376D01*
X78347464Y-42289733D01*
X78352681Y-42373286D01*
X78357463Y-42470102D01*
X78361828Y-42581249D01*
X78365796Y-42707794D01*
X78369384Y-42850805D01*
X78372612Y-43011350D01*
X78375498Y-43190496D01*
X78378061Y-43389311D01*
X78380320Y-43608863D01*
X78382293Y-43850218D01*
X78384000Y-44114446D01*
X78385459Y-44402612D01*
X78386688Y-44715786D01*
X78387707Y-45055034D01*
X78388534Y-45421425D01*
X78389188Y-45816025D01*
X78389687Y-46239903D01*
X78390051Y-46694126D01*
X78390298Y-47179762D01*
X78390447Y-47697878D01*
X78390516Y-48249542D01*
X78390525Y-48835822D01*
X78390492Y-49457785D01*
X78390435Y-50116499D01*
X78390375Y-50813031D01*
X78390328Y-51548449D01*
X78390314Y-52323822D01*
X78390352Y-53140215D01*
X78390370Y-53332889D01*
X78390446Y-54149638D01*
X78390498Y-54925130D01*
X78390524Y-55660439D01*
X78390521Y-56356641D01*
X78390485Y-57014812D01*
X78390414Y-57636027D01*
X78390304Y-58221361D01*
X78390152Y-58771891D01*
X78389954Y-59288692D01*
X78389709Y-59772838D01*
X78389413Y-60225407D01*
X78389062Y-60647472D01*
X78388653Y-61040110D01*
X78388184Y-61404396D01*
X78387651Y-61741406D01*
X78387051Y-62052215D01*
X78386380Y-62337899D01*
X78385637Y-62599533D01*
X78384817Y-62838193D01*
X78383918Y-63054953D01*
X78382936Y-63250890D01*
X78381868Y-63427080D01*
X78380711Y-63584597D01*
X78379462Y-63724517D01*
X78378118Y-63847916D01*
X78376676Y-63955869D01*
X78375132Y-64049452D01*
X78373484Y-64129739D01*
X78371728Y-64197808D01*
X78369861Y-64254732D01*
X78367880Y-64301589D01*
X78365782Y-64339452D01*
X78363563Y-64369398D01*
X78361221Y-64392502D01*
X78358753Y-64409839D01*
X78358070Y-64413639D01*
X78320513Y-64562243D01*
X78264901Y-64689779D01*
X78184306Y-64808742D01*
X78071801Y-64931629D01*
X78069831Y-64933570D01*
X77942079Y-65042339D01*
X77803678Y-65123935D01*
X77641702Y-65185442D01*
X77577416Y-65203438D01*
X77566158Y-65205613D01*
X77548893Y-65207690D01*
X77524683Y-65209671D01*
X77492588Y-65211558D01*
X77451667Y-65213354D01*
X77400980Y-65215061D01*
X77339589Y-65216679D01*
X77266552Y-65218213D01*
X77180929Y-65219663D01*
X77081782Y-65221033D01*
X76968170Y-65222323D01*
X76839153Y-65223536D01*
X76693791Y-65224674D01*
X76531144Y-65225740D01*
X76350272Y-65226735D01*
X76150236Y-65227661D01*
X75930096Y-65228521D01*
X75688911Y-65229316D01*
X75425741Y-65230050D01*
X75139648Y-65230723D01*
X74829690Y-65231337D01*
X74494928Y-65231896D01*
X74134422Y-65232401D01*
X73747232Y-65232854D01*
X73332418Y-65233257D01*
X72889040Y-65233613D01*
X72416159Y-65233923D01*
X71912834Y-65234190D01*
X71378125Y-65234415D01*
X70811093Y-65234601D01*
X70210797Y-65234749D01*
X69576298Y-65234863D01*
X68906656Y-65234943D01*
X68200931Y-65234993D01*
X67458183Y-65235014D01*
X66677471Y-65235008D01*
X65857857Y-65234977D01*
X64998400Y-65234924D01*
X64098160Y-65234851D01*
X63491000Y-65234793D01*
X62559910Y-65234692D01*
X61670229Y-65234577D01*
X60821032Y-65234446D01*
X60011394Y-65234297D01*
X59240390Y-65234128D01*
X58507096Y-65233937D01*
X57810587Y-65233721D01*
X57149938Y-65233479D01*
X56524224Y-65233208D01*
X55932520Y-65232906D01*
X55373903Y-65232571D01*
X54847447Y-65232201D01*
X54352226Y-65231794D01*
X53887318Y-65231347D01*
X53451796Y-65230859D01*
X53044737Y-65230328D01*
X52665214Y-65229750D01*
X52312304Y-65229125D01*
X51985082Y-65228450D01*
X51682624Y-65227722D01*
X51404003Y-65226941D01*
X51148296Y-65226103D01*
X50914578Y-65225206D01*
X50701924Y-65224248D01*
X50509409Y-65223228D01*
X50336109Y-65222143D01*
X50181098Y-65220991D01*
X50043453Y-65219769D01*
X49922248Y-65218477D01*
X49816558Y-65217110D01*
X49725459Y-65215668D01*
X49648027Y-65214149D01*
X49583335Y-65212549D01*
X49530461Y-65210868D01*
X49488478Y-65209102D01*
X49456462Y-65207250D01*
X49433488Y-65205309D01*
X49418632Y-65203278D01*
X49414322Y-65202327D01*
X49209939Y-65128401D01*
X49029746Y-65023346D01*
X48877453Y-64889900D01*
X48756772Y-64730800D01*
X48742829Y-64707019D01*
X48733027Y-64691059D01*
X48723716Y-64677919D01*
X48714884Y-64666524D01*
X48706519Y-64655797D01*
X48698607Y-64644660D01*
X48691137Y-64632038D01*
X48684096Y-64616852D01*
X48677470Y-64598028D01*
X48671248Y-64574486D01*
X48665417Y-64545152D01*
X48659964Y-64508948D01*
X48654877Y-64464798D01*
X48650144Y-64411624D01*
X48645751Y-64348350D01*
X48641685Y-64273899D01*
X48637936Y-64187194D01*
X48634489Y-64087159D01*
X48631333Y-63972717D01*
X48628454Y-63842791D01*
X48625841Y-63696304D01*
X48623480Y-63532179D01*
X48621359Y-63349341D01*
X48619466Y-63146711D01*
X48617787Y-62923213D01*
X48616311Y-62677771D01*
X48615024Y-62409308D01*
X48613915Y-62116746D01*
X48612970Y-61799010D01*
X48612177Y-61455022D01*
X48611523Y-61083705D01*
X48610997Y-60683984D01*
X48610584Y-60254780D01*
X48610273Y-59795018D01*
X48610051Y-59303620D01*
X48609906Y-58779510D01*
X48609825Y-58221611D01*
X48609795Y-57628846D01*
X48609803Y-57000139D01*
X48609838Y-56334412D01*
X48609887Y-55630589D01*
X48609937Y-54887593D01*
X48609975Y-54104348D01*
X48609989Y-53334539D01*
X48609961Y-52510501D01*
X48609890Y-51727723D01*
X48609793Y-50985132D01*
X48609685Y-50281656D01*
X48609585Y-49616220D01*
X48609510Y-48987753D01*
X48609475Y-48395181D01*
X48609499Y-47837431D01*
X48609598Y-47313429D01*
X48609789Y-46822104D01*
X48610089Y-46362382D01*
X48610515Y-45933189D01*
X48611084Y-45533453D01*
X48611813Y-45162101D01*
X48612719Y-44818060D01*
X48613818Y-44500256D01*
X48615129Y-44207617D01*
X48616667Y-43939070D01*
X48618449Y-43693541D01*
X48620494Y-43469958D01*
X48622817Y-43267247D01*
X48625435Y-43084335D01*
X48628366Y-42920150D01*
X48631626Y-42773619D01*
X48635233Y-42643667D01*
X48639203Y-42529223D01*
X48643554Y-42429213D01*
X48648302Y-42342565D01*
X48653464Y-42268204D01*
X48659057Y-42205059D01*
X48665098Y-42152056D01*
X48671605Y-42108121D01*
X48678593Y-42072183D01*
X48686080Y-42043168D01*
X48694084Y-42020002D01*
X48702620Y-42001613D01*
X48711706Y-41986929D01*
X48721359Y-41974875D01*
X48731596Y-41964378D01*
X48742433Y-41954367D01*
X48753888Y-41943767D01*
X48765978Y-41931506D01*
X48778719Y-41916510D01*
X48790660Y-41899936D01*
X48852650Y-41814070D01*
X48913045Y-41743126D01*
X48963357Y-41696839D01*
X48973636Y-41690104D01*
X49036953Y-41649956D01*
X49105728Y-41601255D01*
X49120550Y-41589946D01*
X49172127Y-41557199D01*
X49239009Y-41530206D01*
X49331127Y-41505537D01*
X49416883Y-41487634D01*
X49431658Y-41484812D01*
X49446893Y-41482117D01*
X49463557Y-41479546D01*
X49482622Y-41477097D01*
X49505057Y-41474767D01*
X49531833Y-41472552D01*
X49563919Y-41470450D01*
X49602286Y-41468457D01*
X49647905Y-41466571D01*
X49701745Y-41464789D01*
X49764776Y-41463108D01*
X49837969Y-41461525D01*
X49922294Y-41460036D01*
X50018720Y-41458640D01*
X50128220Y-41457333D01*
X50251761Y-41456112D01*
X50390316Y-41454974D01*
X50544853Y-41453917D01*
X50716343Y-41452937D01*
X50905757Y-41452031D01*
X51114064Y-41451197D01*
X51342235Y-41450432D01*
X51591239Y-41449732D01*
X51862048Y-41449094D01*
X52155631Y-41448517D01*
X52472958Y-41447996D01*
X52815000Y-41447529D01*
X53182726Y-41447113D01*
X53577108Y-41446745D01*
X53999115Y-41446422D01*
X54449717Y-41446142D01*
X54929885Y-41445900D01*
X55440589Y-41445695D01*
X55982799Y-41445523D01*
X56557484Y-41445381D01*
X57165617Y-41445267D01*
X57808165Y-41445177D01*
X58486101Y-41445108D01*
X59200393Y-41445059D01*
X59952013Y-41445025D01*
X60741930Y-41445004D01*
X61571115Y-41444992D01*
X62440537Y-41444988D01*
X63351167Y-41444987D01*
X63500739Y-41444987D01*
X64418385Y-41444989D01*
G04 #@! TD*
D14*
G04 #@! TO.C,X1*
X61019999Y-85109999D03*
D15*
X61020000Y-87650000D03*
D14*
X63559999Y-85109999D03*
X63559999Y-87649999D03*
D16*
X66100000Y-85110000D03*
X66100000Y-87650000D03*
G04 #@! TD*
D17*
G04 #@! TO.C,D3*
X78740000Y-86360000D03*
D18*
X81280000Y-86360000D03*
G04 #@! TD*
D19*
G04 #@! TO.C,D1*
X81280000Y-51852500D03*
X81280000Y-54827500D03*
G04 #@! TD*
G04 #@! TO.C,D2*
X45720000Y-51852500D03*
X45720000Y-54827500D03*
G04 #@! TD*
D20*
G04 #@! TO.C,R2*
X82600000Y-81550000D03*
D21*
X77519999Y-81549999D03*
G04 #@! TD*
M02*
