G04 #@! TF.GenerationSoftware,KiCad,Pcbnew,(7.0.0)*
G04 #@! TF.CreationDate,2023-04-17T17:46:40-04:00*
G04 #@! TF.ProjectId,AA Design THT Modify,41412044-6573-4696-976e-20544854204d,rev?*
G04 #@! TF.SameCoordinates,Original*
G04 #@! TF.FileFunction,Soldermask,Bot*
G04 #@! TF.FilePolarity,Negative*
%FSLAX46Y46*%
G04 Gerber Fmt 4.6, Leading zero omitted, Abs format (unit mm)*
G04 Created by KiCad (PCBNEW (7.0.0)) date 2023-04-17 17:46:40*
%MOMM*%
%LPD*%
G01*
G04 APERTURE LIST*
G04 Aperture macros list*
%AMRoundRect*
0 Rectangle with rounded corners*
0 $1 Rounding radius*
0 $2 $3 $4 $5 $6 $7 $8 $9 X,Y pos of 4 corners*
0 Add a 4 corners polygon primitive as box body*
4,1,4,$2,$3,$4,$5,$6,$7,$8,$9,$2,$3,0*
0 Add four circle primitives for the rounded corners*
1,1,$1+$1,$2,$3*
1,1,$1+$1,$4,$5*
1,1,$1+$1,$6,$7*
1,1,$1+$1,$8,$9*
0 Add four rect primitives between the rounded corners*
20,1,$1+$1,$2,$3,$4,$5,0*
20,1,$1+$1,$4,$5,$6,$7,0*
20,1,$1+$1,$6,$7,$8,$9,0*
20,1,$1+$1,$8,$9,$2,$3,0*%
G04 Aperture macros list end*
%ADD10C,0.010000*%
%ADD11O,2.127200X2.127200*%
%ADD12RoundRect,0.200000X-0.863600X0.863600X-0.863600X-0.863600X0.863600X-0.863600X0.863600X0.863600X0*%
%ADD13C,2.127200*%
%ADD14RoundRect,0.200000X-0.900000X-0.900000X0.900000X-0.900000X0.900000X0.900000X-0.900000X0.900000X0*%
%ADD15C,2.200000*%
%ADD16RoundRect,0.450001X-0.624999X0.462499X-0.624999X-0.462499X0.624999X-0.462499X0.624999X0.462499X0*%
%ADD17C,1.800000*%
%ADD18O,1.800000X1.800000*%
G04 APERTURE END LIST*
G04 #@! TO.C,G\u002A\u002A\u002A*
G36*
X64418385Y-41444989D02*
G01*
X65294668Y-41444997D01*
X66130555Y-41445013D01*
X66927017Y-41445040D01*
X67685022Y-41445081D01*
X68405540Y-41445138D01*
X69089540Y-41445215D01*
X69737990Y-41445315D01*
X70351861Y-41445439D01*
X70932121Y-41445591D01*
X71479739Y-41445774D01*
X71995686Y-41445990D01*
X72480929Y-41446242D01*
X72936438Y-41446534D01*
X73363183Y-41446867D01*
X73762132Y-41447244D01*
X74134254Y-41447669D01*
X74480520Y-41448145D01*
X74801897Y-41448673D01*
X75099356Y-41449257D01*
X75373865Y-41449899D01*
X75626394Y-41450603D01*
X75857911Y-41451371D01*
X76069386Y-41452206D01*
X76261789Y-41453111D01*
X76436088Y-41454088D01*
X76593252Y-41455140D01*
X76734251Y-41456271D01*
X76860054Y-41457482D01*
X76971630Y-41458777D01*
X77069948Y-41460159D01*
X77155977Y-41461629D01*
X77230687Y-41463192D01*
X77295047Y-41464850D01*
X77350026Y-41466605D01*
X77396594Y-41468461D01*
X77435718Y-41470420D01*
X77468369Y-41472485D01*
X77495516Y-41474659D01*
X77518128Y-41476945D01*
X77537174Y-41479345D01*
X77553623Y-41481862D01*
X77568444Y-41484499D01*
X77573901Y-41485543D01*
X77685516Y-41509808D01*
X77768406Y-41535274D01*
X77836017Y-41566879D01*
X77891401Y-41602181D01*
X77965033Y-41654335D01*
X78017877Y-41694702D01*
X78060486Y-41733314D01*
X78103414Y-41780200D01*
X78157214Y-41845389D01*
X78189485Y-41885489D01*
X78204217Y-41902029D01*
X78218213Y-41914750D01*
X78231493Y-41924720D01*
X78244075Y-41933006D01*
X78255979Y-41940676D01*
X78267222Y-41948798D01*
X78277824Y-41958439D01*
X78287802Y-41970667D01*
X78297177Y-41986550D01*
X78305967Y-42007154D01*
X78314190Y-42033548D01*
X78321866Y-42066800D01*
X78329012Y-42107977D01*
X78335648Y-42158146D01*
X78341792Y-42218376D01*
X78347464Y-42289733D01*
X78352681Y-42373286D01*
X78357463Y-42470102D01*
X78361828Y-42581249D01*
X78365796Y-42707794D01*
X78369384Y-42850805D01*
X78372612Y-43011350D01*
X78375498Y-43190496D01*
X78378061Y-43389311D01*
X78380320Y-43608863D01*
X78382293Y-43850218D01*
X78384000Y-44114446D01*
X78385459Y-44402612D01*
X78386688Y-44715786D01*
X78387707Y-45055034D01*
X78388534Y-45421425D01*
X78389188Y-45816025D01*
X78389687Y-46239903D01*
X78390051Y-46694126D01*
X78390298Y-47179762D01*
X78390447Y-47697878D01*
X78390516Y-48249542D01*
X78390525Y-48835822D01*
X78390492Y-49457785D01*
X78390435Y-50116499D01*
X78390375Y-50813031D01*
X78390328Y-51548449D01*
X78390314Y-52323822D01*
X78390352Y-53140215D01*
X78390370Y-53332889D01*
X78390446Y-54149638D01*
X78390498Y-54925130D01*
X78390524Y-55660439D01*
X78390521Y-56356641D01*
X78390485Y-57014812D01*
X78390414Y-57636027D01*
X78390304Y-58221361D01*
X78390152Y-58771891D01*
X78389954Y-59288692D01*
X78389709Y-59772838D01*
X78389413Y-60225407D01*
X78389062Y-60647472D01*
X78388653Y-61040110D01*
X78388184Y-61404396D01*
X78387651Y-61741406D01*
X78387051Y-62052215D01*
X78386380Y-62337899D01*
X78385637Y-62599533D01*
X78384817Y-62838193D01*
X78383918Y-63054953D01*
X78382936Y-63250890D01*
X78381868Y-63427080D01*
X78380711Y-63584597D01*
X78379462Y-63724517D01*
X78378118Y-63847916D01*
X78376676Y-63955869D01*
X78375132Y-64049452D01*
X78373484Y-64129739D01*
X78371728Y-64197808D01*
X78369861Y-64254732D01*
X78367880Y-64301589D01*
X78365782Y-64339452D01*
X78363563Y-64369398D01*
X78361221Y-64392502D01*
X78358753Y-64409839D01*
X78358070Y-64413639D01*
X78320513Y-64562243D01*
X78264901Y-64689779D01*
X78184306Y-64808742D01*
X78071801Y-64931629D01*
X78069831Y-64933570D01*
X77942079Y-65042339D01*
X77803678Y-65123935D01*
X77641702Y-65185442D01*
X77577416Y-65203438D01*
X77566158Y-65205613D01*
X77548893Y-65207690D01*
X77524683Y-65209671D01*
X77492588Y-65211558D01*
X77451667Y-65213354D01*
X77400980Y-65215061D01*
X77339589Y-65216679D01*
X77266552Y-65218213D01*
X77180929Y-65219663D01*
X77081782Y-65221033D01*
X76968170Y-65222323D01*
X76839153Y-65223536D01*
X76693791Y-65224674D01*
X76531144Y-65225740D01*
X76350272Y-65226735D01*
X76150236Y-65227661D01*
X75930096Y-65228521D01*
X75688911Y-65229316D01*
X75425741Y-65230050D01*
X75139648Y-65230723D01*
X74829690Y-65231337D01*
X74494928Y-65231896D01*
X74134422Y-65232401D01*
X73747232Y-65232854D01*
X73332418Y-65233257D01*
X72889040Y-65233613D01*
X72416159Y-65233923D01*
X71912834Y-65234190D01*
X71378125Y-65234415D01*
X70811093Y-65234601D01*
X70210797Y-65234749D01*
X69576298Y-65234863D01*
X68906656Y-65234943D01*
X68200931Y-65234993D01*
X67458183Y-65235014D01*
X66677471Y-65235008D01*
X65857857Y-65234977D01*
X64998400Y-65234924D01*
X64098160Y-65234851D01*
X63491000Y-65234793D01*
X62559910Y-65234692D01*
X61670229Y-65234577D01*
X60821032Y-65234446D01*
X60011394Y-65234297D01*
X59240390Y-65234128D01*
X58507096Y-65233937D01*
X57810587Y-65233721D01*
X57149938Y-65233479D01*
X56524224Y-65233208D01*
X55932520Y-65232906D01*
X55373903Y-65232571D01*
X54847447Y-65232201D01*
X54352226Y-65231794D01*
X53887318Y-65231347D01*
X53451796Y-65230859D01*
X53044737Y-65230328D01*
X52665214Y-65229750D01*
X52312304Y-65229125D01*
X51985082Y-65228450D01*
X51682624Y-65227722D01*
X51404003Y-65226941D01*
X51148296Y-65226103D01*
X50914578Y-65225206D01*
X50701924Y-65224248D01*
X50509409Y-65223228D01*
X50336109Y-65222143D01*
X50181098Y-65220991D01*
X50043453Y-65219769D01*
X49922248Y-65218477D01*
X49816558Y-65217110D01*
X49725459Y-65215668D01*
X49648027Y-65214149D01*
X49583335Y-65212549D01*
X49530461Y-65210868D01*
X49488478Y-65209102D01*
X49456462Y-65207250D01*
X49433488Y-65205309D01*
X49418632Y-65203278D01*
X49414322Y-65202327D01*
X49209939Y-65128401D01*
X49029746Y-65023346D01*
X48877453Y-64889900D01*
X48756772Y-64730800D01*
X48742829Y-64707019D01*
X48733027Y-64691059D01*
X48723716Y-64677919D01*
X48714884Y-64666524D01*
X48706519Y-64655797D01*
X48698607Y-64644660D01*
X48691137Y-64632038D01*
X48684096Y-64616852D01*
X48677470Y-64598028D01*
X48671248Y-64574486D01*
X48665417Y-64545152D01*
X48659964Y-64508948D01*
X48654877Y-64464798D01*
X48650144Y-64411624D01*
X48645751Y-64348350D01*
X48641685Y-64273899D01*
X48637936Y-64187194D01*
X48634489Y-64087159D01*
X48631333Y-63972717D01*
X48628454Y-63842791D01*
X48625841Y-63696304D01*
X48623480Y-63532179D01*
X48621359Y-63349341D01*
X48619466Y-63146711D01*
X48617787Y-62923213D01*
X48616311Y-62677771D01*
X48615024Y-62409308D01*
X48613915Y-62116746D01*
X48612970Y-61799010D01*
X48612177Y-61455022D01*
X48611523Y-61083705D01*
X48610997Y-60683984D01*
X48610584Y-60254780D01*
X48610273Y-59795018D01*
X48610051Y-59303620D01*
X48609906Y-58779510D01*
X48609825Y-58221611D01*
X48609795Y-57628846D01*
X48609803Y-57000139D01*
X48609838Y-56334412D01*
X48609887Y-55630589D01*
X48609937Y-54887593D01*
X48609975Y-54104348D01*
X48609989Y-53334539D01*
X48609961Y-52510501D01*
X48609890Y-51727723D01*
X48609793Y-50985132D01*
X48609685Y-50281656D01*
X48609585Y-49616220D01*
X48609510Y-48987753D01*
X48609475Y-48395181D01*
X48609499Y-47837431D01*
X48609598Y-47313429D01*
X48609789Y-46822104D01*
X48610089Y-46362382D01*
X48610515Y-45933189D01*
X48611084Y-45533453D01*
X48611813Y-45162101D01*
X48612719Y-44818060D01*
X48613818Y-44500256D01*
X48615129Y-44207617D01*
X48616667Y-43939070D01*
X48618449Y-43693541D01*
X48620494Y-43469958D01*
X48622817Y-43267247D01*
X48625435Y-43084335D01*
X48628366Y-42920150D01*
X48631626Y-42773619D01*
X48635233Y-42643667D01*
X48639203Y-42529223D01*
X48643554Y-42429213D01*
X48648302Y-42342565D01*
X48653464Y-42268204D01*
X48659057Y-42205059D01*
X48665098Y-42152056D01*
X48671605Y-42108121D01*
X48678593Y-42072183D01*
X48686080Y-42043168D01*
X48694084Y-42020002D01*
X48702620Y-42001613D01*
X48711706Y-41986929D01*
X48721359Y-41974875D01*
X48731596Y-41964378D01*
X48742433Y-41954367D01*
X48753888Y-41943767D01*
X48765978Y-41931506D01*
X48778719Y-41916510D01*
X48790660Y-41899936D01*
X48852650Y-41814070D01*
X48913045Y-41743126D01*
X48963357Y-41696839D01*
X48973636Y-41690104D01*
X49036953Y-41649956D01*
X49105728Y-41601255D01*
X49120550Y-41589946D01*
X49172127Y-41557199D01*
X49239009Y-41530206D01*
X49331127Y-41505537D01*
X49416883Y-41487634D01*
X49431658Y-41484812D01*
X49446893Y-41482117D01*
X49463557Y-41479546D01*
X49482622Y-41477097D01*
X49505057Y-41474767D01*
X49531833Y-41472552D01*
X49563919Y-41470450D01*
X49602286Y-41468457D01*
X49647905Y-41466571D01*
X49701745Y-41464789D01*
X49764776Y-41463108D01*
X49837969Y-41461525D01*
X49922294Y-41460036D01*
X50018720Y-41458640D01*
X50128220Y-41457333D01*
X50251761Y-41456112D01*
X50390316Y-41454974D01*
X50544853Y-41453917D01*
X50716343Y-41452937D01*
X50905757Y-41452031D01*
X51114064Y-41451197D01*
X51342235Y-41450432D01*
X51591239Y-41449732D01*
X51862048Y-41449094D01*
X52155631Y-41448517D01*
X52472958Y-41447996D01*
X52815000Y-41447529D01*
X53182726Y-41447113D01*
X53577108Y-41446745D01*
X53999115Y-41446422D01*
X54449717Y-41446142D01*
X54929885Y-41445900D01*
X55440589Y-41445695D01*
X55982799Y-41445523D01*
X56557484Y-41445381D01*
X57165617Y-41445267D01*
X57808165Y-41445177D01*
X58486101Y-41445108D01*
X59200393Y-41445059D01*
X59952013Y-41445025D01*
X60741930Y-41445004D01*
X61571115Y-41444992D01*
X62440537Y-41444988D01*
X63351167Y-41444987D01*
X63500739Y-41444987D01*
X64418385Y-41444989D01*
G37*
D10*
X64418385Y-41444989D02*
X65294668Y-41444997D01*
X66130555Y-41445013D01*
X66927017Y-41445040D01*
X67685022Y-41445081D01*
X68405540Y-41445138D01*
X69089540Y-41445215D01*
X69737990Y-41445315D01*
X70351861Y-41445439D01*
X70932121Y-41445591D01*
X71479739Y-41445774D01*
X71995686Y-41445990D01*
X72480929Y-41446242D01*
X72936438Y-41446534D01*
X73363183Y-41446867D01*
X73762132Y-41447244D01*
X74134254Y-41447669D01*
X74480520Y-41448145D01*
X74801897Y-41448673D01*
X75099356Y-41449257D01*
X75373865Y-41449899D01*
X75626394Y-41450603D01*
X75857911Y-41451371D01*
X76069386Y-41452206D01*
X76261789Y-41453111D01*
X76436088Y-41454088D01*
X76593252Y-41455140D01*
X76734251Y-41456271D01*
X76860054Y-41457482D01*
X76971630Y-41458777D01*
X77069948Y-41460159D01*
X77155977Y-41461629D01*
X77230687Y-41463192D01*
X77295047Y-41464850D01*
X77350026Y-41466605D01*
X77396594Y-41468461D01*
X77435718Y-41470420D01*
X77468369Y-41472485D01*
X77495516Y-41474659D01*
X77518128Y-41476945D01*
X77537174Y-41479345D01*
X77553623Y-41481862D01*
X77568444Y-41484499D01*
X77573901Y-41485543D01*
X77685516Y-41509808D01*
X77768406Y-41535274D01*
X77836017Y-41566879D01*
X77891401Y-41602181D01*
X77965033Y-41654335D01*
X78017877Y-41694702D01*
X78060486Y-41733314D01*
X78103414Y-41780200D01*
X78157214Y-41845389D01*
X78189485Y-41885489D01*
X78204217Y-41902029D01*
X78218213Y-41914750D01*
X78231493Y-41924720D01*
X78244075Y-41933006D01*
X78255979Y-41940676D01*
X78267222Y-41948798D01*
X78277824Y-41958439D01*
X78287802Y-41970667D01*
X78297177Y-41986550D01*
X78305967Y-42007154D01*
X78314190Y-42033548D01*
X78321866Y-42066800D01*
X78329012Y-42107977D01*
X78335648Y-42158146D01*
X78341792Y-42218376D01*
X78347464Y-42289733D01*
X78352681Y-42373286D01*
X78357463Y-42470102D01*
X78361828Y-42581249D01*
X78365796Y-42707794D01*
X78369384Y-42850805D01*
X78372612Y-43011350D01*
X78375498Y-43190496D01*
X78378061Y-43389311D01*
X78380320Y-43608863D01*
X78382293Y-43850218D01*
X78384000Y-44114446D01*
X78385459Y-44402612D01*
X78386688Y-44715786D01*
X78387707Y-45055034D01*
X78388534Y-45421425D01*
X78389188Y-45816025D01*
X78389687Y-46239903D01*
X78390051Y-46694126D01*
X78390298Y-47179762D01*
X78390447Y-47697878D01*
X78390516Y-48249542D01*
X78390525Y-48835822D01*
X78390492Y-49457785D01*
X78390435Y-50116499D01*
X78390375Y-50813031D01*
X78390328Y-51548449D01*
X78390314Y-52323822D01*
X78390352Y-53140215D01*
X78390370Y-53332889D01*
X78390446Y-54149638D01*
X78390498Y-54925130D01*
X78390524Y-55660439D01*
X78390521Y-56356641D01*
X78390485Y-57014812D01*
X78390414Y-57636027D01*
X78390304Y-58221361D01*
X78390152Y-58771891D01*
X78389954Y-59288692D01*
X78389709Y-59772838D01*
X78389413Y-60225407D01*
X78389062Y-60647472D01*
X78388653Y-61040110D01*
X78388184Y-61404396D01*
X78387651Y-61741406D01*
X78387051Y-62052215D01*
X78386380Y-62337899D01*
X78385637Y-62599533D01*
X78384817Y-62838193D01*
X78383918Y-63054953D01*
X78382936Y-63250890D01*
X78381868Y-63427080D01*
X78380711Y-63584597D01*
X78379462Y-63724517D01*
X78378118Y-63847916D01*
X78376676Y-63955869D01*
X78375132Y-64049452D01*
X78373484Y-64129739D01*
X78371728Y-64197808D01*
X78369861Y-64254732D01*
X78367880Y-64301589D01*
X78365782Y-64339452D01*
X78363563Y-64369398D01*
X78361221Y-64392502D01*
X78358753Y-64409839D01*
X78358070Y-64413639D01*
X78320513Y-64562243D01*
X78264901Y-64689779D01*
X78184306Y-64808742D01*
X78071801Y-64931629D01*
X78069831Y-64933570D01*
X77942079Y-65042339D01*
X77803678Y-65123935D01*
X77641702Y-65185442D01*
X77577416Y-65203438D01*
X77566158Y-65205613D01*
X77548893Y-65207690D01*
X77524683Y-65209671D01*
X77492588Y-65211558D01*
X77451667Y-65213354D01*
X77400980Y-65215061D01*
X77339589Y-65216679D01*
X77266552Y-65218213D01*
X77180929Y-65219663D01*
X77081782Y-65221033D01*
X76968170Y-65222323D01*
X76839153Y-65223536D01*
X76693791Y-65224674D01*
X76531144Y-65225740D01*
X76350272Y-65226735D01*
X76150236Y-65227661D01*
X75930096Y-65228521D01*
X75688911Y-65229316D01*
X75425741Y-65230050D01*
X75139648Y-65230723D01*
X74829690Y-65231337D01*
X74494928Y-65231896D01*
X74134422Y-65232401D01*
X73747232Y-65232854D01*
X73332418Y-65233257D01*
X72889040Y-65233613D01*
X72416159Y-65233923D01*
X71912834Y-65234190D01*
X71378125Y-65234415D01*
X70811093Y-65234601D01*
X70210797Y-65234749D01*
X69576298Y-65234863D01*
X68906656Y-65234943D01*
X68200931Y-65234993D01*
X67458183Y-65235014D01*
X66677471Y-65235008D01*
X65857857Y-65234977D01*
X64998400Y-65234924D01*
X64098160Y-65234851D01*
X63491000Y-65234793D01*
X62559910Y-65234692D01*
X61670229Y-65234577D01*
X60821032Y-65234446D01*
X60011394Y-65234297D01*
X59240390Y-65234128D01*
X58507096Y-65233937D01*
X57810587Y-65233721D01*
X57149938Y-65233479D01*
X56524224Y-65233208D01*
X55932520Y-65232906D01*
X55373903Y-65232571D01*
X54847447Y-65232201D01*
X54352226Y-65231794D01*
X53887318Y-65231347D01*
X53451796Y-65230859D01*
X53044737Y-65230328D01*
X52665214Y-65229750D01*
X52312304Y-65229125D01*
X51985082Y-65228450D01*
X51682624Y-65227722D01*
X51404003Y-65226941D01*
X51148296Y-65226103D01*
X50914578Y-65225206D01*
X50701924Y-65224248D01*
X50509409Y-65223228D01*
X50336109Y-65222143D01*
X50181098Y-65220991D01*
X50043453Y-65219769D01*
X49922248Y-65218477D01*
X49816558Y-65217110D01*
X49725459Y-65215668D01*
X49648027Y-65214149D01*
X49583335Y-65212549D01*
X49530461Y-65210868D01*
X49488478Y-65209102D01*
X49456462Y-65207250D01*
X49433488Y-65205309D01*
X49418632Y-65203278D01*
X49414322Y-65202327D01*
X49209939Y-65128401D01*
X49029746Y-65023346D01*
X48877453Y-64889900D01*
X48756772Y-64730800D01*
X48742829Y-64707019D01*
X48733027Y-64691059D01*
X48723716Y-64677919D01*
X48714884Y-64666524D01*
X48706519Y-64655797D01*
X48698607Y-64644660D01*
X48691137Y-64632038D01*
X48684096Y-64616852D01*
X48677470Y-64598028D01*
X48671248Y-64574486D01*
X48665417Y-64545152D01*
X48659964Y-64508948D01*
X48654877Y-64464798D01*
X48650144Y-64411624D01*
X48645751Y-64348350D01*
X48641685Y-64273899D01*
X48637936Y-64187194D01*
X48634489Y-64087159D01*
X48631333Y-63972717D01*
X48628454Y-63842791D01*
X48625841Y-63696304D01*
X48623480Y-63532179D01*
X48621359Y-63349341D01*
X48619466Y-63146711D01*
X48617787Y-62923213D01*
X48616311Y-62677771D01*
X48615024Y-62409308D01*
X48613915Y-62116746D01*
X48612970Y-61799010D01*
X48612177Y-61455022D01*
X48611523Y-61083705D01*
X48610997Y-60683984D01*
X48610584Y-60254780D01*
X48610273Y-59795018D01*
X48610051Y-59303620D01*
X48609906Y-58779510D01*
X48609825Y-58221611D01*
X48609795Y-57628846D01*
X48609803Y-57000139D01*
X48609838Y-56334412D01*
X48609887Y-55630589D01*
X48609937Y-54887593D01*
X48609975Y-54104348D01*
X48609989Y-53334539D01*
X48609961Y-52510501D01*
X48609890Y-51727723D01*
X48609793Y-50985132D01*
X48609685Y-50281656D01*
X48609585Y-49616220D01*
X48609510Y-48987753D01*
X48609475Y-48395181D01*
X48609499Y-47837431D01*
X48609598Y-47313429D01*
X48609789Y-46822104D01*
X48610089Y-46362382D01*
X48610515Y-45933189D01*
X48611084Y-45533453D01*
X48611813Y-45162101D01*
X48612719Y-44818060D01*
X48613818Y-44500256D01*
X48615129Y-44207617D01*
X48616667Y-43939070D01*
X48618449Y-43693541D01*
X48620494Y-43469958D01*
X48622817Y-43267247D01*
X48625435Y-43084335D01*
X48628366Y-42920150D01*
X48631626Y-42773619D01*
X48635233Y-42643667D01*
X48639203Y-42529223D01*
X48643554Y-42429213D01*
X48648302Y-42342565D01*
X48653464Y-42268204D01*
X48659057Y-42205059D01*
X48665098Y-42152056D01*
X48671605Y-42108121D01*
X48678593Y-42072183D01*
X48686080Y-42043168D01*
X48694084Y-42020002D01*
X48702620Y-42001613D01*
X48711706Y-41986929D01*
X48721359Y-41974875D01*
X48731596Y-41964378D01*
X48742433Y-41954367D01*
X48753888Y-41943767D01*
X48765978Y-41931506D01*
X48778719Y-41916510D01*
X48790660Y-41899936D01*
X48852650Y-41814070D01*
X48913045Y-41743126D01*
X48963357Y-41696839D01*
X48973636Y-41690104D01*
X49036953Y-41649956D01*
X49105728Y-41601255D01*
X49120550Y-41589946D01*
X49172127Y-41557199D01*
X49239009Y-41530206D01*
X49331127Y-41505537D01*
X49416883Y-41487634D01*
X49431658Y-41484812D01*
X49446893Y-41482117D01*
X49463557Y-41479546D01*
X49482622Y-41477097D01*
X49505057Y-41474767D01*
X49531833Y-41472552D01*
X49563919Y-41470450D01*
X49602286Y-41468457D01*
X49647905Y-41466571D01*
X49701745Y-41464789D01*
X49764776Y-41463108D01*
X49837969Y-41461525D01*
X49922294Y-41460036D01*
X50018720Y-41458640D01*
X50128220Y-41457333D01*
X50251761Y-41456112D01*
X50390316Y-41454974D01*
X50544853Y-41453917D01*
X50716343Y-41452937D01*
X50905757Y-41452031D01*
X51114064Y-41451197D01*
X51342235Y-41450432D01*
X51591239Y-41449732D01*
X51862048Y-41449094D01*
X52155631Y-41448517D01*
X52472958Y-41447996D01*
X52815000Y-41447529D01*
X53182726Y-41447113D01*
X53577108Y-41446745D01*
X53999115Y-41446422D01*
X54449717Y-41446142D01*
X54929885Y-41445900D01*
X55440589Y-41445695D01*
X55982799Y-41445523D01*
X56557484Y-41445381D01*
X57165617Y-41445267D01*
X57808165Y-41445177D01*
X58486101Y-41445108D01*
X59200393Y-41445059D01*
X59952013Y-41445025D01*
X60741930Y-41445004D01*
X61571115Y-41444992D01*
X62440537Y-41444988D01*
X63351167Y-41444987D01*
X63500739Y-41444987D01*
X64418385Y-41444989D01*
G04 #@! TD*
D11*
G04 #@! TO.C,X1*
X61019999Y-85109999D03*
D12*
X61020000Y-87650000D03*
D11*
X63559999Y-85109999D03*
X63559999Y-87649999D03*
D13*
X66100000Y-85110000D03*
X66100000Y-87650000D03*
G04 #@! TD*
D14*
G04 #@! TO.C,D3*
X78740000Y-86360000D03*
D15*
X81280000Y-86360000D03*
G04 #@! TD*
D16*
G04 #@! TO.C,D1*
X81280000Y-51852500D03*
X81280000Y-54827500D03*
G04 #@! TD*
G04 #@! TO.C,D2*
X45720000Y-51852500D03*
X45720000Y-54827500D03*
G04 #@! TD*
D17*
G04 #@! TO.C,R2*
X82600000Y-81550000D03*
D18*
X77519999Y-81549999D03*
G04 #@! TD*
M02*
